<svg width="155" height="154" viewBox="0 0 155 154" fill="none" xmlns="http://www.w3.org/2000/svg">
<circle cx="68" cy="77" r="66" fill="url(#paint0_linear_45_38)"/>
<g filter="url(#filter0_d_45_38)">
<path d="M59.4836 68.976C59.5421 69.0732 59.6208 69.1568 59.7143 69.2212C59.8078 69.2856 59.9139 69.3293 60.0256 69.3494C60.1374 69.3694 60.2521 69.3654 60.3621 69.3375C60.4722 69.3096 60.575 69.2585 60.6637 69.1877L60.7113 69.1497C61.9509 68.1099 63.0526 67.0559 64.1066 65.9138C74.2806 54.8737 68.3442 41.3045 68.2966 41.1807C68.1534 40.8593 68.1217 40.4993 68.2066 40.1579C68.2916 39.8164 68.4882 39.5131 68.7653 39.2963C69.0544 39.088 69.4057 38.9842 69.7615 39.0019C70.1173 39.0197 70.4566 39.1579 70.7235 39.3939C105.224 71.4766 96.0799 95.9146 95.4232 97.5635C92.6561 107.528 81.6684 114.74 68.6297 115.111C68.1943 115.137 67.8612 115.137 67.4781 115.137C52.0863 115.137 39 105.658 39 93.5353V93.3521C39 76.547 54.2062 59.9655 54.8867 59.2731C55.0887 59.0386 55.3632 58.8783 55.6666 58.8175C55.97 58.7568 56.2851 58.799 56.5618 58.9376C56.8412 59.054 57.0785 59.2527 57.2422 59.5073C57.4058 59.7619 57.488 60.0603 57.4778 60.3628C57.3422 63.6487 58.0108 66.511 59.4836 68.9284V68.976Z" fill="white"/>
</g>
<defs>
<filter id="filter0_d_45_38" x="0.930853" y="0.930853" width="153.173" height="171.31" filterUnits="userSpaceOnUse" color-interpolation-filters="sRGB">
<feFlood flood-opacity="0" result="BackgroundImageFix"/>
<feColorMatrix in="SourceAlpha" type="matrix" values="0 0 0 0 0 0 0 0 0 0 0 0 0 0 0 0 0 0 127 0" result="hardAlpha"/>
<feOffset dx="9.51729" dy="9.51729"/>
<feGaussianBlur stdDeviation="23.7932"/>
<feComposite in2="hardAlpha" operator="out"/>
<feColorMatrix type="matrix" values="0 0 0 0 0 0 0 0 0 0 0 0 0 0 0 0 0 0 0.25 0"/>
<feBlend mode="normal" in2="BackgroundImageFix" result="effect1_dropShadow_45_38"/>
<feBlend mode="normal" in="SourceGraphic" in2="effect1_dropShadow_45_38" result="shape"/>
</filter>
<linearGradient id="paint0_linear_45_38" x1="68" y1="11" x2="68" y2="137" gradientUnits="userSpaceOnUse">
<stop offset="0.0082956" stop-color="#FE0079"/>
<stop offset="0.255208" stop-color="#EA1399"/>
<stop offset="0.505208" stop-color="#ED0ABB"/>
<stop offset="0.75" stop-color="#E814C3"/>
<stop offset="0.979167" stop-color="#FA00FF"/>
</linearGradient>
</defs>
</svg>
