<svg width="132" height="132" viewBox="0 0 132 132" fill="none" xmlns="http://www.w3.org/2000/svg">
<circle cx="66" cy="66" r="66" fill="url(#paint0_linear_49_123)"/>
<path d="M56.4836 57.976C56.5421 58.0732 56.6208 58.1568 56.7143 58.2212C56.8078 58.2856 56.9139 58.3293 57.0256 58.3494C57.1374 58.3694 57.2521 58.3654 57.3621 58.3375C57.4722 58.3096 57.575 58.2585 57.6637 58.1877L57.7113 58.1497C58.9509 57.1099 60.0526 56.0559 61.1066 54.9138C71.2806 43.8737 65.3442 30.3045 65.2966 30.1807C65.1534 29.8593 65.1217 29.4993 65.2066 29.1579C65.2916 28.8164 65.4882 28.5131 65.7653 28.2963C66.0544 28.088 66.4057 27.9842 66.7615 28.0019C67.1173 28.0197 67.4566 28.1579 67.7235 28.3939C102.224 60.4766 93.0799 84.9146 92.4232 86.5635C89.6561 96.5281 78.6684 103.74 65.6297 104.111C65.1943 104.137 64.8612 104.137 64.4781 104.137C49.0863 104.137 36 94.658 36 82.5353V82.3521C36 65.547 51.2062 48.9655 51.8867 48.2731C52.0887 48.0386 52.3632 47.8783 52.6666 47.8175C52.97 47.7568 53.2851 47.799 53.5618 47.9376C53.8412 48.054 54.0785 48.2527 54.2422 48.5073C54.4058 48.7619 54.488 49.0603 54.4778 49.3628C54.3422 52.6487 55.0108 55.511 56.4836 57.9284V57.976Z" fill="white"/>
<defs>
<linearGradient id="paint0_linear_49_123" x1="66" y1="0" x2="66" y2="126" gradientUnits="userSpaceOnUse">
<stop offset="0.0082956" stop-color="#FE0079"/>
<stop offset="0.255208" stop-color="#EA1399"/>
<stop offset="0.505208" stop-color="#ED0ABB"/>
<stop offset="0.75" stop-color="#E814C3"/>
<stop offset="0.979167" stop-color="#FA00FF"/>
</linearGradient>
</defs>
</svg>
