<svg width="88" height="88" viewBox="0 0 88 88" fill="none" xmlns="http://www.w3.org/2000/svg">
<circle cx="44" cy="44" r="44" fill="#FF4DA2"/>
<path d="M66.9606 39.1676C66.7333 31.4383 60.5953 25.3003 52.8659 25.3003C50.3653 25.3003 46.5006 27.119 44.9093 30.0743C44.6819 30.7563 43.7726 30.7563 43.5453 30.0743C41.7266 27.3463 38.0893 25.5276 35.3613 25.5276C27.8593 25.5276 21.4939 31.6656 21.2666 39.1676V39.395V39.6223C21.2666 43.487 22.8579 47.1243 25.5859 49.8523C25.5859 49.8523 25.5859 49.8523 25.5859 50.0796C25.8133 50.307 36.7253 59.855 41.7266 64.1743C43.0906 65.311 45.1366 65.311 46.5006 64.1743C51.5019 59.855 62.1866 50.307 62.6413 50.0796C62.6413 50.0796 62.6413 50.0796 62.6413 49.8523C65.3693 47.3516 66.9606 43.7143 66.9606 39.6223V39.1676Z" fill="#7C2250"/>
</svg>
