<svg width="916" height="916" viewBox="0 0 916 916" fill="none" xmlns="http://www.w3.org/2000/svg">
<circle cx="458" cy="458" r="458" fill="#050215"/>
<mask id="mask0_171_145" style="mask-type:alpha" maskUnits="userSpaceOnUse" x="0" y="0" width="916" height="916">
<circle cx="458" cy="458" r="458" fill="#050215"/>
</mask>
<g mask="url(#mask0_171_145)">
<g filter="url(#filter0_dd_171_145)">
<path fill-rule="evenodd" clip-rule="evenodd" d="M453.625 597.727C520.224 575.614 548.153 581.379 579.21 572.022C596.274 566.876 610.647 552.045 617.5 543.185C625.876 532.359 629.941 514.3 623.891 495.719C618.982 480.657 607.859 463.666 597.349 453.908C585.097 442.548 572.357 438.604 555.061 432.172C536.691 425.339 535.399 414.149 522.046 399.027C510.597 386.053 499.529 378.321 483.444 373.443C440.734 360.481 366.139 375.566 348.939 429.016C343.88 444.769 347.824 462.744 348.408 479.868C349.238 503.595 315.557 520.368 339.285 574.497C354.337 612.801 419.808 608.965 453.625 597.727V597.727ZM636.604 197.183L648.162 204.962C677.097 230.595 691.891 252.174 702.918 290.938C712.749 325.539 715.564 370.506 714.571 404.403C713.592 438.021 708.113 471.749 699.913 502.224C691.293 534.253 674.473 560.261 651.303 580.117C600.843 623.347 520.809 657.5 436.791 652.645C395.306 650.254 346.464 634.962 314.551 616.551C233.511 569.788 166.734 474.722 161.01 385.385C157.909 336.911 169.318 284.809 212.979 256.664C221.572 251.118 228.874 248.508 240.772 247.234C256.789 245.511 251.364 239.078 254.423 228.956C265.641 192 311.002 164.013 365.663 174.281C379.057 176.805 381.26 176.927 391.349 168.735C403.586 158.795 420.678 148.333 438.749 142.993C474.877 132.313 520.401 139.194 543.489 162.217C549.635 168.346 553.062 176.126 560.405 179.378C572.819 184.9 583.126 171.465 630.92 194.768L636.604 197.158V197.183ZM661.297 199.003C658.36 194.306 645.606 186.952 640.248 185.107C634.632 179.645 601.523 169.147 588.184 167.679C581.657 166.963 571.976 168.54 566.578 167.436C561.492 165.421 548.317 133.332 490.895 126.05C447.302 120.516 412.969 135.699 381.98 158.6C370.939 166.768 375.032 159.219 347.239 159.086C308.894 158.892 279.619 172.218 256.368 196.697C251.69 201.613 248.033 207.596 245 214.101C242.077 220.364 240.663 228.944 238.025 234.309C212.734 239.066 199.069 247.416 183.513 263.461C161.662 286.01 151.519 315.381 147.412 345.625C135.311 434.793 189.795 538.015 263.738 596.926C294.835 621.709 320.615 637.863 362.006 651.346C452.85 680.935 542.918 664.502 621.28 617.667C656.606 596.55 683.012 574.497 700.294 540.539C725.368 491.265 732.737 407.85 727.625 350.868C725.164 323.488 718.786 286.229 707.555 260.888C702.239 248.909 694.529 235.983 687.159 225.91C682.182 219.101 667.103 200.508 661.27 199.015L661.297 199.003ZM331.425 218.58C294.25 232.658 293.434 307.589 322.859 335.018C349.224 359.583 377.044 348.587 390.139 315.66C395.482 302.213 396.176 287.528 392.708 271.192C389.459 255.863 382.456 239.552 372.911 229.393C364.82 220.776 348.83 212.002 331.425 218.58V218.58ZM471.016 189.755C456.956 196.03 449.341 209.356 446.255 221.966C439.864 248.156 439.456 290.477 460.002 311.971C491.67 345.067 543.911 319.75 532.843 247.319C528.451 218.543 506.314 174.002 471.016 189.767V189.755ZM607.03 257.781C593.011 264.517 586.443 278.68 581.603 291.338C576.368 305.053 575.865 321.437 577.986 338.125C580.134 355.031 586.185 372.896 596.737 385.057C625.509 418.214 678.008 402.388 668.422 318.974C666.206 299.701 662.861 284.53 650.8 270.488C642.492 260.815 625.468 248.933 607.03 257.781V257.781ZM235.265 347.774C203.569 358.405 196.676 392.922 207.948 427.026C218.091 457.707 241.995 483.23 279.511 473.46C296.385 469.067 303.061 455.231 306.161 441.929C309.833 426.273 310.975 411.661 305.196 394.111C300.491 379.826 290.307 364.995 280.299 356.124C270.169 347.13 254.641 341.293 235.251 347.786L235.265 347.774Z" fill="#FEFEFE"/>
<path fill-rule="evenodd" clip-rule="evenodd" d="M453.625 597.727C520.224 575.614 548.153 581.379 579.21 572.022C596.274 566.876 610.647 552.045 617.5 543.185C625.876 532.359 629.941 514.3 623.891 495.719C618.982 480.657 607.859 463.666 597.349 453.908C585.097 442.548 572.357 438.604 555.061 432.172C536.691 425.339 535.399 414.149 522.046 399.027C510.597 386.053 499.529 378.321 483.444 373.443C440.734 360.481 366.139 375.566 348.939 429.016C343.88 444.769 347.824 462.744 348.408 479.868C349.238 503.595 315.557 520.368 339.285 574.497C354.337 612.801 419.808 608.965 453.625 597.727V597.727ZM636.604 197.183L648.162 204.962C677.097 230.595 691.891 252.174 702.918 290.938C712.749 325.539 715.564 370.506 714.571 404.403C713.592 438.021 708.113 471.749 699.913 502.224C691.293 534.253 674.473 560.261 651.303 580.117C600.843 623.347 520.809 657.5 436.791 652.645C395.306 650.254 346.464 634.962 314.551 616.551C233.511 569.788 166.734 474.722 161.01 385.385C157.909 336.911 169.318 284.809 212.979 256.664C221.572 251.118 228.874 248.508 240.772 247.234C256.789 245.511 251.364 239.078 254.423 228.956C265.641 192 311.002 164.013 365.663 174.281C379.057 176.805 381.26 176.927 391.349 168.735C403.586 158.795 420.678 148.333 438.749 142.993C474.877 132.313 520.401 139.194 543.489 162.217C549.635 168.346 553.062 176.126 560.405 179.378C572.819 184.9 583.126 171.465 630.92 194.768L636.604 197.158V197.183ZM661.297 199.003C658.36 194.306 645.606 186.952 640.248 185.107C634.632 179.645 601.523 169.147 588.184 167.679C581.657 166.963 571.976 168.54 566.578 167.436C561.492 165.421 548.317 133.332 490.895 126.05C447.302 120.516 412.969 135.699 381.98 158.6C370.939 166.768 375.032 159.219 347.239 159.086C308.894 158.892 279.619 172.218 256.368 196.697C251.69 201.613 248.033 207.596 245 214.101C242.077 220.364 240.663 228.944 238.025 234.309C212.734 239.066 199.069 247.416 183.513 263.461C161.662 286.01 151.519 315.381 147.412 345.625C135.311 434.793 189.795 538.015 263.738 596.926C294.835 621.709 320.615 637.863 362.006 651.346C452.85 680.935 542.918 664.502 621.28 617.667C656.606 596.55 683.012 574.497 700.294 540.539C725.368 491.265 732.737 407.85 727.625 350.868C725.164 323.488 718.786 286.229 707.555 260.888C702.239 248.909 694.529 235.983 687.159 225.91C682.182 219.101 667.103 200.508 661.27 199.015L661.297 199.003ZM331.425 218.58C294.25 232.658 293.434 307.589 322.859 335.018C349.224 359.583 377.044 348.587 390.139 315.66C395.482 302.213 396.176 287.528 392.708 271.192C389.459 255.863 382.456 239.552 372.911 229.393C364.82 220.776 348.83 212.002 331.425 218.58V218.58ZM471.016 189.755C456.956 196.03 449.341 209.356 446.255 221.966C439.864 248.156 439.456 290.477 460.002 311.971C491.67 345.067 543.911 319.75 532.843 247.319C528.451 218.543 506.314 174.002 471.016 189.767V189.755ZM607.03 257.781C593.011 264.517 586.443 278.68 581.603 291.338C576.368 305.053 575.865 321.437 577.986 338.125C580.134 355.031 586.185 372.896 596.737 385.057C625.509 418.214 678.008 402.388 668.422 318.974C666.206 299.701 662.861 284.53 650.8 270.488C642.492 260.815 625.468 248.933 607.03 257.781V257.781ZM235.265 347.774C203.569 358.405 196.676 392.922 207.948 427.026C218.091 457.707 241.995 483.23 279.511 473.46C296.385 469.067 303.061 455.231 306.161 441.929C309.833 426.273 310.975 411.661 305.196 394.111C300.491 379.826 290.307 364.995 280.299 356.124C270.169 347.13 254.641 341.293 235.251 347.786L235.265 347.774Z" fill="#FF2EA8" stroke="#9C1A78" stroke-width="6.48593" stroke-miterlimit="22.9256"/>
</g>
</g>
<g filter="url(#filter1_d_171_145)">
<path d="M366.168 722.043C370.728 722.043 374.903 722.785 378.693 724.268C382.539 725.751 385.862 727.839 388.664 730.531C391.521 733.222 393.718 736.381 395.256 740.007C396.849 743.633 397.646 747.588 397.646 751.873C397.646 756.158 396.849 760.168 395.256 763.904C393.718 767.585 391.521 770.771 388.664 773.463C385.862 776.154 382.539 778.269 378.693 779.808C374.903 781.291 370.728 782.033 366.168 782.033C361.608 782.033 357.406 781.291 353.56 779.808C349.77 778.269 346.446 776.154 343.59 773.463C340.788 770.771 338.59 767.585 336.997 763.904C335.459 760.223 334.69 756.213 334.69 751.873C334.69 747.533 335.459 743.55 336.997 739.925C338.59 736.299 340.788 733.168 343.59 730.531C346.446 727.839 349.77 725.751 353.56 724.268C357.406 722.785 361.608 722.043 366.168 722.043ZM366.415 736.299C364.492 736.299 362.652 736.683 360.894 737.453C359.191 738.222 357.681 739.32 356.362 740.749C355.099 742.177 354.082 743.852 353.313 745.775C352.599 747.643 352.242 749.703 352.242 751.955C352.242 754.208 352.626 756.295 353.396 758.218C354.165 760.141 355.181 761.816 356.444 763.245C357.763 764.673 359.274 765.799 360.977 766.623C362.68 767.392 364.492 767.777 366.415 767.777C368.283 767.777 370.041 767.392 371.689 766.623C373.337 765.799 374.793 764.673 376.056 763.245C377.32 761.816 378.309 760.141 379.023 758.218C379.737 756.295 380.094 754.208 380.094 751.955C380.094 749.703 379.737 747.643 379.023 745.775C378.309 743.852 377.32 742.177 376.056 740.749C374.793 739.32 373.337 738.222 371.689 737.453C370.041 736.683 368.283 736.299 366.415 736.299ZM430.258 723.114C437.729 723.114 443.497 724.9 447.562 728.471C451.682 732.041 453.743 737.068 453.743 743.55C453.743 750.472 451.682 755.856 447.562 759.701C443.497 763.492 437.729 765.387 430.258 765.387H413.695L421.193 757.888V780.879H404.053V723.114H430.258ZM429.434 752.12C432.016 752.12 433.993 751.434 435.367 750.06C436.795 748.687 437.509 746.682 437.509 744.045C437.509 741.573 436.795 739.677 435.367 738.359C433.993 736.986 432.016 736.299 429.434 736.299H413.695L421.193 728.883V759.619L413.695 752.12H429.434ZM460.303 723.114H507.52V736.299H477.443V745.363H504.718V758.548H477.443V767.694H508.344V780.879H460.303V723.114ZM516.553 723.114H531.138L560.227 761.349L555.694 762.915V723.114H571.351V780.879H556.766L527.76 742.809L532.292 741.243V780.879H516.553V723.114Z" fill="#FF2EA8"/>
</g>
<defs>
<filter id="filter0_dd_171_145" x="-282.887" y="-303.704" width="1440.65" height="1398.5" filterUnits="userSpaceOnUse" color-interpolation-filters="sRGB">
<feFlood flood-opacity="0" result="BackgroundImageFix"/>
<feColorMatrix in="SourceAlpha" type="matrix" values="0 0 0 0 0 0 0 0 0 0 0 0 0 0 0 0 0 0 127 0" result="hardAlpha"/>
<feOffset/>
<feGaussianBlur stdDeviation="212.684"/>
<feComposite in2="hardAlpha" operator="out"/>
<feColorMatrix type="matrix" values="0 0 0 0 0.13421 0 0 0 0 0.01875 0 0 0 0 0.75 0 0 0 0.8 0"/>
<feBlend mode="normal" in2="BackgroundImageFix" result="effect1_dropShadow_171_145"/>
<feColorMatrix in="SourceAlpha" type="matrix" values="0 0 0 0 0 0 0 0 0 0 0 0 0 0 0 0 0 0 127 0" result="hardAlpha"/>
<feOffset/>
<feGaussianBlur stdDeviation="30.2449"/>
<feComposite in2="hardAlpha" operator="out"/>
<feColorMatrix type="matrix" values="0 0 0 0 1 0 0 0 0 0.176471 0 0 0 0 0.658824 0 0 0 0.3 0"/>
<feBlend mode="normal" in2="effect1_dropShadow_171_145" result="effect2_dropShadow_171_145"/>
<feBlend mode="normal" in="SourceGraphic" in2="effect2_dropShadow_171_145" result="shape"/>
</filter>
<filter id="filter1_d_171_145" x="327.646" y="714.999" width="250.75" height="74.0783" filterUnits="userSpaceOnUse" color-interpolation-filters="sRGB">
<feFlood flood-opacity="0" result="BackgroundImageFix"/>
<feColorMatrix in="SourceAlpha" type="matrix" values="0 0 0 0 0 0 0 0 0 0 0 0 0 0 0 0 0 0 127 0" result="hardAlpha"/>
<feOffset/>
<feGaussianBlur stdDeviation="3.52227"/>
<feComposite in2="hardAlpha" operator="out"/>
<feColorMatrix type="matrix" values="0 0 0 0 1 0 0 0 0 0.180392 0 0 0 0 0.658824 0 0 0 1 0"/>
<feBlend mode="normal" in2="BackgroundImageFix" result="effect1_dropShadow_171_145"/>
<feBlend mode="normal" in="SourceGraphic" in2="effect1_dropShadow_171_145" result="shape"/>
</filter>
</defs>
</svg>
