<svg width="132" height="132" viewBox="0 0 132 132" fill="none" xmlns="http://www.w3.org/2000/svg">
<circle cx="66" cy="66" r="66" fill="url(#paint0_linear_45_40)"/>
<path d="M57.4836 57.976C57.5421 58.0732 57.6208 58.1568 57.7143 58.2212C57.8078 58.2856 57.9139 58.3293 58.0256 58.3494C58.1374 58.3694 58.2521 58.3654 58.3621 58.3375C58.4722 58.3096 58.575 58.2585 58.6637 58.1877L58.7113 58.1497C59.9509 57.1099 61.0526 56.0559 62.1066 54.9138C72.2806 43.8737 66.3442 30.3045 66.2966 30.1807C66.1534 29.8593 66.1217 29.4993 66.2066 29.1579C66.2916 28.8164 66.4882 28.5131 66.7653 28.2963C67.0544 28.088 67.4057 27.9842 67.7615 28.0019C68.1173 28.0197 68.4566 28.1579 68.7235 28.3939C103.224 60.4766 94.0799 84.9146 93.4232 86.5635C90.6561 96.5281 79.6684 103.74 66.6297 104.111C66.1943 104.137 65.8612 104.137 65.4781 104.137C50.0863 104.137 37 94.658 37 82.5353V82.3521C37 65.547 52.2062 48.9655 52.8867 48.2731C53.0887 48.0386 53.3632 47.8783 53.6666 47.8175C53.97 47.7568 54.2851 47.799 54.5618 47.9376C54.8412 48.054 55.0785 48.2527 55.2422 48.5073C55.4058 48.7619 55.488 49.0603 55.4778 49.3628C55.3422 52.6487 56.0108 55.511 57.4836 57.9284V57.976Z" fill="white"/>
<defs>
<linearGradient id="paint0_linear_45_40" x1="66" y1="0" x2="66" y2="126" gradientUnits="userSpaceOnUse">
<stop offset="0.0082956" stop-color="#FE0079"/>
<stop offset="0.255208" stop-color="#EA1399"/>
<stop offset="0.505208" stop-color="#ED0ABB"/>
<stop offset="0.75" stop-color="#E814C3"/>
<stop offset="0.979167" stop-color="#FA00FF"/>
</linearGradient>
</defs>
</svg>
