<svg width="132" height="132" viewBox="0 0 132 132" fill="none" xmlns="http://www.w3.org/2000/svg">
<circle cx="66" cy="66" r="66" fill="#050215"/>
<mask id="mask0_171_145" style="mask-type:alpha" maskUnits="userSpaceOnUse" x="0" y="0" width="132" height="132">
<circle cx="66" cy="66" r="66" fill="#050215"/>
</mask>
<g mask="url(#mask0_171_145)">
<g filter="url(#filter0_dd_171_145)">
<path fill-rule="evenodd" clip-rule="evenodd" d="M65.3697 86.1354C74.9671 82.9489 78.9918 83.7796 83.4671 82.4312C85.9262 81.6896 87.9974 79.5524 88.9849 78.2757C90.1919 76.7156 90.7778 74.1132 89.9059 71.4356C89.1985 69.2651 87.5957 66.8166 86.081 65.4105C84.3156 63.7735 82.4796 63.2051 79.9872 62.2781C77.34 61.2935 77.1538 59.6809 75.2296 57.5018C73.5798 55.6321 71.9848 54.5181 69.6668 53.815C63.5122 51.9471 52.7627 54.1211 50.284 61.8234C49.5551 64.0935 50.1233 66.6837 50.2076 69.1515C50.3271 72.5706 45.4735 74.9877 48.8928 82.788C51.0619 88.3076 60.4966 87.755 65.3697 86.1354V86.1354ZM91.7379 28.4151L93.4035 29.5362C97.5732 33.2299 99.705 36.3396 101.294 41.9257C102.711 46.9119 103.116 53.3917 102.973 58.2765C102.832 63.1211 102.043 67.9814 100.861 72.373C99.6188 76.9885 97.195 80.7365 93.8561 83.5977C86.5846 89.8275 75.0513 94.749 62.9439 94.0494C56.9657 93.7049 49.9274 91.5012 45.3285 88.8481C33.6503 82.1094 24.0274 68.4099 23.2025 55.536C22.7558 48.5507 24.3997 41.0425 30.6915 36.9867C31.9299 36.1874 32.9821 35.8114 34.6966 35.6277C37.0048 35.3794 36.223 34.4525 36.6639 32.9938C38.2804 27.6683 44.8171 23.6352 52.6941 25.1149C54.6241 25.4786 54.9416 25.4961 56.3955 24.3156C58.159 22.8832 60.622 21.3756 63.2261 20.6061C68.4323 19.067 74.9925 20.0587 78.3197 23.3764C79.2053 24.2596 79.6991 25.3807 80.7572 25.8494C82.5462 26.6452 84.0315 24.7091 90.9189 28.0671L91.7379 28.4116V28.4151ZM95.2963 28.6774C94.8731 28.0006 93.0351 26.9407 92.2631 26.6749C91.4538 25.8879 86.6826 24.375 84.7604 24.1634C83.8198 24.0602 82.4247 24.2876 81.6468 24.1284C80.914 23.8381 79.0153 19.2139 70.7406 18.1646C64.4586 17.367 59.511 19.555 55.0454 22.8552C53.4543 24.0323 54.0441 22.9444 50.039 22.9252C44.5134 22.8972 40.2947 24.8175 36.9441 28.3451C36.27 29.0535 35.7429 29.9157 35.306 30.8531C34.8847 31.7556 34.6809 32.9921 34.3008 33.7651C30.6562 34.4507 28.687 35.654 26.4454 37.9661C23.2966 41.2156 21.8348 45.4481 21.2431 49.8064C19.4992 62.6559 27.3507 77.5306 38.0061 86.02C42.4873 89.5914 46.2025 91.9192 52.167 93.8623C65.258 98.1262 78.2374 95.7581 89.5297 89.009C94.6203 85.9658 98.4255 82.788 100.916 77.8944C104.529 70.7937 105.591 58.7732 104.854 50.562C104.5 46.6163 103.581 41.2471 101.962 37.5953C101.196 35.8691 100.085 34.0065 99.0232 32.5549C98.306 31.5737 96.133 28.8943 95.2924 28.6792L95.2963 28.6774ZM47.7602 31.4985C42.4031 33.5273 42.2855 44.3252 46.5258 48.2778C50.3251 51.8177 54.3341 50.2332 56.2211 45.4883C56.9911 43.5505 57.0911 41.4342 56.5914 39.0802C56.1231 36.8712 55.114 34.5207 53.7385 33.0568C52.5726 31.815 50.2683 30.5506 47.7602 31.4985V31.4985ZM67.8759 27.3448C65.8498 28.249 64.7525 30.1693 64.3077 31.9864C63.3868 35.7607 63.328 41.8592 66.2887 44.9566C70.8522 49.726 78.3804 46.0777 76.7854 35.64C76.1525 31.4932 72.9626 25.0746 67.8759 27.3465V27.3448ZM87.4762 37.1476C85.456 38.1182 84.5096 40.1593 83.812 41.9834C83.0576 43.9597 82.9851 46.3208 83.2908 48.7256C83.6004 51.1618 84.4723 53.7363 85.9929 55.4887C90.139 60.2668 97.7044 57.9862 96.323 45.9657C96.0037 43.1884 95.5216 41.0022 93.7836 38.9787C92.5864 37.5848 90.1332 35.8726 87.4762 37.1476V37.1476ZM33.903 50.116C29.3356 51.6481 28.3421 56.622 29.9665 61.5366C31.4283 65.9579 34.873 69.6359 40.2791 68.228C42.7107 67.5949 43.6728 65.6011 44.1196 63.6843C44.6486 61.4281 44.8132 59.3224 43.9804 56.7934C43.3025 54.7349 41.8349 52.5977 40.3927 51.3193C38.9329 50.0233 36.6952 49.182 33.9011 50.1177L33.903 50.116Z" fill="#FEFEFE"/>
<path fill-rule="evenodd" clip-rule="evenodd" d="M65.3697 86.1354C74.9671 82.9489 78.9918 83.7796 83.4671 82.4312C85.9262 81.6896 87.9974 79.5524 88.9849 78.2757C90.1919 76.7156 90.7778 74.1132 89.9059 71.4356C89.1985 69.2651 87.5957 66.8166 86.081 65.4105C84.3156 63.7735 82.4796 63.2051 79.9872 62.2781C77.34 61.2935 77.1538 59.6809 75.2296 57.5018C73.5798 55.6321 71.9848 54.5181 69.6668 53.815C63.5122 51.9471 52.7627 54.1211 50.284 61.8234C49.5551 64.0935 50.1233 66.6837 50.2076 69.1515C50.3271 72.5706 45.4735 74.9877 48.8928 82.788C51.0619 88.3076 60.4966 87.755 65.3697 86.1354V86.1354ZM91.7379 28.4151L93.4035 29.5362C97.5732 33.2299 99.705 36.3396 101.294 41.9257C102.711 46.9119 103.116 53.3917 102.973 58.2765C102.832 63.1211 102.043 67.9814 100.861 72.373C99.6188 76.9885 97.195 80.7365 93.8561 83.5977C86.5846 89.8275 75.0513 94.749 62.9439 94.0494C56.9657 93.7049 49.9274 91.5012 45.3285 88.8481C33.6503 82.1094 24.0274 68.4099 23.2025 55.536C22.7558 48.5507 24.3997 41.0425 30.6915 36.9867C31.9299 36.1874 32.9821 35.8114 34.6966 35.6277C37.0048 35.3794 36.223 34.4525 36.6639 32.9938C38.2804 27.6683 44.8171 23.6352 52.6941 25.1149C54.6241 25.4786 54.9416 25.4961 56.3955 24.3156C58.159 22.8832 60.622 21.3756 63.2261 20.6061C68.4323 19.067 74.9925 20.0587 78.3197 23.3764C79.2053 24.2596 79.6991 25.3807 80.7572 25.8494C82.5462 26.6452 84.0315 24.7091 90.9189 28.0671L91.7379 28.4116V28.4151ZM95.2963 28.6774C94.8731 28.0006 93.0351 26.9407 92.2631 26.6749C91.4538 25.8879 86.6826 24.375 84.7604 24.1634C83.8198 24.0602 82.4247 24.2876 81.6468 24.1284C80.914 23.8381 79.0153 19.2139 70.7406 18.1646C64.4586 17.367 59.511 19.555 55.0454 22.8552C53.4543 24.0323 54.0441 22.9444 50.039 22.9252C44.5134 22.8972 40.2947 24.8175 36.9441 28.3451C36.27 29.0535 35.7429 29.9157 35.306 30.8531C34.8847 31.7556 34.6809 32.9921 34.3008 33.7651C30.6562 34.4507 28.687 35.654 26.4454 37.9661C23.2966 41.2156 21.8348 45.4481 21.2431 49.8064C19.4992 62.6559 27.3507 77.5306 38.0061 86.02C42.4873 89.5914 46.2025 91.9192 52.167 93.8623C65.258 98.1262 78.2374 95.7581 89.5297 89.009C94.6203 85.9658 98.4255 82.788 100.916 77.8944C104.529 70.7937 105.591 58.7732 104.854 50.562C104.5 46.6163 103.581 41.2471 101.962 37.5953C101.196 35.8691 100.085 34.0065 99.0232 32.5549C98.306 31.5737 96.133 28.8943 95.2924 28.6792L95.2963 28.6774ZM47.7602 31.4985C42.4031 33.5273 42.2855 44.3252 46.5258 48.2778C50.3251 51.8177 54.3341 50.2332 56.2211 45.4883C56.9911 43.5505 57.0911 41.4342 56.5914 39.0802C56.1231 36.8712 55.114 34.5207 53.7385 33.0568C52.5726 31.815 50.2683 30.5506 47.7602 31.4985V31.4985ZM67.8759 27.3448C65.8498 28.249 64.7525 30.1693 64.3077 31.9864C63.3868 35.7607 63.328 41.8592 66.2887 44.9566C70.8522 49.726 78.3804 46.0777 76.7854 35.64C76.1525 31.4932 72.9626 25.0746 67.8759 27.3465V27.3448ZM87.4762 37.1476C85.456 38.1182 84.5096 40.1593 83.812 41.9834C83.0576 43.9597 82.9851 46.3208 83.2908 48.7256C83.6004 51.1618 84.4723 53.7363 85.9929 55.4887C90.139 60.2668 97.7044 57.9862 96.323 45.9657C96.0037 43.1884 95.5216 41.0022 93.7836 38.9787C92.5864 37.5848 90.1332 35.8726 87.4762 37.1476V37.1476ZM33.903 50.116C29.3356 51.6481 28.3421 56.622 29.9665 61.5366C31.4283 65.9579 34.873 69.6359 40.2791 68.228C42.7107 67.5949 43.6728 65.6011 44.1196 63.6843C44.6486 61.4281 44.8132 59.3224 43.9804 56.7934C43.3025 54.7349 41.8349 52.5977 40.3927 51.3193C38.9329 50.0233 36.6952 49.182 33.9011 50.1177L33.903 50.116Z" fill="#FF2EA8" stroke="#9C1A78" stroke-width="0.934654" stroke-miterlimit="22.9256"/>
</g>
</g>
<g filter="url(#filter1_d_171_145)">
<path d="M52.7663 103.521C53.4234 103.521 54.025 103.628 54.5713 103.842C55.1254 104.056 55.6044 104.357 56.0081 104.745C56.4197 105.132 56.7364 105.588 56.9581 106.11C57.1876 106.633 57.3024 107.203 57.3024 107.82C57.3024 108.438 57.1876 109.015 56.9581 109.554C56.7364 110.084 56.4197 110.543 56.0081 110.931C55.6044 111.319 55.1254 111.624 54.5713 111.846C54.025 112.059 53.4234 112.166 52.7663 112.166C52.1092 112.166 51.5036 112.059 50.9495 111.846C50.4032 111.624 49.9243 111.319 49.5126 110.931C49.1089 110.543 48.7922 110.084 48.5627 109.554C48.341 109.023 48.2302 108.446 48.2302 107.82C48.2302 107.195 48.341 106.621 48.5627 106.098C48.7922 105.576 49.1089 105.125 49.5126 104.745C49.9243 104.357 50.4032 104.056 50.9495 103.842C51.5036 103.628 52.1092 103.521 52.7663 103.521ZM52.8019 105.576C52.5249 105.576 52.2597 105.631 52.0063 105.742C51.7609 105.853 51.5432 106.011 51.3532 106.217C51.1711 106.423 51.0247 106.664 50.9139 106.941C50.8109 107.211 50.7595 107.507 50.7595 107.832C50.7595 108.157 50.8149 108.457 50.9257 108.734C51.0366 109.012 51.183 109.253 51.3651 109.459C51.5551 109.665 51.7728 109.827 52.0182 109.946C52.2636 110.057 52.5249 110.112 52.8019 110.112C53.0711 110.112 53.3244 110.057 53.5619 109.946C53.7994 109.827 54.0092 109.665 54.1913 109.459C54.3733 109.253 54.5158 109.012 54.6188 108.734C54.7217 108.457 54.7731 108.157 54.7731 107.832C54.7731 107.507 54.7217 107.211 54.6188 106.941C54.5158 106.664 54.3733 106.423 54.1913 106.217C54.0092 106.011 53.7994 105.853 53.5619 105.742C53.3244 105.631 53.0711 105.576 52.8019 105.576ZM62.0019 103.676C63.0786 103.676 63.9098 103.933 64.4956 104.448C65.0893 104.962 65.3862 105.687 65.3862 106.621C65.3862 107.618 65.0893 108.394 64.4956 108.948C63.9098 109.494 63.0786 109.768 62.0019 109.768H59.6151L60.6957 108.687V112H58.2258V103.676H62.0019ZM61.8832 107.856C62.2553 107.856 62.5402 107.757 62.7382 107.559C62.944 107.361 63.0469 107.072 63.0469 106.692C63.0469 106.336 62.944 106.063 62.7382 105.873C62.5402 105.675 62.2553 105.576 61.8832 105.576H59.6151L60.6957 104.507V108.936L59.6151 107.856H61.8832ZM66.3316 103.676H73.1358V105.576H68.8016V106.882H72.7321V108.782H68.8016V110.1H73.2546V112H66.3316V103.676ZM74.4375 103.676H76.5393L80.7311 109.186L80.078 109.411V103.676H82.3341V112H80.2323L76.0524 106.514L76.7056 106.288V112H74.4375V103.676Z" fill="#FF2EA8"/>
</g>
<defs>
<filter id="filter0_dd_171_145" x="-40.7654" y="-43.7649" width="207.605" height="201.53" filterUnits="userSpaceOnUse" color-interpolation-filters="sRGB">
<feFlood flood-opacity="0" result="BackgroundImageFix"/>
<feColorMatrix in="SourceAlpha" type="matrix" values="0 0 0 0 0 0 0 0 0 0 0 0 0 0 0 0 0 0 127 0" result="hardAlpha"/>
<feOffset/>
<feGaussianBlur stdDeviation="30.6488"/>
<feComposite in2="hardAlpha" operator="out"/>
<feColorMatrix type="matrix" values="0 0 0 0 0.13421 0 0 0 0 0.01875 0 0 0 0 0.75 0 0 0 0.8 0"/>
<feBlend mode="normal" in2="BackgroundImageFix" result="effect1_dropShadow_171_145"/>
<feColorMatrix in="SourceAlpha" type="matrix" values="0 0 0 0 0 0 0 0 0 0 0 0 0 0 0 0 0 0 127 0" result="hardAlpha"/>
<feOffset/>
<feGaussianBlur stdDeviation="4.35843"/>
<feComposite in2="hardAlpha" operator="out"/>
<feColorMatrix type="matrix" values="0 0 0 0 1 0 0 0 0 0.176471 0 0 0 0 0.658824 0 0 0 0.3 0"/>
<feBlend mode="normal" in2="effect1_dropShadow_171_145" result="effect2_dropShadow_171_145"/>
<feBlend mode="normal" in="SourceGraphic" in2="effect2_dropShadow_171_145" result="shape"/>
</filter>
<filter id="filter1_d_171_145" x="47.2153" y="102.506" width="36.1338" height="10.6751" filterUnits="userSpaceOnUse" color-interpolation-filters="sRGB">
<feFlood flood-opacity="0" result="BackgroundImageFix"/>
<feColorMatrix in="SourceAlpha" type="matrix" values="0 0 0 0 0 0 0 0 0 0 0 0 0 0 0 0 0 0 127 0" result="hardAlpha"/>
<feOffset/>
<feGaussianBlur stdDeviation="0.507576"/>
<feComposite in2="hardAlpha" operator="out"/>
<feColorMatrix type="matrix" values="0 0 0 0 1 0 0 0 0 0.180392 0 0 0 0 0.658824 0 0 0 1 0"/>
<feBlend mode="normal" in2="BackgroundImageFix" result="effect1_dropShadow_171_145"/>
<feBlend mode="normal" in="SourceGraphic" in2="effect1_dropShadow_171_145" result="shape"/>
</filter>
</defs>
</svg>
