<svg width="80" height="80" viewBox="0 0 80 80" fill="none" xmlns="http://www.w3.org/2000/svg">
<circle cx="40" cy="40" r="40" fill="white"/>
<path d="M61.9609 20C60.8552 20.0145 59.9622 20.9074 59.9478 22.0132V27.3816C59.9768 30.416 58.7842 33.3345 56.6384 35.4802C54.4927 37.6259 51.5742 38.8185 48.5398 38.7896H23.8718L36.5414 26.0395C37 25.2327 36.8478 24.217 36.1728 23.5801C35.4977 22.9433 34.4748 22.8504 33.6961 23.3553L17.5907 39.4606C17.4088 39.6468 17.2631 39.8653 17.1613 40.1048C16.9462 40.6015 16.9462 41.165 17.1613 41.6617C17.2631 41.9013 17.4088 42.1197 17.5907 42.3059L33.6961 58.4112C34.4821 59.1963 35.7554 59.1963 36.5414 58.4112C37.3264 57.6253 37.3264 56.352 36.5414 55.566L23.8718 42.8159H48.5398C52.6464 42.8594 56.5976 41.2473 59.5015 38.3433C62.4055 35.4394 64.0177 31.4882 63.9741 27.3816V22.0132C63.9597 20.9074 63.0667 20.0145 61.9609 20Z" fill="#1D1A15"/>
</svg>
