<svg width="112" height="112" viewBox="0 0 112 112" fill="none" xmlns="http://www.w3.org/2000/svg">
<circle cx="56" cy="56" r="56" fill="white"/>
<g filter="url(#filter0_d_186_16)">
<path d="M57.7869 15.7652C59.0223 15.0429 60.576 15.9375 60.5665 17.3655L60.3657 47.3409C60.3563 48.7525 58.8227 49.6286 57.5968 48.9228L31.8663 34.1085C30.6404 33.4027 30.6345 31.6402 31.8557 30.9263L57.7869 15.7652Z" fill="#FF2EA8"/>
</g>
<g filter="url(#filter1_d_186_16)">
<path d="M54.2419 25.5642C54.2023 24.5484 54.9965 23.6879 56.016 23.7005C62.4955 23.7808 68.846 25.6047 74.3892 28.9954C80.4579 32.7075 85.2866 38.1308 88.2642 44.5796C91.2424 51.0283 92.2356 58.2128 91.1187 65.2245C90.0024 72.2363 86.8253 78.7603 81.9907 83.9717C77.1558 89.1831 70.8799 92.8478 63.9565 94.5022C57.0331 96.1566 49.7733 95.7269 43.095 93.2665C36.4167 90.8061 30.6199 86.4266 26.4377 80.6814C22.6176 75.4332 20.3013 69.261 19.7181 62.8251C19.6264 61.8125 20.425 60.9562 21.4437 60.9167L34.272 60.4195C35.2906 60.38 36.1396 61.1737 36.2755 62.1813C36.7038 65.3575 37.9156 68.3888 39.8147 70.9978C42.0764 74.1049 45.2113 76.4734 48.8228 77.8035C52.4344 79.1341 56.3605 79.3668 60.1045 78.4722C63.8486 77.5776 67.2426 75.5955 69.8572 72.7773C72.4718 69.9591 74.1897 66.4308 74.7936 62.639C75.3976 58.8471 74.8603 54.9618 73.2499 51.4744C71.6395 47.987 69.0283 45.0541 65.7464 43.0466C62.9907 41.361 59.8661 40.3914 56.6575 40.2121C55.6395 40.1552 54.7801 39.3728 54.7405 38.3569L54.2419 25.5642Z" fill="#FF2EA8"/>
</g>
<path d="M57.7869 15.7652C59.0223 15.0429 60.576 15.9375 60.5665 17.3655L60.3657 47.3409C60.3563 48.7525 58.8227 49.6286 57.5968 48.9228L31.8663 34.1085C30.6404 33.4027 30.6345 31.6402 31.8557 30.9263L57.7869 15.7652Z" fill="#FF2EA8"/>
<path d="M54.2419 25.5642C54.2023 24.5484 54.9965 23.6879 56.016 23.7005C62.4955 23.7808 68.846 25.6047 74.3892 28.9954C80.4579 32.7075 85.2866 38.1308 88.2642 44.5796C91.2424 51.0283 92.2356 58.2128 91.1187 65.2245C90.0024 72.2363 86.8253 78.7603 81.9907 83.9717C77.1558 89.1831 70.8799 92.8478 63.9565 94.5022C57.0331 96.1566 49.7733 95.7269 43.095 93.2665C36.4167 90.8061 30.6199 86.4266 26.4377 80.6814C22.6176 75.4332 20.3013 69.261 19.7181 62.8251C19.6264 61.8125 20.425 60.9562 21.4437 60.9167L34.272 60.4195C35.2906 60.38 36.1396 61.1737 36.2755 62.1813C36.7038 65.3575 37.9156 68.3888 39.8147 70.9978C42.0764 74.1049 45.2113 76.4734 48.8228 77.8035C52.4344 79.1341 56.3605 79.3668 60.1045 78.4722C63.8486 77.5776 67.2426 75.5955 69.8572 72.7773C72.4718 69.9591 74.1897 66.4308 74.7936 62.639C75.3976 58.8471 74.8603 54.9618 73.2499 51.4744C71.6395 47.987 69.0283 45.0541 65.7464 43.0466C62.9907 41.361 59.8661 40.3914 56.6575 40.2121C55.6395 40.1552 54.7801 39.3728 54.7405 38.3569L54.2419 25.5642Z" fill="#FF2EA8"/>
<defs>
<filter id="filter0_d_186_16" x="26.9434" y="15.5096" width="37.623" height="41.6626" filterUnits="userSpaceOnUse" color-interpolation-filters="sRGB">
<feFlood flood-opacity="0" result="BackgroundImageFix"/>
<feColorMatrix in="SourceAlpha" type="matrix" values="0 0 0 0 0 0 0 0 0 0 0 0 0 0 0 0 0 0 127 0" result="hardAlpha"/>
<feOffset dy="4"/>
<feGaussianBlur stdDeviation="2"/>
<feComposite in2="hardAlpha" operator="out"/>
<feColorMatrix type="matrix" values="0 0 0 0 0 0 0 0 0 0 0 0 0 0 0 0 0 0 0.25 0"/>
<feBlend mode="normal" in2="BackgroundImageFix" result="effect1_dropShadow_186_16"/>
<feBlend mode="normal" in="SourceGraphic" in2="effect1_dropShadow_186_16" result="shape"/>
</filter>
<filter id="filter1_d_186_16" x="15.7109" y="23.7003" width="79.8535" height="79.7902" filterUnits="userSpaceOnUse" color-interpolation-filters="sRGB">
<feFlood flood-opacity="0" result="BackgroundImageFix"/>
<feColorMatrix in="SourceAlpha" type="matrix" values="0 0 0 0 0 0 0 0 0 0 0 0 0 0 0 0 0 0 127 0" result="hardAlpha"/>
<feOffset dy="4"/>
<feGaussianBlur stdDeviation="2"/>
<feComposite in2="hardAlpha" operator="out"/>
<feColorMatrix type="matrix" values="0 0 0 0 0 0 0 0 0 0 0 0 0 0 0 0 0 0 0.25 0"/>
<feBlend mode="normal" in2="BackgroundImageFix" result="effect1_dropShadow_186_16"/>
<feBlend mode="normal" in="SourceGraphic" in2="effect1_dropShadow_186_16" result="shape"/>
</filter>
</defs>
</svg>
