<svg width="132" height="132" viewBox="0 0 100 101" fill="none" xmlns="http://www.w3.org/2000/svg">
<ellipse cx="50" cy="50.5" rx="50" ry="50.5" fill="url(#paint0_linear_88_250)"/>
<path d="M43.5481 44.3605C43.5925 44.4349 43.6521 44.4989 43.7229 44.5481C43.7937 44.5974 43.8741 44.6308 43.9588 44.6462C44.0434 44.6615 44.1304 44.6584 44.2137 44.6371C44.2971 44.6158 44.375 44.5767 44.4422 44.5225L44.4782 44.4934C45.4173 43.6978 46.2519 42.8913 47.0504 42.0174C54.758 33.5701 50.2607 23.1876 50.2247 23.0929C50.1162 22.847 50.0922 22.5715 50.1565 22.3102C50.2209 22.049 50.3698 21.817 50.5798 21.651C50.7987 21.4917 51.0649 21.4122 51.3344 21.4258C51.604 21.4394 51.861 21.5451 52.0632 21.7257C78.1997 46.2739 71.2726 64.9726 70.7751 66.2343C68.6788 73.8587 60.3548 79.3768 50.477 79.6608C50.1471 79.6808 49.8948 79.6808 49.6046 79.6808C37.9441 79.6808 28.0303 72.4278 28.0303 63.1521V63.0119C28.0303 50.1534 39.5502 37.4661 40.0657 36.9363C40.2187 36.7569 40.4266 36.6342 40.6565 36.5877C40.8864 36.5412 41.125 36.5736 41.3346 36.6796C41.5463 36.7686 41.7261 36.9207 41.8501 37.1155C41.9741 37.3103 42.0363 37.5387 42.0286 37.7701C41.9259 40.2843 42.4324 42.4744 43.5481 44.3241V44.3605Z" fill="black"/>
<defs>
<linearGradient id="paint0_linear_88_250" x1="50" y1="0" x2="50" y2="96.4091" gradientUnits="userSpaceOnUse">
<stop offset="0.0082956" stop-color="#FFD700"/>
<stop offset="0.203125" stop-color="#EDBC0E"/>
<stop offset="0.473958" stop-color="#D1A425"/>
<stop offset="0.744792" stop-color="#BC8D2E"/>
<stop offset="1" stop-color="#FF9900"/>
</linearGradient>
</defs>
</svg>
