<svg width="112" height="112" viewBox="0 0 112 112" fill="none" xmlns="http://www.w3.org/2000/svg">
<mask id="mask0_183_10" style="mask-type:alpha" maskUnits="userSpaceOnUse" x="0" y="0" width="112" height="112">
<circle cx="56" cy="56" r="56" fill="#050215"/>
</mask>
<g mask="url(#mask0_183_10)">
<circle cx="56" cy="56" r="56" fill="#050215"/>
<g filter="url(#filter0_d_183_10)">
<path d="M43.7977 91.2883L41.7631 97.6681H39.88L42.7967 89.7894H43.9871L43.7977 91.2883ZM45.486 97.6681L43.446 91.2883L43.235 89.7894H44.4417L47.3691 97.6681H45.486ZM45.3995 94.7352V96.0989H41.2923V94.7352H45.3995ZM51.1732 94.2645H49.1494L49.1386 93.0848H50.8107C51.1065 93.0848 51.3464 93.0487 51.5304 92.9766C51.718 92.9044 51.855 92.7998 51.9416 92.6627C52.0282 92.522 52.0715 92.3489 52.0715 92.1433C52.0715 91.9088 52.0282 91.7194 51.9416 91.5751C51.855 91.4308 51.718 91.3262 51.5304 91.2612C51.3464 91.1927 51.1083 91.1584 50.8161 91.1584H49.788V97.6681H48.0239V89.7894H50.8161C51.2887 89.7894 51.7107 89.8327 52.0823 89.9192C52.4539 90.0058 52.7695 90.1393 53.0293 90.3197C53.2926 90.5001 53.4928 90.7255 53.6299 90.9961C53.767 91.2666 53.8356 91.5859 53.8356 91.9539C53.8356 92.2749 53.7634 92.5744 53.6191 92.8521C53.4784 93.1299 53.2511 93.3554 52.9373 93.5285C52.6234 93.7017 52.2032 93.7955 51.6765 93.8099L51.1732 94.2645ZM51.1029 97.6681H48.7003L49.3388 96.3045H51.1029C51.3734 96.3045 51.5935 96.2612 51.7631 96.1746C51.9326 96.088 52.0571 95.9708 52.1364 95.8229C52.2158 95.675 52.2555 95.509 52.2555 95.3251C52.2555 95.1086 52.2176 94.921 52.1418 94.7623C52.0697 94.6036 51.9543 94.4809 51.7955 94.3943C51.6404 94.3078 51.433 94.2645 51.1732 94.2645H49.5932L49.604 93.0848H51.5358L51.947 93.5502C52.4485 93.5394 52.8489 93.6205 53.1483 93.7937C53.4514 93.9632 53.6696 94.1869 53.8031 94.4647C53.9366 94.7425 54.0033 95.0365 54.0033 95.3467C54.0033 95.859 53.8933 96.2883 53.6732 96.6346C53.4532 96.9773 53.1267 97.2352 52.6938 97.4084C52.2645 97.5815 51.7342 97.6681 51.1029 97.6681ZM55.1451 89.7894H58.1699C58.7724 89.7894 59.2937 89.8796 59.7338 90.0599C60.1775 90.2403 60.5184 90.5073 60.7565 90.8608C60.9946 91.2143 61.1136 91.6508 61.1136 92.1703C61.1136 92.6032 61.0433 92.9712 60.9026 93.2742C60.7619 93.5772 60.5635 93.828 60.3074 94.0264C60.0549 94.2248 59.759 94.3853 59.4199 94.508L58.8463 94.8218H56.2706L56.2598 93.4528H58.1754C58.4387 93.4528 58.657 93.4059 58.8301 93.3121C59.0033 93.2183 59.1331 93.0866 59.2197 92.9171C59.3099 92.7439 59.355 92.5419 59.355 92.311C59.355 92.0729 59.3099 91.8673 59.2197 91.6941C59.1295 91.521 58.9961 91.3893 58.8193 91.2991C58.6461 91.2053 58.4297 91.1584 58.1699 91.1584H56.9091V97.6681H55.1451V89.7894ZM59.5065 97.6681L57.737 94.1671L59.5985 94.1616L61.395 97.587V97.6681H59.5065ZM64.1872 89.7894V97.6681H62.4286V89.7894H64.1872ZM65.6104 89.7894H68.6352C69.2377 89.7894 69.759 89.8796 70.1991 90.0599C70.6428 90.2403 70.9837 90.5073 71.2218 90.8608C71.4599 91.2143 71.579 91.6508 71.579 92.1703C71.579 92.6032 71.5086 92.9712 71.3679 93.2742C71.2272 93.5772 71.0288 93.828 70.7727 94.0264C70.5202 94.2248 70.2243 94.3853 69.8852 94.508L69.3117 94.8218H66.7359L66.7251 93.4528H68.6407C68.904 93.4528 69.1223 93.4059 69.2954 93.3121C69.4686 93.2183 69.5984 93.0866 69.685 92.9171C69.7752 92.7439 69.8203 92.5419 69.8203 92.311C69.8203 92.0729 69.7752 91.8673 69.685 91.6941C69.5948 91.521 69.4614 91.3893 69.2846 91.2991C69.1114 91.2053 68.895 91.1584 68.6352 91.1584H67.3744V97.6681H65.6104V89.7894ZM69.9718 97.6681L68.2024 94.1671L70.0638 94.1616L71.8603 97.587V97.6681H69.9718Z" fill="#FF2EA8"/>
</g>
<g filter="url(#filter1_d_183_10)">
<path fill-rule="evenodd" clip-rule="evenodd" d="M56.169 74.6478C64.1784 71.8166 67.5372 72.5547 71.2721 71.3566C73.3243 70.6977 75.0527 68.7988 75.8769 67.6644C76.8842 66.2783 77.3731 63.9661 76.6455 61.587C76.0551 59.6586 74.7175 57.483 73.4535 56.2337C71.9801 54.7792 70.4479 54.2742 68.3679 53.4506C66.1587 52.5757 66.0033 51.143 64.3975 49.2068C63.0207 47.5456 61.6896 46.5557 59.7551 45.9311C54.6188 44.2715 45.6479 46.203 43.5793 53.0465C42.971 55.0636 43.4452 57.3649 43.5156 59.5575C43.6153 62.5955 39.5648 64.743 42.4183 71.6736C44.2285 76.5778 52.1022 76.0868 56.169 74.6478V74.6478ZM78.1744 23.3632L79.5644 24.3593C83.0441 27.6412 84.8233 30.4041 86.1494 35.3674C87.3317 39.7977 87.6702 45.555 87.5508 49.8952C87.4331 54.1996 86.7741 58.518 85.7881 62.4199C84.7513 66.5207 82.7285 69.8508 79.9421 72.3931C73.8737 77.9282 64.2487 82.301 54.1446 81.6794C49.1555 81.3733 43.2817 79.4153 39.4438 77.058C29.6978 71.0707 21.6671 58.8987 20.9787 47.4601C20.6059 41.2537 21.9778 34.5827 27.2286 30.9791C28.2621 30.2689 29.1402 29.9348 30.571 29.7717C32.4973 29.551 31.8449 28.7274 32.2128 27.4314C33.5619 22.6997 39.017 19.1163 45.5907 20.4309C47.2014 20.7542 47.4663 20.7697 48.6796 19.7208C50.1513 18.4481 52.2068 17.1086 54.3801 16.4249C58.7249 15.0574 64.1997 15.9385 66.9763 18.8863C67.7154 19.6711 68.1275 20.6671 69.0105 21.0836C70.5035 21.7906 71.743 20.0704 77.4909 23.054L78.1744 23.3601V23.3632ZM81.144 23.5963C80.7908 22.9949 79.2569 22.0532 78.6126 21.817C77.9373 21.1178 73.9555 19.7736 72.3513 19.5856C71.5664 19.4939 70.4021 19.6959 69.7529 19.5545C69.1413 19.2966 67.5568 15.1879 60.6512 14.2556C55.4086 13.547 51.2797 15.491 47.5529 18.4232C46.2251 19.469 46.7173 18.5025 43.3749 18.4854C38.7636 18.4605 35.2429 20.1668 32.4466 23.3011C31.8841 23.9304 31.4442 24.6965 31.0796 25.5294C30.728 26.3312 30.5579 27.4299 30.2407 28.1167C27.1992 28.7259 25.5557 29.795 23.685 31.8493C21.0572 34.7365 19.8373 38.497 19.3435 42.3694C17.8881 53.7862 24.4405 67.0025 33.3329 74.5453C37.0727 77.7184 40.1731 79.7867 45.1508 81.5131C56.0758 85.3016 66.9076 83.1976 76.3315 77.201C80.5798 74.4971 83.7555 71.6736 85.8338 67.3257C88.8492 61.0167 89.7355 50.3365 89.1207 43.0407C88.8247 39.5351 88.0578 34.7645 86.7071 31.5198C86.0677 29.9861 85.1405 28.3312 84.2542 27.0414C83.6557 26.1696 81.8422 23.789 81.1407 23.5979L81.144 23.5963ZM41.4731 26.1028C37.0024 27.9054 36.9043 37.4994 40.4429 41.0113C43.6137 44.1565 46.9594 42.7486 48.5341 38.5328C49.1767 36.811 49.2601 34.9307 48.8432 32.8391C48.4523 30.8765 47.6102 28.788 46.4622 27.4874C45.4893 26.3841 43.5662 25.2606 41.4731 26.1028V26.1028ZM58.2605 22.4122C56.5696 23.2156 55.6539 24.9218 55.2827 26.5364C54.5142 29.8898 54.4651 35.3083 56.9359 38.0604C60.7444 42.298 67.027 39.0564 65.6959 29.7825C65.1677 26.0981 62.5056 20.3952 58.2605 22.4138V22.4122ZM74.6178 31.122C72.9318 31.9845 72.142 33.7979 71.5599 35.4187C70.9303 37.1746 70.8698 39.2724 71.1249 41.4091C71.3833 43.5737 72.1109 45.8611 73.3799 47.4182C76.84 51.6635 83.1537 49.6372 82.0009 38.957C81.7343 36.4893 81.332 34.5469 79.8816 32.749C78.8825 31.5105 76.8351 29.9892 74.6178 31.122V31.122ZM29.9087 42.6445C26.097 44.0057 25.2679 48.4251 26.6236 52.7917C27.8434 56.7201 30.7182 59.988 35.2298 58.7371C37.2591 58.1745 38.062 56.4031 38.4349 54.6999C38.8764 52.6954 39.0137 50.8244 38.3188 48.5774C37.753 46.7484 36.5282 44.8495 35.3246 43.7136C34.1064 42.5621 32.239 41.8147 29.9071 42.646L29.9087 42.6445Z" fill="#FEFEFE"/>
<path fill-rule="evenodd" clip-rule="evenodd" d="M56.169 74.6478C64.1784 71.8166 67.5372 72.5547 71.2721 71.3566C73.3243 70.6977 75.0527 68.7988 75.8769 67.6644C76.8842 66.2783 77.3731 63.9661 76.6455 61.587C76.0551 59.6586 74.7175 57.483 73.4535 56.2337C71.9801 54.7792 70.4479 54.2742 68.3679 53.4506C66.1587 52.5757 66.0033 51.143 64.3975 49.2068C63.0207 47.5456 61.6896 46.5557 59.7551 45.9311C54.6188 44.2715 45.6479 46.203 43.5793 53.0465C42.971 55.0636 43.4452 57.3649 43.5156 59.5575C43.6153 62.5955 39.5648 64.743 42.4183 71.6736C44.2285 76.5778 52.1022 76.0868 56.169 74.6478V74.6478ZM78.1744 23.3632L79.5644 24.3593C83.0441 27.6412 84.8233 30.4041 86.1494 35.3674C87.3317 39.7977 87.6702 45.555 87.5508 49.8952C87.4331 54.1996 86.7741 58.518 85.7881 62.4199C84.7513 66.5207 82.7285 69.8508 79.9421 72.3931C73.8737 77.9282 64.2487 82.301 54.1446 81.6794C49.1555 81.3733 43.2817 79.4153 39.4438 77.058C29.6978 71.0707 21.6671 58.8987 20.9787 47.4601C20.6059 41.2537 21.9778 34.5827 27.2286 30.9791C28.2621 30.2689 29.1402 29.9348 30.571 29.7717C32.4973 29.551 31.8449 28.7274 32.2128 27.4314C33.5619 22.6997 39.017 19.1163 45.5907 20.4309C47.2014 20.7542 47.4663 20.7697 48.6796 19.7208C50.1513 18.4481 52.2068 17.1086 54.3801 16.4249C58.7249 15.0574 64.1997 15.9385 66.9763 18.8863C67.7154 19.6711 68.1275 20.6671 69.0105 21.0836C70.5035 21.7906 71.743 20.0704 77.4909 23.054L78.1744 23.3601V23.3632ZM81.144 23.5963C80.7908 22.9949 79.2569 22.0532 78.6126 21.817C77.9373 21.1178 73.9555 19.7736 72.3513 19.5856C71.5664 19.4939 70.4021 19.6959 69.7529 19.5545C69.1413 19.2966 67.5568 15.1879 60.6512 14.2556C55.4086 13.547 51.2797 15.491 47.5529 18.4232C46.2251 19.469 46.7173 18.5025 43.3749 18.4854C38.7636 18.4605 35.2429 20.1668 32.4466 23.3011C31.8841 23.9304 31.4442 24.6965 31.0796 25.5294C30.728 26.3312 30.5579 27.4299 30.2407 28.1167C27.1992 28.7259 25.5557 29.795 23.685 31.8493C21.0572 34.7365 19.8373 38.497 19.3435 42.3694C17.8881 53.7862 24.4405 67.0025 33.3329 74.5453C37.0727 77.7184 40.1731 79.7867 45.1508 81.5131C56.0758 85.3016 66.9076 83.1976 76.3315 77.201C80.5798 74.4971 83.7555 71.6736 85.8338 67.3257C88.8492 61.0167 89.7355 50.3365 89.1207 43.0407C88.8247 39.5351 88.0578 34.7645 86.7071 31.5198C86.0677 29.9861 85.1405 28.3312 84.2542 27.0414C83.6557 26.1696 81.8422 23.789 81.1407 23.5979L81.144 23.5963ZM41.4731 26.1028C37.0024 27.9054 36.9043 37.4994 40.4429 41.0113C43.6137 44.1565 46.9594 42.7486 48.5341 38.5328C49.1767 36.811 49.2601 34.9307 48.8432 32.8391C48.4523 30.8765 47.6102 28.788 46.4622 27.4874C45.4893 26.3841 43.5662 25.2606 41.4731 26.1028V26.1028ZM58.2605 22.4122C56.5696 23.2156 55.6539 24.9218 55.2827 26.5364C54.5142 29.8898 54.4651 35.3083 56.9359 38.0604C60.7444 42.298 67.027 39.0564 65.6959 29.7825C65.1677 26.0981 62.5056 20.3952 58.2605 22.4138V22.4122ZM74.6178 31.122C72.9318 31.9845 72.142 33.7979 71.5599 35.4187C70.9303 37.1746 70.8698 39.2724 71.1249 41.4091C71.3833 43.5737 72.1109 45.8611 73.3799 47.4182C76.84 51.6635 83.1537 49.6372 82.0009 38.957C81.7343 36.4893 81.332 34.5469 79.8816 32.749C78.8825 31.5105 76.8351 29.9892 74.6178 31.122V31.122ZM29.9087 42.6445C26.097 44.0057 25.2679 48.4251 26.6236 52.7917C27.8434 56.7201 30.7182 59.988 35.2298 58.7371C37.2591 58.1745 38.062 56.4031 38.4349 54.6999C38.8764 52.6954 39.0137 50.8244 38.3188 48.5774C37.753 46.7484 36.5282 44.8495 35.3246 43.7136C34.1064 42.5621 32.239 41.8147 29.9071 42.646L29.9087 42.6445Z" fill="#FF2EA8" stroke="#9C1A78" stroke-width="0.798729" stroke-miterlimit="22.9256"/>
</g>
</g>
<defs>
<filter id="filter0_d_183_10" x="38.9335" y="88.842" width="33.8733" height="9.77354" filterUnits="userSpaceOnUse" color-interpolation-filters="sRGB">
<feFlood flood-opacity="0" result="BackgroundImageFix"/>
<feColorMatrix in="SourceAlpha" type="matrix" values="0 0 0 0 0 0 0 0 0 0 0 0 0 0 0 0 0 0 127 0" result="hardAlpha"/>
<feOffset/>
<feGaussianBlur stdDeviation="0.473701"/>
<feComposite in2="hardAlpha" operator="out"/>
<feColorMatrix type="matrix" values="0 0 0 0 1 0 0 0 0 0.180392 0 0 0 0 0.658824 0 0 0 1 0"/>
<feBlend mode="normal" in2="BackgroundImageFix" result="effect1_dropShadow_183_10"/>
<feBlend mode="normal" in="SourceGraphic" in2="effect1_dropShadow_183_10" result="shape"/>
</filter>
<filter id="filter1_d_183_10" x="-34.4683" y="-39.4986" width="177.38" height="176.519" filterUnits="userSpaceOnUse" color-interpolation-filters="sRGB">
<feFlood flood-opacity="0" result="BackgroundImageFix"/>
<feColorMatrix in="SourceAlpha" type="matrix" values="0 0 0 0 0 0 0 0 0 0 0 0 0 0 0 0 0 0 127 0" result="hardAlpha"/>
<feOffset/>
<feGaussianBlur stdDeviation="26.6042"/>
<feComposite in2="hardAlpha" operator="out"/>
<feColorMatrix type="matrix" values="0 0 0 0 0.13421 0 0 0 0 0.01875 0 0 0 0 0.75 0 0 0 0.8 0"/>
<feBlend mode="normal" in2="BackgroundImageFix" result="effect1_dropShadow_183_10"/>
<feBlend mode="normal" in="SourceGraphic" in2="effect1_dropShadow_183_10" result="shape"/>
</filter>
</defs>
</svg>
