<svg width="173" height="55" viewBox="0 0 173 55" fill="none" xmlns="http://www.w3.org/2000/svg">
<path d="M85.156 1.61804L88.5042 11.9226L88.6164 12.2681H88.9797L99.8146 12.2681L91.049 18.6367L90.7551 18.8502L90.8673 19.1957L94.2155 29.5003L85.4499 23.1317L85.156 22.9182L84.8621 23.1317L76.0965 29.5003L79.4446 19.1957L79.5569 18.8502L79.263 18.6367L70.4974 12.2681L81.3323 12.2681H81.6956L81.8078 11.9226L85.156 1.61804Z" fill="url(#paint0_linear_198_55)" stroke="black"/>
<path d="M121.487 1.61804L124.835 11.9226L124.947 12.2681H125.311L136.146 12.2681L127.38 18.6367L127.086 18.8502L127.198 19.1957L130.547 29.5003L121.781 23.1317L121.487 22.9182L121.193 23.1317L112.428 29.5003L115.776 19.1957L115.888 18.8502L115.594 18.6367L106.828 12.2681L117.663 12.2681H118.027L118.139 11.9226L121.487 1.61804Z" fill="url(#paint1_linear_198_55)" stroke="black"/>
<path d="M51.0925 1.61804L54.4407 11.9226L54.5529 12.2681H54.9162L65.7511 12.2681L56.9855 18.6367L56.6916 18.8502L56.8038 19.1957L60.152 29.5003L51.3864 23.1317L51.0925 22.9182L50.7986 23.1317L42.033 29.5003L45.3812 19.1957L45.4934 18.8502L45.1995 18.6367L36.4339 12.2681L47.2688 12.2681H47.6321L47.7443 11.9226L51.0925 1.61804Z" fill="url(#paint2_linear_198_55)" stroke="black"/>
<path d="M155.551 1.61804L158.899 11.9226L159.011 12.2681H159.374L170.209 12.2681L161.443 18.6367L161.15 18.8502L161.262 19.1957L164.61 29.5003L155.844 23.1317L155.551 22.9182L155.257 23.1317L146.491 29.5003L149.839 19.1957L149.951 18.8502L149.658 18.6367L140.892 12.2681L151.727 12.2681H152.09L152.202 11.9226L155.551 1.61804Z" fill="url(#paint3_linear_198_55)" stroke="black"/>
<path d="M17.031 1.61804L20.3792 11.9226L20.4914 12.2681H20.8547L31.6896 12.2681L22.924 18.6367L22.6301 18.8502L22.7423 19.1957L26.0905 29.5003L17.3249 23.1317L17.031 22.9182L16.7371 23.1317L7.97148 29.5003L11.3196 19.1957L11.4319 18.8502L11.138 18.6367L2.3724 12.2681L13.2073 12.2681H13.5706L13.6828 11.9226L17.031 1.61804Z" fill="url(#paint4_linear_198_55)" stroke="black"/>
<path d="M42.0536 35.645C43.107 35.645 44.0736 35.8184 44.9536 36.165C45.8336 36.5117 46.5936 36.9984 47.2336 37.625C47.887 38.2517 48.3936 38.9917 48.7536 39.845C49.1136 40.6984 49.2936 41.6317 49.2936 42.645C49.2936 43.6584 49.1136 44.5917 48.7536 45.445C48.3936 46.285 47.887 47.025 47.2336 47.665C46.5803 48.2917 45.807 48.7784 44.9136 49.125C44.0203 49.4717 43.047 49.645 41.9936 49.645H36.3136V35.645H42.0536ZM42.1136 47.625C42.7936 47.625 43.4203 47.505 43.9936 47.265C44.5803 47.025 45.087 46.685 45.5136 46.245C45.9536 45.7917 46.2936 45.265 46.5336 44.665C46.787 44.0517 46.9136 43.385 46.9136 42.665C46.9136 41.9317 46.787 41.265 46.5336 40.665C46.2803 40.0517 45.9336 39.5184 45.4936 39.065C45.0536 38.6117 44.5336 38.265 43.9336 38.025C43.347 37.785 42.707 37.665 42.0136 37.665H38.6736V47.625H42.1136ZM59.0414 43.565C59.0148 42.965 58.8748 42.4584 58.6214 42.045C58.3814 41.6184 58.0414 41.2917 57.6014 41.065C57.1614 40.825 56.6548 40.705 56.0814 40.705C55.4414 40.705 54.8814 40.8517 54.4014 41.145C53.9348 41.4384 53.5681 41.8517 53.3014 42.385C53.0348 42.905 52.9014 43.5184 52.9014 44.225C52.9014 44.985 53.0414 45.645 53.3214 46.205C53.6148 46.765 54.0148 47.1984 54.5214 47.505C55.0414 47.8117 55.6348 47.965 56.3014 47.965C57.4881 47.965 58.4881 47.545 59.3014 46.705L60.5214 47.925C60.0014 48.4984 59.3681 48.945 58.6214 49.265C57.8748 49.5717 57.0414 49.725 56.1214 49.725C55.0281 49.725 54.0748 49.4984 53.2614 49.045C52.4481 48.5917 51.8148 47.965 51.3614 47.165C50.9081 46.3517 50.6814 45.4117 50.6814 44.345C50.6814 43.2784 50.9081 42.345 51.3614 41.545C51.8148 40.7317 52.4481 40.0984 53.2614 39.645C54.0748 39.1917 55.0081 38.9584 56.0614 38.945C57.3148 38.945 58.3214 39.205 59.0814 39.725C59.8414 40.2317 60.3814 40.9517 60.7014 41.885C61.0214 42.8184 61.1348 43.925 61.0414 45.205H52.5414V43.565H59.0414ZM69.4993 41.605C69.0326 41.325 68.5193 41.105 67.9593 40.945C67.4126 40.7717 66.9059 40.685 66.4393 40.685C65.9859 40.685 65.6126 40.7717 65.3193 40.945C65.0259 41.1184 64.8793 41.405 64.8793 41.805C64.8793 42.1384 65.0126 42.405 65.2793 42.605C65.5593 42.7917 65.9126 42.9517 66.3393 43.085C66.7659 43.2184 67.2193 43.3584 67.6993 43.505C68.1793 43.6517 68.6326 43.845 69.0593 44.085C69.4993 44.3117 69.8526 44.625 70.1193 45.025C70.3859 45.425 70.5193 45.9517 70.5193 46.605C70.5193 47.325 70.3259 47.9184 69.9393 48.385C69.5659 48.8384 69.0659 49.1784 68.4393 49.405C67.8259 49.6184 67.1593 49.725 66.4393 49.725C65.6659 49.725 64.8926 49.5984 64.1193 49.345C63.3459 49.0917 62.6926 48.725 62.1593 48.245L62.9793 46.685C63.4459 47.0984 64.0126 47.425 64.6793 47.665C65.3459 47.8917 65.9659 48.005 66.5393 48.005C66.8726 48.005 67.1659 47.965 67.4193 47.885C67.6859 47.7917 67.8926 47.6584 68.0393 47.485C68.1993 47.3117 68.2793 47.085 68.2793 46.805C68.2793 46.4317 68.1459 46.1384 67.8793 45.925C67.6126 45.7117 67.2659 45.5384 66.8393 45.405C66.4126 45.2584 65.9593 45.1184 65.4793 44.985C64.9993 44.8384 64.5459 44.6517 64.1193 44.425C63.7059 44.1984 63.3659 43.8917 63.0993 43.505C62.8326 43.1184 62.6993 42.605 62.6993 41.965C62.6993 41.245 62.8859 40.665 63.2593 40.225C63.6326 39.7717 64.1126 39.445 64.6993 39.245C65.2993 39.0317 65.9393 38.925 66.6193 38.925C67.2859 38.925 67.9526 39.0184 68.6193 39.205C69.2859 39.3917 69.8593 39.6517 70.3393 39.985L69.4993 41.605ZM75.5338 46.285C75.5338 46.8584 75.6338 47.2517 75.8338 47.465C76.0338 47.665 76.3138 47.765 76.6738 47.765C76.9138 47.765 77.1605 47.725 77.4138 47.645C77.6805 47.565 77.9671 47.445 78.2738 47.285L78.8538 48.945C78.4405 49.1984 78.0138 49.3984 77.5738 49.545C77.1338 49.6784 76.6871 49.745 76.2338 49.745C75.7005 49.745 75.2071 49.645 74.7538 49.445C74.3005 49.2317 73.9338 48.8984 73.6538 48.445C73.3871 47.9917 73.2538 47.405 73.2538 46.685V36.505H75.5338V46.285ZM71.7538 39.405H78.6738V41.045H71.7538V39.405ZM84.4583 44.905C83.7117 44.905 83.1583 45.0184 82.7983 45.245C82.4383 45.4717 82.2583 45.845 82.2583 46.365C82.2583 46.8584 82.4383 47.2517 82.7983 47.545C83.1717 47.8384 83.6783 47.985 84.3183 47.985C84.8917 47.985 85.405 47.885 85.8583 47.685C86.3117 47.485 86.6717 47.2184 86.9383 46.885C87.205 46.5384 87.345 46.1517 87.3583 45.725L87.7983 47.665C87.465 48.3584 86.9583 48.8784 86.2783 49.225C85.5983 49.5717 84.785 49.745 83.8383 49.745C83.0783 49.745 82.4183 49.5984 81.8583 49.305C81.2983 49.0117 80.865 48.6184 80.5583 48.125C80.2517 47.6184 80.0983 47.0584 80.0983 46.445C80.0983 45.485 80.445 44.7184 81.1383 44.145C81.845 43.5717 82.8383 43.2784 84.1183 43.265H87.6383V44.905H84.4583ZM87.3383 42.905C87.3383 42.2117 87.125 41.6717 86.6983 41.285C86.2717 40.8984 85.6383 40.705 84.7983 40.705C84.2917 40.705 83.7717 40.7984 83.2383 40.985C82.7183 41.1717 82.1917 41.445 81.6583 41.805L80.7183 40.325C81.2117 40.0184 81.6783 39.765 82.1183 39.565C82.5583 39.365 83.025 39.2117 83.5183 39.105C84.025 38.9984 84.6183 38.945 85.2983 38.945C86.6717 38.945 87.725 39.2784 88.4583 39.945C89.205 40.5984 89.585 41.505 89.5983 42.665L89.6183 49.645H87.3583L87.3383 42.905ZM96.7571 38.925C97.7437 38.925 98.5771 39.145 99.2571 39.585C99.9504 40.0117 100.477 40.6317 100.837 41.445C101.21 42.245 101.39 43.205 101.377 44.325C101.39 45.445 101.217 46.4117 100.857 47.225C100.497 48.0384 99.9704 48.665 99.2771 49.105C98.5971 49.5317 97.7704 49.745 96.7971 49.745C95.7837 49.745 94.8904 49.5184 94.1171 49.065C93.3571 48.5984 92.7637 47.9584 92.3371 47.145C91.9104 46.3184 91.6971 45.3717 91.6971 44.305C91.6971 43.2384 91.9104 42.305 92.3371 41.505C92.7637 40.6917 93.3571 40.0584 94.1171 39.605C94.8771 39.1517 95.7571 38.925 96.7571 38.925ZM97.2771 40.785C96.6371 40.785 96.0704 40.9384 95.5771 41.245C95.0837 41.5517 94.6971 41.9784 94.4171 42.525C94.1504 43.0584 94.0104 43.6717 93.9971 44.365C94.0104 45.0584 94.1504 45.6717 94.4171 46.205C94.6971 46.7384 95.0837 47.1584 95.5771 47.465C96.0704 47.7717 96.6371 47.925 97.2771 47.925C97.9171 47.925 98.4837 47.7717 98.9771 47.465C99.4704 47.1584 99.8504 46.7384 100.117 46.205C100.397 45.6717 100.537 45.0584 100.537 44.365C100.537 43.6584 100.397 43.0384 100.117 42.505C99.8504 41.9717 99.4704 41.5517 98.9771 41.245C98.4837 40.9384 97.9171 40.785 97.2771 40.785ZM100.537 39.025H102.837V53.525H100.537V39.025ZM108.29 45.025C108.29 45.8517 108.51 46.505 108.95 46.985C109.39 47.4517 109.997 47.685 110.77 47.685C111.69 47.6584 112.403 47.3184 112.91 46.665C113.43 46.0117 113.69 45.205 113.69 44.245H114.31C114.31 45.5517 114.13 46.605 113.77 47.405C113.41 48.205 112.897 48.7917 112.23 49.165C111.577 49.525 110.797 49.7117 109.89 49.725C109.077 49.725 108.377 49.5584 107.79 49.225C107.217 48.8917 106.77 48.4184 106.45 47.805C106.143 47.1917 105.99 46.465 105.99 45.625V39.025H108.29V45.025ZM113.69 39.025H115.99V49.645H113.69V39.025ZM126.756 43.565C126.73 42.965 126.59 42.4584 126.336 42.045C126.096 41.6184 125.756 41.2917 125.316 41.065C124.876 40.825 124.37 40.705 123.796 40.705C123.156 40.705 122.596 40.8517 122.116 41.145C121.65 41.4384 121.283 41.8517 121.016 42.385C120.75 42.905 120.616 43.5184 120.616 44.225C120.616 44.985 120.756 45.645 121.036 46.205C121.33 46.765 121.73 47.1984 122.236 47.505C122.756 47.8117 123.35 47.965 124.016 47.965C125.203 47.965 126.203 47.545 127.016 46.705L128.236 47.925C127.716 48.4984 127.083 48.945 126.336 49.265C125.59 49.5717 124.756 49.725 123.836 49.725C122.743 49.725 121.79 49.4984 120.976 49.045C120.163 48.5917 119.53 47.965 119.076 47.165C118.623 46.3517 118.396 45.4117 118.396 44.345C118.396 43.2784 118.623 42.345 119.076 41.545C119.53 40.7317 120.163 40.0984 120.976 39.645C121.79 39.1917 122.723 38.9584 123.776 38.945C125.03 38.945 126.036 39.205 126.796 39.725C127.556 40.2317 128.096 40.9517 128.416 41.885C128.736 42.8184 128.85 43.925 128.756 45.205H120.256V43.565H126.756ZM137.214 41.605C136.747 41.325 136.234 41.105 135.674 40.945C135.127 40.7717 134.621 40.685 134.154 40.685C133.701 40.685 133.327 40.7717 133.034 40.945C132.741 41.1184 132.594 41.405 132.594 41.805C132.594 42.1384 132.727 42.405 132.994 42.605C133.274 42.7917 133.627 42.9517 134.054 43.085C134.481 43.2184 134.934 43.3584 135.414 43.505C135.894 43.6517 136.347 43.845 136.774 44.085C137.214 44.3117 137.567 44.625 137.834 45.025C138.101 45.425 138.234 45.9517 138.234 46.605C138.234 47.325 138.041 47.9184 137.654 48.385C137.281 48.8384 136.781 49.1784 136.154 49.405C135.541 49.6184 134.874 49.725 134.154 49.725C133.381 49.725 132.607 49.5984 131.834 49.345C131.061 49.0917 130.407 48.725 129.874 48.245L130.694 46.685C131.161 47.0984 131.727 47.425 132.394 47.665C133.061 47.8917 133.681 48.005 134.254 48.005C134.587 48.005 134.881 47.965 135.134 47.885C135.401 47.7917 135.607 47.6584 135.754 47.485C135.914 47.3117 135.994 47.085 135.994 46.805C135.994 46.4317 135.861 46.1384 135.594 45.925C135.327 45.7117 134.981 45.5384 134.554 45.405C134.127 45.2584 133.674 45.1184 133.194 44.985C132.714 44.8384 132.261 44.6517 131.834 44.425C131.421 44.1984 131.081 43.8917 130.814 43.505C130.547 43.1184 130.414 42.605 130.414 41.965C130.414 41.245 130.601 40.665 130.974 40.225C131.347 39.7717 131.827 39.445 132.414 39.245C133.014 39.0317 133.654 38.925 134.334 38.925C135.001 38.925 135.667 39.0184 136.334 39.205C137.001 39.3917 137.574 39.6517 138.054 39.985L137.214 41.605Z" fill="url(#paint5_linear_198_55)"/>
<path d="M44.9536 36.165L45.0269 35.9789L45.0269 35.9789L44.9536 36.165ZM47.2336 37.625L47.0937 37.7679L47.0952 37.7694L47.2336 37.625ZM48.7536 39.845L48.5694 39.9228L48.5694 39.9228L48.7536 39.845ZM48.7536 45.445L48.9375 45.5238L48.9379 45.5228L48.7536 45.445ZM47.2336 47.665L47.3721 47.8094L47.3736 47.8079L47.2336 47.665ZM44.9136 49.125L44.8413 48.9386L44.8413 48.9386L44.9136 49.125ZM36.3136 49.645H36.1136V49.845H36.3136V49.645ZM36.3136 35.645V35.445H36.1136V35.645H36.3136ZM43.9936 47.265L43.9179 47.0799L43.9164 47.0805L43.9936 47.265ZM45.5136 46.245L45.3701 46.1057L45.3701 46.1058L45.5136 46.245ZM46.5336 44.665L46.3488 44.5887L46.3479 44.5907L46.5336 44.665ZM46.5336 40.665L46.3488 40.7414L46.3494 40.7428L46.5336 40.665ZM45.4936 39.065L45.3501 39.2043L45.3501 39.2043L45.4936 39.065ZM43.9336 38.025L43.8579 38.2101L43.8594 38.2107L43.9336 38.025ZM38.6736 37.665V37.465H38.4736V37.665H38.6736ZM38.6736 47.625H38.4736V47.825H38.6736V47.625ZM42.0536 35.845C43.0847 35.845 44.0262 36.0146 44.8803 36.3511L45.0269 35.9789C44.1211 35.6221 43.1292 35.445 42.0536 35.445V35.845ZM44.8803 36.3511C45.7369 36.6885 46.4739 37.161 47.0937 37.7679L47.3736 37.4821C46.7134 36.8357 45.9304 36.3348 45.0269 35.9789L44.8803 36.3511ZM47.0952 37.7694C47.7284 38.3767 48.2197 39.0939 48.5694 39.9228L48.9379 39.7673C48.5676 38.8895 48.0455 38.1266 47.3721 37.4807L47.0952 37.7694ZM48.5694 39.9228C48.918 40.7493 49.0936 41.6559 49.0936 42.645H49.4936C49.4936 41.6075 49.3092 40.6474 48.9379 39.7673L48.5694 39.9228ZM49.0936 42.645C49.0936 43.6342 48.918 44.5408 48.5694 45.3673L48.9379 45.5228C49.3092 44.6426 49.4936 43.6825 49.4936 42.645H49.0936ZM48.5698 45.3662C48.2201 46.1822 47.7284 46.9004 47.0937 47.5221L47.3736 47.8079C48.0456 47.1496 48.5672 46.3878 48.9375 45.5238L48.5698 45.3662ZM47.0952 47.5207C46.462 48.128 45.7115 48.6009 44.8413 48.9386L44.986 49.3115C45.9025 48.9558 46.6986 48.4553 47.3721 47.8094L47.0952 47.5207ZM44.8413 48.9386C43.9732 49.2754 43.0247 49.445 41.9936 49.445V49.845C43.0693 49.845 44.0674 49.6679 44.986 49.3115L44.8413 48.9386ZM41.9936 49.445H36.3136V49.845H41.9936V49.445ZM36.5136 49.645V35.645H36.1136V49.645H36.5136ZM36.3136 35.845H42.0536V35.445H36.3136V35.845ZM42.1136 47.825C42.8176 47.825 43.4709 47.7007 44.0709 47.4495L43.9164 47.0805C43.3697 47.3094 42.7696 47.425 42.1136 47.425V47.825ZM44.0694 47.4501C44.6807 47.2 45.2107 46.8447 45.6572 46.3842L45.3701 46.1058C44.9633 46.5253 44.4799 46.85 43.9179 47.0799L44.0694 47.4501ZM45.6571 46.3843C46.1157 45.9118 46.4699 45.3629 46.7193 44.7393L46.3479 44.5907C46.1174 45.1671 45.7915 45.6715 45.3701 46.1057L45.6571 46.3843ZM46.7185 44.7414C46.9826 44.1018 47.1136 43.409 47.1136 42.665H46.7136C46.7136 43.3611 46.5913 44.0015 46.3488 44.5887L46.7185 44.7414ZM47.1136 42.665C47.1136 41.9083 46.9828 41.2148 46.7179 40.5872L46.3494 40.7428C46.5911 41.3153 46.7136 41.955 46.7136 42.665H47.1136ZM46.7185 40.5887C46.456 39.9531 46.0957 39.3981 45.6371 38.9257L45.3501 39.2043C45.7716 39.6386 46.1046 40.1502 46.3488 40.7414L46.7185 40.5887ZM45.6371 38.9257C45.1771 38.4518 44.6334 38.0895 44.0079 37.8393L43.8594 38.2107C44.4339 38.4405 44.9301 38.7716 45.3501 39.2043L45.6371 38.9257ZM44.0094 37.8399C43.3965 37.5892 42.7305 37.465 42.0136 37.465V37.865C42.6834 37.865 43.2974 37.9808 43.8579 38.2101L44.0094 37.8399ZM42.0136 37.465H38.6736V37.865H42.0136V37.465ZM38.4736 37.665V47.625H38.8736V37.665H38.4736ZM38.6736 47.825H42.1136V47.425H38.6736V47.825ZM59.0414 43.565V43.765H59.2505L59.2412 43.5561L59.0414 43.565ZM58.6214 42.045L58.447 42.1431L58.4509 42.1495L58.6214 42.045ZM57.6014 41.065L57.5056 41.2406L57.5099 41.2428L57.6014 41.065ZM54.4014 41.145L54.2971 40.9743L54.295 40.9757L54.4014 41.145ZM53.3014 42.385L53.4794 42.4763L53.4803 42.4745L53.3014 42.385ZM53.3214 46.205L53.1425 46.2945L53.1443 46.2978L53.3214 46.205ZM54.5214 47.505L54.4179 47.6761L54.4198 47.6773L54.5214 47.505ZM59.3014 46.705L59.4429 46.5636L59.2991 46.4199L59.1578 46.5659L59.3014 46.705ZM60.5214 47.925L60.6696 48.0594L60.7976 47.9183L60.6629 47.7836L60.5214 47.925ZM58.6214 49.265L58.6974 49.45L58.7002 49.4488L58.6214 49.265ZM53.2614 49.045L53.1641 49.2197L53.1641 49.2197L53.2614 49.045ZM51.3614 47.165L51.1867 47.2624L51.1874 47.2636L51.3614 47.165ZM51.3614 41.545L51.5355 41.6436L51.5361 41.6424L51.3614 41.545ZM53.2614 39.645L53.3588 39.8197L53.3588 39.8197L53.2614 39.645ZM56.0614 38.945V38.745L56.0589 38.745L56.0614 38.945ZM59.0814 39.725L58.9685 39.8901L58.9705 39.8914L59.0814 39.725ZM60.7014 41.885L60.5123 41.9499L60.5123 41.9499L60.7014 41.885ZM61.0414 45.205V45.405H61.2274L61.2409 45.2196L61.0414 45.205ZM52.5414 45.205H52.3414V45.405H52.5414V45.205ZM52.5414 43.565V43.365H52.3414V43.565H52.5414ZM59.2412 43.5561C59.2134 42.9303 59.0668 42.3888 58.792 41.9405L58.4509 42.1495C58.6828 42.5279 58.8161 42.9998 58.8416 43.5739L59.2412 43.5561ZM58.7958 41.947C58.5364 41.4858 58.1674 41.1316 57.693 40.8872L57.5099 41.2428C57.9155 41.4518 58.2265 41.7509 58.4471 42.1431L58.7958 41.947ZM57.6972 40.8894C57.2238 40.6312 56.6834 40.505 56.0814 40.505V40.905C56.6262 40.905 57.099 41.0188 57.5057 41.2406L57.6972 40.8894ZM56.0814 40.505C55.4098 40.505 54.8127 40.6593 54.2972 40.9744L54.5057 41.3157C54.9502 41.0441 55.4731 40.905 56.0814 40.905V40.505ZM54.295 40.9757C53.7948 41.2901 53.4042 41.7323 53.1226 42.2956L53.4803 42.4745C53.732 41.9711 54.0748 41.5866 54.5079 41.3143L54.295 40.9757ZM53.1235 42.2938C52.8396 42.8473 52.7014 43.4932 52.7014 44.225H53.1014C53.1014 43.5435 53.23 42.9627 53.4794 42.4763L53.1235 42.2938ZM52.7014 44.225C52.7014 45.0095 52.846 45.7014 53.1426 46.2945L53.5003 46.1156C53.2369 45.5887 53.1014 44.9605 53.1014 44.225H52.7014ZM53.1443 46.2978C53.4534 46.8879 53.8779 47.3493 54.4179 47.6761L54.625 47.3339C54.1517 47.0474 53.7762 46.6422 53.4986 46.1122L53.1443 46.2978ZM54.4198 47.6773C54.9738 48.004 55.6029 48.165 56.3014 48.165V47.765C55.6667 47.765 55.1091 47.6194 54.623 47.3327L54.4198 47.6773ZM56.3014 48.165C57.5414 48.165 58.5935 47.7237 59.4451 46.8441L59.1578 46.5659C58.3827 47.3663 57.4349 47.765 56.3014 47.765V48.165ZM59.16 46.8464L60.38 48.0664L60.6629 47.7836L59.4429 46.5636L59.16 46.8464ZM60.3733 47.7907C59.8736 48.3417 59.2643 48.7719 58.5427 49.0812L58.7002 49.4488C59.472 49.1181 60.1293 48.655 60.6696 48.0594L60.3733 47.7907ZM58.5455 49.08C57.826 49.3755 57.019 49.525 56.1214 49.525V49.925C57.0639 49.925 57.9235 49.7679 58.6974 49.45L58.5455 49.08ZM56.1214 49.525C55.0562 49.525 54.1376 49.3044 53.3588 48.8703L53.1641 49.2197C54.012 49.6923 55 49.925 56.1214 49.925V49.525ZM53.3588 48.8703C52.5771 48.4346 51.9705 47.8341 51.5354 47.0664L51.1874 47.2636C51.6591 48.096 52.3191 48.7488 53.1641 49.2197L53.3588 48.8703ZM51.5361 47.0676C51.1017 46.2882 50.8814 45.3826 50.8814 44.345H50.4814C50.4814 45.4407 50.7145 46.4152 51.1867 47.2624L51.5361 47.0676ZM50.8814 44.345C50.8814 43.3073 51.1017 42.409 51.5354 41.6436L51.1874 41.4464C50.7145 42.281 50.4814 43.2494 50.4814 44.345H50.8814ZM51.5361 41.6424C51.9714 40.8615 52.5779 40.255 53.3588 39.8197L53.1641 39.4703C52.3183 39.9417 51.6582 40.6019 51.1867 41.4476L51.5361 41.6424ZM53.3588 39.8197C54.1395 39.3846 55.0394 39.158 56.064 39.145L56.0589 38.745C54.9768 38.7587 54.0101 38.9988 53.1641 39.4703L53.3588 39.8197ZM56.0614 39.145C57.2887 39.145 58.2518 39.3997 58.9685 39.8901L59.1944 39.56C58.3911 39.0103 57.3409 38.745 56.0614 38.745V39.145ZM58.9705 39.8914C59.691 40.3718 60.2053 41.0545 60.5123 41.9499L60.8906 41.8202C60.5576 40.8488 59.9919 40.0916 59.1924 39.5586L58.9705 39.8914ZM60.5123 41.9499C60.8213 42.8513 60.9339 43.9296 60.842 45.1905L61.2409 45.2196C61.3356 43.9204 61.2216 42.7854 60.8906 41.8202L60.5123 41.9499ZM61.0414 45.005H52.5414V45.405H61.0414V45.005ZM52.7414 45.205V43.565H52.3414V45.205H52.7414ZM52.5414 43.765H59.0414V43.365H52.5414V43.765ZM69.4993 41.605L69.3964 41.7765L69.5788 41.886L69.6768 41.6971L69.4993 41.605ZM67.9593 40.945L67.8988 41.1357L67.9043 41.1373L67.9593 40.945ZM65.3193 40.945L65.2175 40.7728L65.2175 40.7728L65.3193 40.945ZM65.2793 42.605L65.1591 42.7653L65.1683 42.7714L65.2793 42.605ZM66.3393 43.085L66.2796 43.2759L66.2796 43.2759L66.3393 43.085ZM67.6993 43.505L67.6408 43.6963L67.6408 43.6963L67.6993 43.505ZM69.0593 44.085L68.9611 44.2595L68.9677 44.2628L69.0593 44.085ZM70.1193 45.025L70.2857 44.9141L70.2857 44.9141L70.1193 45.025ZM69.9393 48.385L69.7853 48.2574L69.7849 48.2579L69.9393 48.385ZM68.4393 49.405L68.505 49.5939L68.5073 49.5931L68.4393 49.405ZM64.1193 49.345L64.057 49.5351L64.1193 49.345ZM62.1593 48.245L61.9822 48.152L61.9099 48.2896L62.0255 48.3937L62.1593 48.245ZM62.9793 46.685L63.1119 46.5353L62.9209 46.3662L62.8022 46.592L62.9793 46.685ZM64.6793 47.665L64.6115 47.8532L64.6149 47.8544L64.6793 47.665ZM67.4193 47.885L67.4795 48.0758L67.4853 48.0738L67.4193 47.885ZM68.0393 47.485L67.8922 47.3492L67.8866 47.3558L68.0393 47.485ZM66.8393 45.405L66.7742 45.5942L66.7796 45.5959L66.8393 45.405ZM65.4793 44.985L65.4208 45.1764L65.4257 45.1777L65.4793 44.985ZM64.1193 44.425L64.0231 44.6004L64.0254 44.6016L64.1193 44.425ZM63.0993 43.505L62.9346 43.6186L62.9346 43.6186L63.0993 43.505ZM63.2593 40.225L63.4118 40.3544L63.4136 40.3522L63.2593 40.225ZM64.6993 39.245L64.7638 39.4343L64.7663 39.4335L64.6993 39.245ZM70.3393 39.985L70.5168 40.0771L70.5977 39.921L70.4533 39.8207L70.3393 39.985ZM69.6022 41.4335C69.1195 41.1439 68.5899 40.9172 68.0142 40.7527L67.9043 41.1373C68.4487 41.2929 68.9457 41.5061 69.3964 41.7765L69.6022 41.4335ZM68.0197 40.7544C67.4578 40.5762 66.9305 40.485 66.4393 40.485V40.885C66.8813 40.885 67.3674 40.9672 67.8988 41.1357L68.0197 40.7544ZM66.4393 40.485C65.9616 40.485 65.5502 40.5762 65.2175 40.7728L65.421 41.1172C65.675 40.9671 66.0102 40.885 66.4393 40.885V40.485ZM65.2175 40.7728C64.8517 40.989 64.6793 41.3489 64.6793 41.805H65.0793C65.0793 41.4612 65.2001 41.2477 65.421 41.1172L65.2175 40.7728ZM64.6793 41.805C64.6793 42.2013 64.8422 42.5272 65.1593 42.765L65.3993 42.445C65.183 42.2828 65.0793 42.0754 65.0793 41.805H64.6793ZM65.1683 42.7714C65.4684 42.9715 65.8403 43.1386 66.2796 43.2759L66.3989 42.8941C65.9848 42.7647 65.6501 42.6119 65.3902 42.4386L65.1683 42.7714ZM66.2796 43.2759C66.7067 43.4094 67.1605 43.5495 67.6408 43.6963L67.7577 43.3137C67.2781 43.1672 66.8251 43.0273 66.3989 42.8941L66.2796 43.2759ZM67.6408 43.6963C68.1074 43.8389 68.5474 44.0266 68.9612 44.2593L69.1573 43.9107C68.7178 43.6635 68.2511 43.4645 67.7577 43.3137L67.6408 43.6963ZM68.9677 44.2628C69.3784 44.4744 69.7056 44.7651 69.9528 45.136L70.2857 44.9141C69.9996 44.4849 69.6201 44.149 69.1508 43.9072L68.9677 44.2628ZM69.9528 45.136C70.191 45.4932 70.3193 45.9774 70.3193 46.605H70.7193C70.7193 45.926 70.5808 45.3568 70.2857 44.9141L69.9528 45.136ZM70.3193 46.605C70.3193 47.2876 70.1368 47.8331 69.7853 48.2574L70.0933 48.5126C70.515 48.0036 70.7193 47.3625 70.7193 46.605H70.3193ZM69.7849 48.2579C69.4373 48.68 68.9688 49.0008 68.3712 49.2169L68.5073 49.5931C69.163 49.3559 69.6946 48.9968 70.0936 48.5122L69.7849 48.2579ZM68.3736 49.2161C67.7835 49.4214 67.1393 49.525 66.4393 49.525V49.925C67.1792 49.925 67.8683 49.8154 68.505 49.5939L68.3736 49.2161ZM66.4393 49.525C65.6882 49.525 64.9358 49.4021 64.1815 49.155L64.057 49.5351C64.8494 49.7947 65.6437 49.925 66.4393 49.925V49.525ZM64.1815 49.155C63.4311 48.9091 62.8031 48.5554 62.2931 48.0964L62.0255 48.3937C62.5821 48.8947 63.2607 49.2742 64.057 49.5351L64.1815 49.155ZM62.3363 48.3381L63.1563 46.7781L62.8022 46.592L61.9822 48.152L62.3363 48.3381ZM62.8467 46.8347C63.3347 47.267 63.9242 47.6058 64.6115 47.8532L64.747 47.4768C64.101 47.2443 63.5571 46.9297 63.1119 46.5353L62.8467 46.8347ZM64.6149 47.8544C65.2977 48.0865 65.9397 48.205 66.5393 48.205V47.805C65.9922 47.805 65.3941 47.6968 64.7436 47.4757L64.6149 47.8544ZM66.5393 48.205C66.8881 48.205 67.2024 48.1632 67.4795 48.0757L67.359 47.6943C67.1294 47.7668 66.8571 47.805 66.5393 47.805V48.205ZM67.4853 48.0738C67.7775 47.9715 68.0172 47.8207 68.1919 47.6142L67.8866 47.3558C67.768 47.496 67.5943 47.6118 67.3532 47.6962L67.4853 48.0738ZM68.1862 47.6207C68.3865 47.4037 68.4793 47.1253 68.4793 46.805H68.0793C68.0793 47.0447 68.012 47.2197 67.8923 47.3494L68.1862 47.6207ZM68.4793 46.805C68.4793 46.3774 68.3231 46.024 68.0042 45.7688L67.7543 46.0812C67.9687 46.2527 68.0793 46.486 68.0793 46.805H68.4793ZM68.0042 45.7688C67.7131 45.536 67.3424 45.3527 66.8989 45.2141L66.7796 45.5959C67.1895 45.724 67.512 45.8874 67.7543 46.0812L68.0042 45.7688ZM66.9043 45.2159C66.4734 45.0678 66.0163 44.9266 65.5328 44.7923L65.4257 45.1777C65.9023 45.3101 66.3517 45.4489 66.7742 45.5942L66.9043 45.2159ZM65.5377 44.7937C65.0695 44.6507 64.628 44.4688 64.2131 44.2484L64.0254 44.6016C64.4638 44.8345 64.9291 45.026 65.4208 45.1763L65.5377 44.7937ZM64.2154 44.2497C63.8293 44.0379 63.5128 43.7524 63.2639 43.3915L62.9346 43.6186C63.219 44.031 63.5825 44.3588 64.0231 44.6004L64.2154 44.2497ZM63.2639 43.3915C63.0272 43.0483 62.8993 42.5788 62.8993 41.965H62.4993C62.4993 42.6312 62.6379 43.1884 62.9346 43.6186L63.2639 43.3915ZM62.8993 41.965C62.8993 41.2803 63.0761 40.75 63.4118 40.3544L63.1068 40.0956C62.6957 40.58 62.4993 41.2097 62.4993 41.965H62.8993ZM63.4136 40.3522C63.762 39.9291 64.2102 39.623 64.7638 39.4343L64.6347 39.0557C64.015 39.267 63.5031 39.6143 63.1049 40.0979L63.4136 40.3522ZM64.7663 39.4335C65.3433 39.2283 65.9605 39.125 66.6193 39.125V38.725C65.918 38.725 65.2552 38.8351 64.6323 39.0566L64.7663 39.4335ZM66.6193 39.125C67.267 39.125 67.9155 39.2157 68.5653 39.3976L68.6732 39.0124C67.9896 38.821 67.3048 38.725 66.6193 38.725V39.125ZM68.5653 39.3976C69.2144 39.5793 69.7665 39.8308 70.2252 40.1493L70.4533 39.8207C69.952 39.4726 69.3575 39.204 68.6732 39.0124L68.5653 39.3976ZM70.1617 39.893L69.3217 41.513L69.6768 41.6971L70.5168 40.0771L70.1617 39.893ZM75.8338 47.465L75.6878 47.6019L75.6924 47.6064L75.8338 47.465ZM77.4138 47.645L77.3563 47.4534L77.3536 47.4543L77.4138 47.645ZM78.2738 47.285L78.4626 47.2191L78.3863 47.0007L78.1813 47.1077L78.2738 47.285ZM78.8538 48.945L78.9583 49.1155L79.0958 49.0313L79.0426 48.8791L78.8538 48.945ZM77.5738 49.545L77.6318 49.7365L77.637 49.7348L77.5738 49.545ZM74.7538 49.445L74.6686 49.626L74.6731 49.628L74.7538 49.445ZM73.6538 48.445L73.4814 48.5464L73.4836 48.5501L73.6538 48.445ZM73.2538 36.505V36.305H73.0538V36.505H73.2538ZM75.5338 36.505H75.7338V36.305H75.5338V36.505ZM71.7538 39.405V39.205H71.5538V39.405H71.7538ZM78.6738 39.405H78.8738V39.205H78.6738V39.405ZM78.6738 41.045V41.245H78.8738V41.045H78.6738ZM71.7538 41.045H71.5538V41.245H71.7538V41.045ZM75.3338 46.285C75.3338 46.8668 75.4322 47.3291 75.6879 47.6018L75.9797 47.3282C75.8354 47.1743 75.7338 46.8499 75.7338 46.285H75.3338ZM75.6924 47.6064C75.9394 47.8535 76.2759 47.965 76.6738 47.965V47.565C76.3516 47.565 76.1282 47.4766 75.9752 47.3236L75.6924 47.6064ZM76.6738 47.965C76.9363 47.965 77.2033 47.9212 77.474 47.8357L77.3536 47.4543C77.1176 47.5288 76.8913 47.565 76.6738 47.565V47.965ZM77.4713 47.8366C77.7525 47.7522 78.051 47.6268 78.3663 47.4623L78.1813 47.1077C77.8832 47.2632 77.6084 47.3778 77.3563 47.4535L77.4713 47.8366ZM78.085 47.351L78.665 49.011L79.0426 48.8791L78.4626 47.2191L78.085 47.351ZM78.7493 48.7745C78.3483 49.0202 77.9355 49.2136 77.5105 49.3553L77.637 49.7348C78.0921 49.5831 78.5326 49.3765 78.9583 49.1155L78.7493 48.7745ZM77.5158 49.3536C77.0943 49.4813 76.6672 49.545 76.2338 49.545V49.945C76.7071 49.945 77.1733 49.8754 77.6318 49.7364L77.5158 49.3536ZM76.2338 49.545C75.7261 49.545 75.2605 49.45 74.8345 49.262L74.6731 49.628C75.1537 49.8401 75.6748 49.945 76.2338 49.945V49.545ZM74.8389 49.2641C74.423 49.0683 74.0849 48.7625 73.8239 48.3399L73.4836 48.5501C73.7827 49.0342 74.1779 49.3951 74.6686 49.626L74.8389 49.2641ZM73.8262 48.3436C73.5831 47.9303 73.4538 47.382 73.4538 46.685H73.0538C73.0538 47.4281 73.1912 48.053 73.4814 48.5464L73.8262 48.3436ZM73.4538 46.685V36.505H73.0538V46.685H73.4538ZM73.2538 36.705H75.5338V36.305H73.2538V36.705ZM75.3338 36.505V46.285H75.7338V36.505H75.3338ZM71.7538 39.605H78.6738V39.205H71.7538V39.605ZM78.4738 39.405V41.045H78.8738V39.405H78.4738ZM78.6738 40.845H71.7538V41.245H78.6738V40.845ZM71.9538 41.045V39.405H71.5538V41.045H71.9538ZM82.7983 45.245L82.9049 45.4143L82.9049 45.4143L82.7983 45.245ZM82.7983 47.545L82.672 47.7001L82.6748 47.7023L82.7983 47.545ZM85.8583 47.685L85.939 47.868L85.939 47.868L85.8583 47.685ZM86.9383 46.885L87.0945 47.01L87.0968 47.007L86.9383 46.885ZM87.3583 45.725L87.5534 45.6808L87.1584 45.7188L87.3583 45.725ZM87.7983 47.665L87.9786 47.7517L88.0088 47.6888L87.9934 47.6208L87.7983 47.665ZM86.2783 49.225L86.1875 49.0468L86.1875 49.0468L86.2783 49.225ZM81.8583 49.305L81.9511 49.1279L81.9511 49.1279L81.8583 49.305ZM80.5583 48.125L80.3872 48.2286L80.3885 48.2306L80.5583 48.125ZM81.1383 44.145L81.0123 43.9897L81.0109 43.9909L81.1383 44.145ZM84.1183 43.265V43.065L84.1162 43.065L84.1183 43.265ZM87.6383 43.265H87.8383V43.065H87.6383V43.265ZM87.6383 44.905V45.105H87.8383V44.905H87.6383ZM87.3383 42.905H87.1383L87.1383 42.9056L87.3383 42.905ZM86.6983 41.285L86.564 41.4332L86.564 41.4332L86.6983 41.285ZM83.2383 40.985L83.1722 40.7962L83.1707 40.7968L83.2383 40.985ZM81.6583 41.805L81.4895 41.9122L81.5998 42.0858L81.7702 41.9708L81.6583 41.805ZM80.7183 40.325L80.6127 40.1552L80.4412 40.2618L80.5495 40.4322L80.7183 40.325ZM82.1183 39.565L82.2011 39.7471L82.2011 39.7471L82.1183 39.565ZM83.5183 39.105L83.4771 38.9093L83.4761 38.9095L83.5183 39.105ZM88.4583 39.945L88.3238 40.093L88.3266 40.0955L88.4583 39.945ZM89.5983 42.665L89.7983 42.6644L89.7983 42.6627L89.5983 42.665ZM89.6183 49.645V49.845H89.8189L89.8183 49.6444L89.6183 49.645ZM87.3583 49.645L87.1583 49.6456L87.1589 49.845H87.3583V49.645ZM84.4583 44.705C83.6988 44.705 83.0997 44.8189 82.6918 45.0758L82.9049 45.4143C83.217 45.2178 83.7245 45.105 84.4583 45.105V44.705ZM82.6918 45.0758C82.2601 45.3476 82.0583 45.7939 82.0583 46.365H82.4583C82.4583 45.8961 82.6165 45.5958 82.9049 45.4143L82.6918 45.0758ZM82.0583 46.365C82.0583 46.9142 82.2621 47.3661 82.672 47.7001L82.9247 47.39C82.6145 47.1373 82.4583 46.8025 82.4583 46.365H82.0583ZM82.6748 47.7023C83.0938 48.0316 83.649 48.185 84.3183 48.185V47.785C83.7076 47.785 83.2495 47.6451 82.9219 47.3878L82.6748 47.7023ZM84.3183 48.185C84.9151 48.185 85.4566 48.0809 85.939 47.868L85.7776 47.502C85.3534 47.6892 84.8682 47.785 84.3183 47.785V48.185ZM85.939 47.868C86.4171 47.6571 86.8047 47.3722 87.0945 47.01L86.7821 46.7601C86.5386 47.0645 86.2062 47.3129 85.7776 47.502L85.939 47.868ZM87.0968 47.007C87.3884 46.6279 87.5435 46.201 87.5582 45.7313L87.1584 45.7188C87.1464 46.1024 87.0215 46.4488 86.7798 46.7631L87.0968 47.007ZM87.1633 45.7693L87.6033 47.7093L87.9934 47.6208L87.5534 45.6808L87.1633 45.7693ZM87.6181 47.5784C87.3036 48.2326 86.8281 48.7202 86.1875 49.0468L86.3692 49.4032C87.0885 49.0365 87.6264 48.4841 87.9786 47.7517L87.6181 47.5784ZM86.1875 49.0468C85.5416 49.3761 84.7609 49.545 83.8383 49.545V49.945C84.8091 49.945 85.6551 49.7672 86.3692 49.4032L86.1875 49.0468ZM83.8383 49.545C83.1042 49.545 82.4772 49.4034 81.9511 49.1279L81.7655 49.4822C82.3594 49.7933 83.0525 49.945 83.8383 49.945V49.545ZM81.9511 49.1279C81.4199 48.8496 81.0144 48.4798 80.7282 48.0194L80.3885 48.2306C80.7156 48.7569 81.1768 49.1738 81.7655 49.4822L81.9511 49.1279ZM80.7294 48.0215C80.4424 47.5472 80.2983 47.0232 80.2983 46.445H79.8983C79.8983 47.0935 80.061 47.6895 80.3872 48.2286L80.7294 48.0215ZM80.2983 46.445C80.2983 45.5401 80.6218 44.8317 81.2658 44.2991L81.0109 43.9909C80.2682 44.605 79.8983 45.43 79.8983 46.445H80.2983ZM81.2643 44.3003C81.9241 43.765 82.8676 43.4781 84.1204 43.465L84.1162 43.065C82.8091 43.0786 81.7659 43.3783 81.0123 43.9897L81.2643 44.3003ZM84.1183 43.465H87.6383V43.065H84.1183V43.465ZM87.4383 43.265V44.905H87.8383V43.265H87.4383ZM87.6383 44.705H84.4583V45.105H87.6383V44.705ZM87.5383 42.905C87.5383 42.1677 87.3096 41.5691 86.8326 41.1368L86.564 41.4332C86.9404 41.7743 87.1383 42.2556 87.1383 42.905H87.5383ZM86.8326 41.1368C86.3554 40.7043 85.6655 40.505 84.7983 40.505V40.905C85.6111 40.905 86.1879 41.0924 86.564 41.4332L86.8326 41.1368ZM84.7983 40.505C84.2667 40.505 83.7244 40.603 83.1723 40.7962L83.3044 41.1738C83.8189 40.9937 84.3166 40.905 84.7983 40.905V40.505ZM83.1707 40.7968C82.6328 40.9899 82.0913 41.2714 81.5464 41.6392L81.7702 41.9708C82.292 41.6186 82.8039 41.3535 83.3059 41.1733L83.1707 40.7968ZM81.8271 41.6978L80.8871 40.2178L80.5495 40.4322L81.4895 41.9122L81.8271 41.6978ZM80.8239 40.4949C81.3113 40.1919 81.7703 39.9429 82.2011 39.7471L82.0356 39.3829C81.5863 39.5871 81.112 39.8448 80.6127 40.1552L80.8239 40.4949ZM82.2011 39.7471C82.6275 39.5532 83.0806 39.4043 83.5606 39.3005L83.4761 38.9095C82.9694 39.0191 82.4891 39.1768 82.0356 39.3829L82.2011 39.7471ZM83.5595 39.3007C84.0492 39.1976 84.6281 39.145 85.2983 39.145V38.745C84.6085 38.745 84.0008 38.7991 83.4771 38.9093L83.5595 39.3007ZM85.2983 39.145C86.6412 39.145 87.6394 39.4708 88.3238 40.093L88.5929 39.797C87.8106 39.0859 86.7021 38.745 85.2983 38.745V39.145ZM88.3266 40.0955C89.0231 40.705 89.3855 41.5536 89.3983 42.6673L89.7983 42.6627C89.7844 41.4564 89.3868 40.4917 88.59 39.7945L88.3266 40.0955ZM89.3983 42.6656L89.4183 49.6456L89.8183 49.6444L89.7983 42.6644L89.3983 42.6656ZM89.6183 49.445H87.3583V49.845H89.6183V49.445ZM87.5583 49.6444L87.5383 42.9044L87.1383 42.9056L87.1583 49.6456L87.5583 49.6444ZM99.2571 39.585L99.1484 39.753L99.1523 39.7554L99.2571 39.585ZM100.837 41.445L100.654 41.526L100.656 41.5296L100.837 41.445ZM101.377 44.325L101.177 44.3226L101.177 44.3274L101.377 44.325ZM99.2771 49.105L99.3834 49.2744L99.3842 49.2739L99.2771 49.105ZM94.1171 49.065L94.0124 49.2355L94.0159 49.2376L94.1171 49.065ZM92.3371 47.145L92.1593 47.2368L92.16 47.2379L92.3371 47.145ZM92.3371 41.505L92.5135 41.5991L92.5142 41.5979L92.3371 41.505ZM94.1171 39.605L94.0146 39.4333L94.0146 39.4333L94.1171 39.605ZM95.5771 41.245L95.6827 41.4149L95.6827 41.4149L95.5771 41.245ZM94.4171 42.525L94.2391 42.4338L94.2382 42.4356L94.4171 42.525ZM93.9971 44.365L93.797 44.3612L93.7971 44.3689L93.9971 44.365ZM94.4171 46.205L94.2381 46.2945L94.24 46.298L94.4171 46.205ZM95.5771 47.465L95.6827 47.2952L95.6827 47.2952L95.5771 47.465ZM98.9771 47.465L98.8715 47.2952L98.8715 47.2952L98.9771 47.465ZM100.117 46.205L99.94 46.112L99.9382 46.1156L100.117 46.205ZM100.117 42.505L99.9382 42.5945L99.94 42.598L100.117 42.505ZM100.537 39.025V38.825H100.337V39.025H100.537ZM102.837 39.025H103.037V38.825H102.837V39.025ZM102.837 53.525V53.725H103.037V53.525H102.837ZM100.537 53.525H100.337V53.725H100.537V53.525ZM96.7571 39.125C97.7137 39.125 98.5072 39.338 99.1484 39.7529L99.3657 39.4171C98.6469 38.952 97.7738 38.725 96.7571 38.725V39.125ZM99.1523 39.7554C99.8079 40.1588 100.309 40.7461 100.654 41.526L101.02 41.3641C100.645 40.5173 100.093 39.8645 99.3619 39.4147L99.1523 39.7554ZM100.656 41.5296C101.014 42.2961 101.19 43.2248 101.177 44.3226L101.577 44.3274C101.591 43.1852 101.407 42.194 101.018 41.3604L100.656 41.5296ZM101.177 44.3274C101.19 45.4259 101.02 46.3628 100.674 47.1441L101.04 47.306C101.414 46.4605 101.591 45.4641 101.577 44.3226L101.177 44.3274ZM100.674 47.1441C100.329 47.9244 99.8271 48.5191 99.1699 48.9362L99.3842 49.2739C100.114 48.8109 100.665 48.1523 101.04 47.306L100.674 47.1441ZM99.1708 48.9356C98.5288 49.3384 97.7408 49.545 96.7971 49.545V49.945C97.8 49.945 98.6653 49.725 99.3834 49.2744L99.1708 48.9356ZM96.7971 49.545C95.8146 49.545 94.957 49.3256 94.2182 48.8925L94.0159 49.2376C94.8238 49.7111 95.7529 49.945 96.7971 49.945V49.545ZM94.2217 48.8946C93.4934 48.4473 92.9246 47.8345 92.5142 47.0521L92.16 47.2379C92.6028 48.0822 93.2208 48.7494 94.0124 49.2355L94.2217 48.8946ZM92.5148 47.0533C92.1048 46.2589 91.8971 45.3445 91.8971 44.305H91.4971C91.4971 45.3989 91.716 46.3778 92.1593 47.2367L92.5148 47.0533ZM91.8971 44.305C91.8971 43.2654 92.1048 42.3655 92.5135 41.5991L92.1606 41.4109C91.716 42.2446 91.4971 43.2113 91.4971 44.305H91.8971ZM92.5142 41.5979C92.9244 40.816 93.4924 40.2105 94.2195 39.7768L94.0146 39.4333C93.2217 39.9062 92.6031 40.5674 92.16 41.4121L92.5142 41.5979ZM94.2195 39.7768C94.9447 39.3442 95.7883 39.125 96.7571 39.125V38.725C95.7258 38.725 94.8095 38.9591 94.0146 39.4333L94.2195 39.7768ZM97.2771 40.585C96.6037 40.585 95.9997 40.7468 95.4715 41.0752L95.6827 41.4149C96.1411 41.1299 96.6705 40.985 97.2771 40.985V40.585ZM95.4715 41.0752C94.9455 41.4021 94.5346 41.8568 94.2391 42.4338L94.5951 42.6162C94.8595 42.0999 95.222 41.7013 95.6827 41.4149L95.4715 41.0752ZM94.2382 42.4356C93.9562 42.9995 93.8109 43.6429 93.7971 44.3612L94.197 44.3689C94.2099 43.7004 94.3446 43.1172 94.596 42.6145L94.2382 42.4356ZM93.7971 44.3689C93.8109 45.0871 93.9562 45.7305 94.2382 46.2945L94.596 46.1156C94.3446 45.6129 94.2099 45.0296 94.197 44.3612L93.7971 44.3689ZM94.24 46.298C94.5359 46.8616 94.9467 47.3087 95.4715 47.6349L95.6827 47.2952C95.2207 47.008 94.8582 46.6151 94.5941 46.1121L94.24 46.298ZM95.4715 47.6349C95.9997 47.9632 96.6037 48.125 97.2771 48.125V47.725C96.6705 47.725 96.1411 47.5802 95.6827 47.2952L95.4715 47.6349ZM97.2771 48.125C97.9505 48.125 98.5545 47.9632 99.0827 47.6349L98.8715 47.2952C98.413 47.5802 97.8837 47.725 97.2771 47.725V48.125ZM99.0827 47.6349C99.6083 47.3082 100.013 46.8599 100.296 46.2945L99.9382 46.1156C99.6876 46.6168 99.3326 47.0085 98.8715 47.2952L99.0827 47.6349ZM100.294 46.298C100.591 45.7319 100.737 45.0858 100.737 44.365H100.337C100.337 45.0309 100.203 45.6115 99.94 46.1121L100.294 46.298ZM100.737 44.365C100.737 43.6316 100.592 42.9786 100.294 42.4121L99.94 42.598C100.203 43.0981 100.337 43.6851 100.337 44.365H100.737ZM100.296 42.4156C100.013 41.8501 99.6083 41.4019 99.0827 41.0752L98.8715 41.4149C99.3326 41.7015 99.6876 42.0933 99.9382 42.5945L100.296 42.4156ZM99.0827 41.0752C98.5545 40.7468 97.9505 40.585 97.2771 40.585V40.985C97.8837 40.985 98.413 41.1299 98.8715 41.4149L99.0827 41.0752ZM100.537 39.225H102.837V38.825H100.537V39.225ZM102.637 39.025V53.525H103.037V39.025H102.637ZM102.837 53.325H100.537V53.725H102.837V53.325ZM100.737 53.525V39.025H100.337V53.525H100.737ZM108.95 46.985L108.802 47.1202L108.804 47.1222L108.95 46.985ZM110.77 47.685V47.8851L110.776 47.8849L110.77 47.685ZM112.91 46.665L112.753 46.5405L112.752 46.5425L112.91 46.665ZM113.69 44.245V44.045H113.49V44.245H113.69ZM114.31 44.245H114.51V44.045H114.31V44.245ZM113.77 47.405L113.587 47.3229L113.77 47.405ZM112.23 49.165L112.326 49.3402L112.328 49.3395L112.23 49.165ZM109.89 49.725V49.925L109.893 49.925L109.89 49.725ZM107.79 49.225L107.689 49.3979L107.691 49.3989L107.79 49.225ZM106.45 47.805L106.271 47.8945L106.273 47.8975L106.45 47.805ZM105.99 39.025V38.825H105.79V39.025H105.99ZM108.29 39.025H108.49V38.825H108.29V39.025ZM113.69 39.025V38.825H113.49V39.025H113.69ZM115.99 39.025H116.19V38.825H115.99V39.025ZM115.99 49.645V49.845H116.19V49.645H115.99ZM113.69 49.645H113.49V49.845H113.69V49.645ZM108.09 45.025C108.09 45.8877 108.32 46.5941 108.802 47.1202L109.097 46.8499C108.7 46.4159 108.49 45.8156 108.49 45.025H108.09ZM108.804 47.1222C109.29 47.6371 109.954 47.885 110.77 47.885V47.485C110.039 47.485 109.49 47.2663 109.095 46.8478L108.804 47.1222ZM110.776 47.8849C111.748 47.8568 112.52 47.4939 113.068 46.7876L112.752 46.5425C112.286 47.1428 111.632 47.4599 110.764 47.4851L110.776 47.8849ZM113.066 46.7896C113.619 46.0956 113.89 45.2432 113.89 44.245H113.49C113.49 45.1669 113.241 45.9277 112.753 46.5405L113.066 46.7896ZM113.69 44.445H114.31V44.045H113.69V44.445ZM114.11 44.245C114.11 45.536 113.932 46.5582 113.587 47.3229L113.952 47.4871C114.328 46.6518 114.51 45.5674 114.51 44.245H114.11ZM113.587 47.3229C113.242 48.0899 112.756 48.6411 112.132 48.9905L112.328 49.3395C113.037 48.9422 113.577 48.3202 113.952 47.4871L113.587 47.3229ZM112.133 48.9899C111.514 49.331 110.768 49.5121 109.887 49.525L109.893 49.925C110.825 49.9113 111.639 49.7191 112.326 49.3402L112.133 48.9899ZM109.89 49.525C109.104 49.525 108.44 49.3642 107.889 49.0511L107.691 49.3989C108.313 49.7526 109.049 49.925 109.89 49.925V49.525ZM107.89 49.0521C107.351 48.7386 106.931 48.2938 106.627 47.7125L106.273 47.8975C106.609 48.5429 107.082 49.0447 107.689 49.3979L107.89 49.0521ZM106.629 47.7156C106.339 47.1356 106.19 46.4408 106.19 45.625H105.79C105.79 46.4892 105.948 47.2478 106.271 47.8945L106.629 47.7156ZM106.19 45.625V39.025H105.79V45.625H106.19ZM105.99 39.225H108.29V38.825H105.99V39.225ZM108.09 39.025V45.025H108.49V39.025H108.09ZM113.69 39.225H115.99V38.825H113.69V39.225ZM115.79 39.025V49.645H116.19V39.025H115.79ZM115.99 49.445H113.69V49.845H115.99V49.445ZM113.89 49.645V39.025H113.49V49.645H113.89ZM126.756 43.565V43.765H126.965L126.956 43.5561L126.756 43.565ZM126.336 42.045L126.162 42.1431L126.166 42.1495L126.336 42.045ZM125.316 41.065L125.22 41.2406L125.225 41.2428L125.316 41.065ZM122.116 41.145L122.012 40.9743L122.01 40.9757L122.116 41.145ZM121.016 42.385L121.194 42.4763L121.195 42.4745L121.016 42.385ZM121.036 46.205L120.857 46.2945L120.859 46.2978L121.036 46.205ZM122.236 47.505L122.133 47.6761L122.135 47.6773L122.236 47.505ZM127.016 46.705L127.158 46.5636L127.014 46.4199L126.873 46.5659L127.016 46.705ZM128.236 47.925L128.384 48.0594L128.512 47.9183L128.378 47.7836L128.236 47.925ZM126.336 49.265L126.412 49.45L126.415 49.4488L126.336 49.265ZM120.976 49.045L120.879 49.2197L120.879 49.2197L120.976 49.045ZM119.076 47.165L118.902 47.2624L118.902 47.2636L119.076 47.165ZM119.076 41.545L119.25 41.6436L119.251 41.6424L119.076 41.545ZM120.976 39.645L121.074 39.8197L121.074 39.8197L120.976 39.645ZM123.776 38.945V38.745L123.774 38.745L123.776 38.945ZM126.796 39.725L126.683 39.8901L126.685 39.8914L126.796 39.725ZM128.416 41.885L128.227 41.9499L128.227 41.9499L128.416 41.885ZM128.756 45.205V45.405H128.942L128.956 45.2196L128.756 45.205ZM120.256 45.205H120.056V45.405H120.256V45.205ZM120.256 43.565V43.365H120.056V43.565H120.256ZM126.956 43.5561C126.928 42.9303 126.782 42.3888 126.507 41.9405L126.166 42.1495C126.398 42.5279 126.531 42.9998 126.556 43.5739L126.956 43.5561ZM126.511 41.947C126.251 41.4858 125.882 41.1316 125.408 40.8872L125.225 41.2428C125.63 41.4518 125.941 41.7509 126.162 42.1431L126.511 41.947ZM125.412 40.8894C124.939 40.6312 124.398 40.505 123.796 40.505V40.905C124.341 40.905 124.814 41.0188 125.221 41.2406L125.412 40.8894ZM123.796 40.505C123.125 40.505 122.528 40.6593 122.012 40.9744L122.221 41.3157C122.665 41.0441 123.188 40.905 123.796 40.905V40.505ZM122.01 40.9757C121.51 41.2901 121.119 41.7323 120.837 42.2956L121.195 42.4745C121.447 41.9711 121.79 41.5866 122.223 41.3143L122.01 40.9757ZM120.838 42.2938C120.554 42.8473 120.416 43.4932 120.416 44.225H120.816C120.816 43.5435 120.945 42.9627 121.194 42.4763L120.838 42.2938ZM120.416 44.225C120.416 45.0095 120.561 45.7014 120.857 46.2945L121.215 46.1156C120.952 45.5887 120.816 44.9605 120.816 44.225H120.416ZM120.859 46.2978C121.168 46.8879 121.593 47.3493 122.133 47.6761L122.34 47.3339C121.867 47.0474 121.491 46.6422 121.213 46.1122L120.859 46.2978ZM122.135 47.6773C122.689 48.004 123.318 48.165 124.016 48.165V47.765C123.382 47.765 122.824 47.6194 122.338 47.3327L122.135 47.6773ZM124.016 48.165C125.256 48.165 126.308 47.7237 127.16 46.8441L126.873 46.5659C126.098 47.3663 125.15 47.765 124.016 47.765V48.165ZM126.875 46.8464L128.095 48.0664L128.378 47.7836L127.158 46.5636L126.875 46.8464ZM128.088 47.7907C127.588 48.3417 126.979 48.7719 126.258 49.0812L126.415 49.4488C127.187 49.1181 127.844 48.655 128.384 48.0594L128.088 47.7907ZM126.26 49.08C125.541 49.3755 124.734 49.525 123.836 49.525V49.925C124.779 49.925 125.638 49.7679 126.412 49.45L126.26 49.08ZM123.836 49.525C122.771 49.525 121.852 49.3044 121.074 48.8703L120.879 49.2197C121.727 49.6923 122.715 49.925 123.836 49.925V49.525ZM121.074 48.8703C120.292 48.4346 119.685 47.8341 119.25 47.0664L118.902 47.2636C119.374 48.096 120.034 48.7488 120.879 49.2197L121.074 48.8703ZM119.251 47.0676C118.817 46.2882 118.596 45.3826 118.596 44.345H118.196C118.196 45.4407 118.429 46.4152 118.902 47.2624L119.251 47.0676ZM118.596 44.345C118.596 43.3073 118.817 42.409 119.25 41.6436L118.902 41.4464C118.429 42.281 118.196 43.2494 118.196 44.345H118.596ZM119.251 41.6424C119.686 40.8615 120.293 40.255 121.074 39.8197L120.879 39.4703C120.033 39.9417 119.373 40.6019 118.902 41.4476L119.251 41.6424ZM121.074 39.8197C121.854 39.3846 122.754 39.158 123.779 39.145L123.774 38.745C122.692 38.7587 121.725 38.9988 120.879 39.4703L121.074 39.8197ZM123.776 39.145C125.004 39.145 125.967 39.3997 126.683 39.8901L126.909 39.56C126.106 39.0103 125.056 38.745 123.776 38.745V39.145ZM126.685 39.8914C127.406 40.3718 127.92 41.0545 128.227 41.9499L128.605 41.8202C128.272 40.8488 127.707 40.0916 126.907 39.5586L126.685 39.8914ZM128.227 41.9499C128.536 42.8513 128.649 43.9296 128.557 45.1905L128.956 45.2196C129.05 43.9204 128.936 42.7854 128.605 41.8202L128.227 41.9499ZM128.756 45.005H120.256V45.405H128.756V45.005ZM120.456 45.205V43.565H120.056V45.205H120.456ZM120.256 43.765H126.756V43.365H120.256V43.765ZM137.214 41.605L137.111 41.7765L137.294 41.886L137.392 41.6971L137.214 41.605ZM135.674 40.945L135.614 41.1357L135.619 41.1373L135.674 40.945ZM133.034 40.945L132.932 40.7728L132.932 40.7728L133.034 40.945ZM132.994 42.605L132.874 42.7653L132.883 42.7714L132.994 42.605ZM134.054 43.085L133.994 43.2759L133.994 43.2759L134.054 43.085ZM135.414 43.505L135.356 43.6963L135.356 43.6963L135.414 43.505ZM136.774 44.085L136.676 44.2595L136.683 44.2628L136.774 44.085ZM137.834 45.025L138.001 44.9141L138.001 44.9141L137.834 45.025ZM137.654 48.385L137.5 48.2574L137.5 48.2579L137.654 48.385ZM136.154 49.405L136.22 49.5939L136.222 49.5931L136.154 49.405ZM131.834 49.345L131.772 49.5351L131.834 49.345ZM129.874 48.245L129.697 48.152L129.625 48.2896L129.74 48.3937L129.874 48.245ZM130.694 46.685L130.827 46.5353L130.636 46.3662L130.517 46.592L130.694 46.685ZM132.394 47.665L132.326 47.8532L132.33 47.8544L132.394 47.665ZM135.134 47.885L135.194 48.0758L135.2 48.0738L135.134 47.885ZM135.754 47.485L135.607 47.3492L135.601 47.3558L135.754 47.485ZM134.554 45.405L134.489 45.5942L134.494 45.5959L134.554 45.405ZM133.194 44.985L133.136 45.1764L133.141 45.1777L133.194 44.985ZM131.834 44.425L131.738 44.6004L131.74 44.6016L131.834 44.425ZM130.814 43.505L130.649 43.6186L130.649 43.6186L130.814 43.505ZM130.974 40.225L131.127 40.3544L131.128 40.3522L130.974 40.225ZM132.414 39.245L132.479 39.4343L132.481 39.4335L132.414 39.245ZM138.054 39.985L138.232 40.0771L138.313 39.921L138.168 39.8207L138.054 39.985ZM137.317 41.4335C136.834 41.1439 136.305 40.9172 135.729 40.7527L135.619 41.1373C136.164 41.2929 136.661 41.5061 137.111 41.7765L137.317 41.4335ZM135.735 40.7544C135.173 40.5762 134.645 40.485 134.154 40.485V40.885C134.596 40.885 135.082 40.9672 135.614 41.1357L135.735 40.7544ZM134.154 40.485C133.676 40.485 133.265 40.5762 132.932 40.7728L133.136 41.1172C133.39 40.9671 133.725 40.885 134.154 40.885V40.485ZM132.932 40.7728C132.567 40.989 132.394 41.3489 132.394 41.805H132.794C132.794 41.4612 132.915 41.2477 133.136 41.1172L132.932 40.7728ZM132.394 41.805C132.394 42.2013 132.557 42.5272 132.874 42.765L133.114 42.445C132.898 42.2828 132.794 42.0754 132.794 41.805H132.394ZM132.883 42.7714C133.183 42.9715 133.555 43.1386 133.994 43.2759L134.114 42.8941C133.7 42.7647 133.365 42.6119 133.105 42.4386L132.883 42.7714ZM133.994 43.2759C134.422 43.4094 134.875 43.5495 135.356 43.6963L135.473 43.3137C134.993 43.1672 134.54 43.0273 134.114 42.8941L133.994 43.2759ZM135.356 43.6963C135.822 43.8389 136.262 44.0266 136.676 44.2593L136.872 43.9107C136.433 43.6635 135.966 43.4645 135.473 43.3137L135.356 43.6963ZM136.683 44.2628C137.093 44.4744 137.42 44.7651 137.668 45.136L138.001 44.9141C137.714 44.4849 137.335 44.149 136.866 43.9072L136.683 44.2628ZM137.668 45.136C137.906 45.4932 138.034 45.9774 138.034 46.605H138.434C138.434 45.926 138.296 45.3568 138.001 44.9141L137.668 45.136ZM138.034 46.605C138.034 47.2876 137.852 47.8331 137.5 48.2574L137.808 48.5126C138.23 48.0036 138.434 47.3625 138.434 46.605H138.034ZM137.5 48.2579C137.152 48.68 136.684 49.0008 136.086 49.2169L136.222 49.5931C136.878 49.3559 137.409 48.9968 137.808 48.5122L137.5 48.2579ZM136.088 49.2161C135.498 49.4214 134.854 49.525 134.154 49.525V49.925C134.894 49.925 135.583 49.8154 136.22 49.5939L136.088 49.2161ZM134.154 49.525C133.403 49.525 132.651 49.4021 131.896 49.155L131.772 49.5351C132.564 49.7947 133.359 49.925 134.154 49.925V49.525ZM131.896 49.155C131.146 48.9091 130.518 48.5554 130.008 48.0964L129.74 48.3937C130.297 48.8947 130.976 49.2742 131.772 49.5351L131.896 49.155ZM130.051 48.3381L130.871 46.7781L130.517 46.592L129.697 48.152L130.051 48.3381ZM130.561 46.8347C131.05 47.267 131.639 47.6058 132.326 47.8532L132.462 47.4768C131.816 47.2443 131.272 46.9297 130.827 46.5353L130.561 46.8347ZM132.33 47.8544C133.013 48.0865 133.655 48.205 134.254 48.205V47.805C133.707 47.805 133.109 47.6968 132.458 47.4757L132.33 47.8544ZM134.254 48.205C134.603 48.205 134.917 48.1632 135.194 48.0757L135.074 47.6943C134.844 47.7668 134.572 47.805 134.254 47.805V48.205ZM135.2 48.0738C135.492 47.9715 135.732 47.8207 135.907 47.6142L135.601 47.3558C135.483 47.496 135.309 47.6118 135.068 47.6962L135.2 48.0738ZM135.901 47.6207C136.101 47.4037 136.194 47.1253 136.194 46.805H135.794C135.794 47.0447 135.727 47.2197 135.607 47.3494L135.901 47.6207ZM136.194 46.805C136.194 46.3774 136.038 46.024 135.719 45.7688L135.469 46.0812C135.684 46.2527 135.794 46.486 135.794 46.805H136.194ZM135.719 45.7688C135.428 45.536 135.057 45.3527 134.614 45.2141L134.494 45.5959C134.904 45.724 135.227 45.8874 135.469 46.0812L135.719 45.7688ZM134.619 45.2159C134.188 45.0678 133.731 44.9266 133.248 44.7923L133.141 45.1777C133.617 45.3101 134.067 45.4489 134.489 45.5942L134.619 45.2159ZM133.253 44.7937C132.784 44.6507 132.343 44.4688 131.928 44.2484L131.74 44.6016C132.179 44.8345 132.644 45.026 133.136 45.1763L133.253 44.7937ZM131.93 44.2497C131.544 44.0379 131.228 43.7524 130.979 43.3915L130.649 43.6186C130.934 44.031 131.297 44.3588 131.738 44.6004L131.93 44.2497ZM130.979 43.3915C130.742 43.0483 130.614 42.5788 130.614 41.965H130.214C130.214 42.6312 130.353 43.1884 130.649 43.6186L130.979 43.3915ZM130.614 41.965C130.614 41.2803 130.791 40.75 131.127 40.3544L130.822 40.0956C130.411 40.58 130.214 41.2097 130.214 41.965H130.614ZM131.128 40.3522C131.477 39.9291 131.925 39.623 132.479 39.4343L132.35 39.0557C131.73 39.267 131.218 39.6143 130.82 40.0979L131.128 40.3522ZM132.481 39.4335C133.058 39.2283 133.675 39.125 134.334 39.125V38.725C133.633 38.725 132.97 38.8351 132.347 39.0566L132.481 39.4335ZM134.334 39.125C134.982 39.125 135.63 39.2157 136.28 39.3976L136.388 39.0124C135.704 38.821 135.02 38.725 134.334 38.725V39.125ZM136.28 39.3976C136.929 39.5793 137.481 39.8308 137.94 40.1493L138.168 39.8207C137.667 39.4726 137.072 39.204 136.388 39.0124L136.28 39.3976ZM137.877 39.893L137.037 41.513L137.392 41.6971L138.232 40.0771L137.877 39.893Z" fill="black"/>
<defs>
<linearGradient id="paint0_linear_198_55" x1="85.156" y1="0" x2="85.156" y2="34.062" gradientUnits="userSpaceOnUse">
<stop stop-color="#E4BC00"/>
<stop offset="1" stop-color="#5C4C00"/>
</linearGradient>
<linearGradient id="paint1_linear_198_55" x1="121.487" y1="0" x2="121.487" y2="34.062" gradientUnits="userSpaceOnUse">
<stop stop-color="#E4BC00"/>
<stop offset="1" stop-color="#5C4C00"/>
</linearGradient>
<linearGradient id="paint2_linear_198_55" x1="51.0925" y1="0" x2="51.0925" y2="34.062" gradientUnits="userSpaceOnUse">
<stop stop-color="#E4BC00"/>
<stop offset="1" stop-color="#5C4C00"/>
</linearGradient>
<linearGradient id="paint3_linear_198_55" x1="155.551" y1="0" x2="155.551" y2="34.062" gradientUnits="userSpaceOnUse">
<stop stop-color="#E4BC00"/>
<stop offset="1" stop-color="#5C4C00"/>
</linearGradient>
<linearGradient id="paint4_linear_198_55" x1="17.031" y1="0" x2="17.031" y2="34.062" gradientUnits="userSpaceOnUse">
<stop stop-color="#E4BC00"/>
<stop offset="1" stop-color="#5C4C00"/>
</linearGradient>
<linearGradient id="paint5_linear_198_55" x1="86.6611" y1="30.645" x2="86.6611" y2="54.645" gradientUnits="userSpaceOnUse">
<stop stop-color="#E4BC00"/>
<stop offset="1" stop-color="#5C4C00"/>
</linearGradient>
</defs>
</svg>
