<svg width="365" height="80" viewBox="0 0 365 80" fill="none" xmlns="http://www.w3.org/2000/svg">
<path d="M84.28 29.13C83.23 27.84 81.97 26.835 80.5 26.115C79.03 25.365 77.56 24.99 76.09 24.99C74.74 24.99 73.48 25.245 72.31 25.755C71.17 26.265 70.15 26.985 69.25 27.915C68.38 28.815 67.705 29.88 67.225 31.11C66.745 32.34 66.505 33.675 66.505 35.115C66.505 36.525 66.745 37.845 67.225 39.075C67.705 40.305 68.38 41.385 69.25 42.315C70.15 43.215 71.17 43.935 72.31 44.475C73.48 44.985 74.74 45.24 76.09 45.24C77.53 45.24 78.97 44.91 80.41 44.25C81.85 43.56 83.14 42.645 84.28 41.505L88.465 45.87C87.355 47.01 86.095 48 84.685 48.84C83.305 49.68 81.85 50.34 80.32 50.82C78.79 51.27 77.26 51.495 75.73 51.495C73.36 51.495 71.17 51.09 69.16 50.28C67.18 49.44 65.44 48.285 63.94 46.815C62.47 45.315 61.315 43.575 60.475 41.595C59.635 39.615 59.215 37.47 59.215 35.16C59.215 32.88 59.635 30.765 60.475 28.815C61.315 26.865 62.5 25.155 64.03 23.685C65.56 22.215 67.33 21.075 69.34 20.265C71.38 19.455 73.6 19.05 76 19.05C77.53 19.05 79.045 19.26 80.545 19.68C82.075 20.1 83.5 20.7 84.82 21.48C86.17 22.23 87.37 23.16 88.42 24.27L84.28 29.13ZM100.949 40.515C99.6293 40.515 98.6393 40.74 97.9793 41.19C97.3193 41.64 96.9893 42.36 96.9893 43.35C96.9893 44.31 97.3193 45.075 97.9793 45.645C98.6693 46.185 99.5993 46.455 100.769 46.455C101.789 46.455 102.689 46.29 103.469 45.96C104.279 45.6 104.939 45.135 105.449 44.565C105.989 43.965 106.319 43.275 106.439 42.495L107.474 46.365C106.784 47.985 105.704 49.215 104.234 50.055C102.764 50.895 100.964 51.315 98.8343 51.315C97.1243 51.315 95.6393 50.985 94.3793 50.325C93.1493 49.665 92.1893 48.765 91.4993 47.625C90.8393 46.485 90.5093 45.195 90.5093 43.755C90.5093 41.505 91.3043 39.735 92.8943 38.445C94.4843 37.155 96.7643 36.495 99.7343 36.465H107.114V40.515H100.949ZM106.394 36.015C106.394 34.695 105.959 33.66 105.089 32.91C104.249 32.16 103.004 31.785 101.354 31.785C100.274 31.785 99.1193 31.98 97.8893 32.37C96.6593 32.73 95.4143 33.255 94.1543 33.945L91.9943 29.445C93.1943 28.815 94.3643 28.29 95.5043 27.87C96.6443 27.45 97.8143 27.135 99.0143 26.925C100.214 26.685 101.519 26.565 102.929 26.565C106.199 26.565 108.719 27.33 110.489 28.86C112.259 30.39 113.159 32.505 113.189 35.205L113.234 51H106.439L106.394 36.015ZM134.461 33.765C133.141 33.045 131.836 32.49 130.546 32.1C129.256 31.68 128.101 31.47 127.081 31.47C126.271 31.47 125.596 31.62 125.056 31.92C124.546 32.22 124.291 32.7 124.291 33.36C124.291 33.99 124.591 34.5 125.191 34.89C125.821 35.25 126.616 35.565 127.576 35.835C128.566 36.105 129.601 36.42 130.681 36.78C131.761 37.11 132.781 37.545 133.741 38.085C134.731 38.625 135.526 39.36 136.126 40.29C136.726 41.19 137.026 42.36 137.026 43.8C137.026 45.42 136.591 46.8 135.721 47.94C134.851 49.05 133.666 49.89 132.166 50.46C130.666 51 129.001 51.27 127.171 51.27C125.221 51.27 123.331 50.985 121.501 50.415C119.671 49.845 118.066 49.005 116.686 47.895L118.936 43.395C120.196 44.355 121.576 45.105 123.076 45.645C124.606 46.155 126.031 46.41 127.351 46.41C127.951 46.41 128.476 46.335 128.926 46.185C129.376 46.035 129.736 45.81 130.006 45.51C130.276 45.21 130.411 44.835 130.411 44.385C130.411 43.725 130.111 43.2 129.511 42.81C128.911 42.39 128.131 42.045 127.171 41.775C126.211 41.475 125.191 41.175 124.111 40.875C123.031 40.545 122.011 40.11 121.051 39.57C120.121 39.03 119.356 38.325 118.756 37.455C118.156 36.555 117.856 35.4 117.856 33.99C117.856 32.31 118.291 30.93 119.161 29.85C120.031 28.74 121.186 27.915 122.626 27.375C124.066 26.835 125.656 26.565 127.396 26.565C129.076 26.565 130.726 26.79 132.346 27.24C133.996 27.69 135.496 28.335 136.846 29.175L134.461 33.765ZM150.212 40.515C148.892 40.515 147.902 40.74 147.242 41.19C146.582 41.64 146.252 42.36 146.252 43.35C146.252 44.31 146.582 45.075 147.242 45.645C147.932 46.185 148.862 46.455 150.032 46.455C151.052 46.455 151.952 46.29 152.732 45.96C153.542 45.6 154.202 45.135 154.712 44.565C155.252 43.965 155.582 43.275 155.702 42.495L156.737 46.365C156.047 47.985 154.967 49.215 153.497 50.055C152.027 50.895 150.227 51.315 148.097 51.315C146.387 51.315 144.902 50.985 143.642 50.325C142.412 49.665 141.452 48.765 140.762 47.625C140.102 46.485 139.772 45.195 139.772 43.755C139.772 41.505 140.567 39.735 142.157 38.445C143.747 37.155 146.027 36.495 148.997 36.465H156.377V40.515H150.212ZM155.657 36.015C155.657 34.695 155.222 33.66 154.352 32.91C153.512 32.16 152.267 31.785 150.617 31.785C149.537 31.785 148.382 31.98 147.152 32.37C145.922 32.73 144.677 33.255 143.417 33.945L141.257 29.445C142.457 28.815 143.627 28.29 144.767 27.87C145.907 27.45 147.077 27.135 148.277 26.925C149.477 26.685 150.782 26.565 152.192 26.565C155.462 26.565 157.982 27.33 159.752 28.86C161.522 30.39 162.422 32.505 162.452 35.205L162.497 51H155.702L155.657 36.015ZM195.223 19.5C197.533 19.5 199.528 19.815 201.208 20.445C202.888 21.075 204.178 21.99 205.078 23.19C206.008 24.36 206.473 25.755 206.473 27.375C206.473 29.085 205.978 30.57 204.988 31.83C204.028 33.06 202.708 33.885 201.028 34.305C203.068 34.695 204.673 35.61 205.843 37.05C207.013 38.46 207.598 40.2 207.598 42.27C207.598 44.07 207.103 45.63 206.113 46.95C205.153 48.24 203.788 49.245 202.018 49.965C200.248 50.655 198.148 51 195.718 51H180.733V19.5H195.223ZM194.863 32.235C196.183 32.235 197.233 31.92 198.013 31.29C198.793 30.63 199.183 29.73 199.183 28.59C199.183 27.48 198.793 26.625 198.013 26.025C197.233 25.395 196.183 25.095 194.863 25.125H187.843V32.235H194.863ZM194.863 45.375C196.543 45.375 197.863 45.03 198.823 44.34C199.783 43.65 200.263 42.675 200.263 41.415C200.263 40.245 199.783 39.315 198.823 38.625C197.863 37.935 196.543 37.605 194.863 37.635H187.843V45.375H194.863ZM227.574 32.82C225.954 32.67 224.529 32.865 223.299 33.405C222.099 33.945 221.169 34.725 220.509 35.745C219.879 36.765 219.564 37.98 219.564 39.39L217.809 39.075C217.809 36.435 218.199 34.185 218.979 32.325C219.789 30.465 220.929 29.04 222.399 28.05C223.869 27.06 225.594 26.565 227.574 26.565V32.82ZM212.634 26.835H219.564V51H212.634V26.835ZM239.113 40.515C237.793 40.515 236.803 40.74 236.143 41.19C235.483 41.64 235.153 42.36 235.153 43.35C235.153 44.31 235.483 45.075 236.143 45.645C236.833 46.185 237.763 46.455 238.933 46.455C239.953 46.455 240.853 46.29 241.633 45.96C242.443 45.6 243.103 45.135 243.613 44.565C244.153 43.965 244.483 43.275 244.603 42.495L245.638 46.365C244.948 47.985 243.868 49.215 242.398 50.055C240.928 50.895 239.128 51.315 236.998 51.315C235.288 51.315 233.803 50.985 232.543 50.325C231.313 49.665 230.353 48.765 229.663 47.625C229.003 46.485 228.673 45.195 228.673 43.755C228.673 41.505 229.468 39.735 231.058 38.445C232.648 37.155 234.928 36.495 237.898 36.465H245.278V40.515H239.113ZM244.558 36.015C244.558 34.695 244.123 33.66 243.253 32.91C242.413 32.16 241.168 31.785 239.518 31.785C238.438 31.785 237.283 31.98 236.053 32.37C234.823 32.73 233.578 33.255 232.318 33.945L230.158 29.445C231.358 28.815 232.528 28.29 233.668 27.87C234.808 27.45 235.978 27.135 237.178 26.925C238.378 26.685 239.683 26.565 241.093 26.565C244.363 26.565 246.883 27.33 248.653 28.86C250.423 30.39 251.323 32.505 251.353 35.205L251.398 51H244.603L244.558 36.015ZM274.605 37.77C274.605 36.18 274.17 34.935 273.3 34.035C272.46 33.135 271.305 32.685 269.835 32.685C268.125 32.715 266.775 33.33 265.785 34.53C264.795 35.73 264.3 37.245 264.3 39.075H262.545C262.545 36.255 262.95 33.93 263.76 32.1C264.6 30.24 265.77 28.86 267.27 27.96C268.8 27.03 270.6 26.565 272.67 26.565C274.47 26.565 276.03 26.955 277.35 27.735C278.7 28.485 279.735 29.55 280.455 30.93C281.175 32.31 281.535 33.945 281.535 35.835V51H274.605V37.77ZM257.37 26.835H264.3V51H257.37V26.835ZM303.672 34.845C303.042 34.035 302.262 33.405 301.332 32.955C300.402 32.505 299.337 32.28 298.137 32.28C297.027 32.28 296.037 32.565 295.167 33.135C294.297 33.675 293.607 34.455 293.097 35.475C292.617 36.465 292.377 37.635 292.377 38.985C292.377 40.305 292.617 41.475 293.097 42.495C293.607 43.515 294.297 44.31 295.167 44.88C296.037 45.42 297.027 45.69 298.137 45.69C299.367 45.69 300.462 45.465 301.422 45.015C302.382 44.535 303.162 43.83 303.762 42.9L308.532 46.05C307.512 47.7 306.072 48.975 304.212 49.875C302.382 50.775 300.252 51.225 297.822 51.225C295.362 51.225 293.202 50.715 291.342 49.695C289.482 48.675 288.027 47.25 286.977 45.42C285.957 43.56 285.447 41.415 285.447 38.985C285.447 36.525 285.957 34.365 286.977 32.505C288.027 30.645 289.482 29.205 291.342 28.185C293.232 27.135 295.392 26.61 297.822 26.61C300.162 26.61 302.232 27.045 304.032 27.915C305.832 28.755 307.272 29.955 308.352 31.515L303.672 34.845ZM320.764 40.515C319.444 40.515 318.454 40.74 317.794 41.19C317.134 41.64 316.804 42.36 316.804 43.35C316.804 44.31 317.134 45.075 317.794 45.645C318.484 46.185 319.414 46.455 320.584 46.455C321.604 46.455 322.504 46.29 323.284 45.96C324.094 45.6 324.754 45.135 325.264 44.565C325.804 43.965 326.134 43.275 326.254 42.495L327.289 46.365C326.599 47.985 325.519 49.215 324.049 50.055C322.579 50.895 320.779 51.315 318.649 51.315C316.939 51.315 315.454 50.985 314.194 50.325C312.964 49.665 312.004 48.765 311.314 47.625C310.654 46.485 310.324 45.195 310.324 43.755C310.324 41.505 311.119 39.735 312.709 38.445C314.299 37.155 316.579 36.495 319.549 36.465H326.929V40.515H320.764ZM326.209 36.015C326.209 34.695 325.774 33.66 324.904 32.91C324.064 32.16 322.819 31.785 321.169 31.785C320.089 31.785 318.934 31.98 317.704 32.37C316.474 32.73 315.229 33.255 313.969 33.945L311.809 29.445C313.009 28.815 314.179 28.29 315.319 27.87C316.459 27.45 317.629 27.135 318.829 26.925C320.029 26.685 321.334 26.565 322.744 26.565C326.014 26.565 328.534 27.33 330.304 28.86C332.074 30.39 332.974 32.505 333.004 35.205L333.049 51H326.254L326.209 36.015Z" fill="#4A4A4A"/>
<g filter="url(#filter0_d_45_63)">
<path d="M27.4162 31.7798C27.4431 31.8246 27.4793 31.863 27.5223 31.8926C27.5653 31.9222 27.6141 31.9423 27.6654 31.9515C27.7168 31.9607 27.7695 31.9588 27.8201 31.946C27.8707 31.9332 27.918 31.9097 27.9587 31.8772L27.9806 31.8597C28.5505 31.3817 29.0569 30.8972 29.5414 30.3722C34.2184 25.2971 31.4894 19.0594 31.4675 19.0025C31.4017 18.8547 31.3871 18.6892 31.4262 18.5323C31.4652 18.3753 31.5556 18.2359 31.683 18.1362C31.8159 18.0405 31.9774 17.9927 32.141 18.0009C32.3045 18.009 32.4605 18.0726 32.5832 18.1811C48.4428 32.9294 44.2394 44.1635 43.9376 44.9214C42.6655 49.5021 37.6145 52.8173 31.6207 52.988C31.4205 53 31.2674 53 31.0913 53C24.0157 53 18 48.6424 18 43.0697V42.9855C18 35.2602 24.9903 27.6378 25.3031 27.3195C25.3959 27.2117 25.5221 27.138 25.6616 27.1101C25.8011 27.0821 25.9459 27.1015 26.0731 27.1652C26.2015 27.2187 26.3106 27.3101 26.3859 27.4271C26.4611 27.5442 26.4989 27.6814 26.4942 27.8204C26.4318 29.3309 26.7392 30.6467 27.4162 31.758V31.7798Z" fill="url(#paint0_linear_45_63)"/>
</g>
<defs>
<filter id="filter0_d_45_63" x="0.499745" y="0.499745" width="70.413" height="78.7506" filterUnits="userSpaceOnUse" color-interpolation-filters="sRGB">
<feFlood flood-opacity="0" result="BackgroundImageFix"/>
<feColorMatrix in="SourceAlpha" type="matrix" values="0 0 0 0 0 0 0 0 0 0 0 0 0 0 0 0 0 0 127 0" result="hardAlpha"/>
<feOffset dx="4.37506" dy="4.37506"/>
<feGaussianBlur stdDeviation="10.9377"/>
<feComposite in2="hardAlpha" operator="out"/>
<feColorMatrix type="matrix" values="0 0 0 0 0 0 0 0 0 0 0 0 0 0 0 0 0 0 0.25 0"/>
<feBlend mode="normal" in2="BackgroundImageFix" result="effect1_dropShadow_45_63"/>
<feBlend mode="normal" in="SourceGraphic" in2="effect1_dropShadow_45_63" result="shape"/>
</filter>
<linearGradient id="paint0_linear_45_63" x1="31.3312" y1="18" x2="31.3312" y2="53" gradientUnits="userSpaceOnUse">
<stop stop-color="#FF004C"/>
<stop offset="1" stop-color="#FF00D6"/>
</linearGradient>
</defs>
</svg>
