<svg width="365" height="80" viewBox="0 0 161 35" fill="none" xmlns="http://www.w3.org/2000/svg">
<path d="M37.2082 12.3624C36.7455 11.7939 36.1902 11.351 35.5425 11.0337C34.8947 10.7032 34.2469 10.538 33.5991 10.538C33.0041 10.538 32.4489 10.6503 31.9333 10.8751C31.4309 11.0998 30.9814 11.4171 30.5848 11.8269C30.2014 12.2236 29.904 12.6929 29.6925 13.2349C29.4809 13.7769 29.3752 14.3653 29.3752 14.9998C29.3752 15.6212 29.4809 16.2029 29.6925 16.7449C29.904 17.2869 30.2014 17.7629 30.5848 18.1727C30.9814 18.5693 31.4309 18.8866 31.9333 19.1246C32.4489 19.3493 33.0041 19.4617 33.5991 19.4617C34.2336 19.4617 34.8682 19.3163 35.5028 19.0254C36.1374 18.7214 36.7058 18.3181 37.2082 17.8158L39.0525 19.7393C38.5633 20.2417 38.008 20.678 37.3867 21.0481C36.7786 21.4183 36.1374 21.7092 35.4631 21.9207C34.7889 22.119 34.1147 22.2181 33.4404 22.2181C32.396 22.2181 31.4309 22.0397 30.5452 21.6827C29.6726 21.3125 28.9058 20.8036 28.2448 20.1558C27.597 19.4947 27.088 18.728 26.7179 17.8554C26.3477 16.9829 26.1626 16.0376 26.1626 15.0197C26.1626 14.0149 26.3477 13.0829 26.7179 12.2236C27.088 11.3642 27.6102 10.6107 28.2845 9.96288C28.9587 9.31508 29.7387 8.81271 30.6245 8.45576C31.5235 8.09881 32.5018 7.92034 33.5594 7.92034C34.2336 7.92034 34.9013 8.01288 35.5623 8.19797C36.2365 8.38305 36.8645 8.64746 37.4462 8.99119C38.0411 9.3217 38.5699 9.73153 39.0326 10.2207L37.2082 12.3624ZM44.554 17.3795C43.9723 17.3795 43.5361 17.4786 43.2452 17.6769C42.9544 17.8753 42.8089 18.1925 42.8089 18.6288C42.8089 19.0519 42.9544 19.389 43.2452 19.6402C43.5493 19.8781 43.9591 19.9971 44.4747 19.9971C44.9242 19.9971 45.3208 19.9244 45.6645 19.779C46.0215 19.6203 46.3123 19.4154 46.5371 19.1642C46.775 18.8998 46.9205 18.5958 46.9733 18.252L47.4294 19.9575C47.1254 20.6714 46.6494 21.2134 46.0016 21.5836C45.3539 21.9537 44.5606 22.1388 43.622 22.1388C42.8684 22.1388 42.214 21.9934 41.6588 21.7025C41.1167 21.4117 40.6937 21.0151 40.3896 20.5127C40.0988 20.0103 39.9533 19.4419 39.9533 18.8073C39.9533 17.8158 40.3037 17.0358 41.0044 16.4673C41.705 15.8988 42.7098 15.608 44.0186 15.5947H47.2708V17.3795H44.554ZM46.9535 15.3964C46.9535 14.8147 46.7618 14.3586 46.3784 14.0281C46.0083 13.6976 45.4596 13.5324 44.7325 13.5324C44.2566 13.5324 43.7476 13.6183 43.2055 13.7902C42.6635 13.9488 42.1149 14.1802 41.5596 14.4842L40.6078 12.5012C41.1366 12.2236 41.6522 11.9922 42.1545 11.8071C42.6569 11.622 43.1725 11.4832 43.7013 11.3907C44.2301 11.2849 44.8052 11.232 45.4266 11.232C46.8676 11.232 47.9781 11.5692 48.7581 12.2434C49.5381 12.9176 49.9347 13.8497 49.9479 15.0395L49.9678 22H46.9733L46.9535 15.3964ZM59.3219 14.4049C58.7402 14.0876 58.1651 13.8431 57.5966 13.6712C57.0281 13.4861 56.5192 13.3936 56.0697 13.3936C55.7127 13.3936 55.4153 13.4597 55.1773 13.5919C54.9525 13.7241 54.8402 13.9356 54.8402 14.2264C54.8402 14.5041 54.9724 14.7288 55.2368 14.9007C55.5144 15.0593 55.8647 15.1981 56.2878 15.3171C56.7241 15.4361 57.1802 15.5749 57.6561 15.7336C58.132 15.879 58.5815 16.0707 59.0046 16.3086C59.4408 16.5466 59.7912 16.8705 60.0556 17.2803C60.32 17.6769 60.4522 18.1925 60.4522 18.8271C60.4522 19.541 60.2605 20.1492 59.8771 20.6515C59.4937 21.1407 58.9715 21.5108 58.3105 21.762C57.6495 22 56.9158 22.119 56.1093 22.119C55.25 22.119 54.4171 21.9934 53.6107 21.7422C52.8042 21.491 52.0969 21.1208 51.4888 20.6317L52.4803 18.6486C53.0356 19.0717 53.6437 19.4022 54.3047 19.6402C54.979 19.8649 55.6069 19.9773 56.1886 19.9773C56.453 19.9773 56.6844 19.9442 56.8827 19.8781C57.081 19.812 57.2397 19.7129 57.3586 19.5807C57.4776 19.4485 57.5371 19.2832 57.5371 19.0849C57.5371 18.7941 57.4049 18.5627 57.1405 18.3908C56.8761 18.2058 56.5324 18.0537 56.1093 17.9347C55.6863 17.8025 55.2368 17.6703 54.7608 17.5381C54.2849 17.3927 53.8354 17.201 53.4124 16.9631C53.0025 16.7251 52.6654 16.4144 52.401 16.031C52.1366 15.6344 52.0044 15.1254 52.0044 14.5041C52.0044 13.7637 52.1961 13.1556 52.5795 12.6797C52.9629 12.1905 53.4719 11.8269 54.1064 11.589C54.741 11.351 55.4417 11.232 56.2085 11.232C56.9488 11.232 57.6759 11.3312 58.3898 11.5295C59.1169 11.7278 59.778 12.012 60.3729 12.3822L59.3219 14.4049ZM66.263 17.3795C65.6813 17.3795 65.245 17.4786 64.9542 17.6769C64.6633 17.8753 64.5179 18.1925 64.5179 18.6288C64.5179 19.0519 64.6633 19.389 64.9542 19.6402C65.2583 19.8781 65.6681 19.9971 66.1837 19.9971C66.6332 19.9971 67.0298 19.9244 67.3735 19.779C67.7305 19.6203 68.0213 19.4154 68.2461 19.1642C68.484 18.8998 68.6294 18.5958 68.6823 18.252L69.1384 19.9575C68.8344 20.6714 68.3584 21.2134 67.7106 21.5836C67.0628 21.9537 66.2696 22.1388 65.331 22.1388C64.5774 22.1388 63.923 21.9934 63.3678 21.7025C62.8257 21.4117 62.4027 21.0151 62.0986 20.5127C61.8078 20.0103 61.6623 19.4419 61.6623 18.8073C61.6623 17.8158 62.0127 17.0358 62.7133 16.4673C63.414 15.8988 64.4188 15.608 65.7276 15.5947H68.9798V17.3795H66.263ZM68.6625 15.3964C68.6625 14.8147 68.4708 14.3586 68.0874 14.0281C67.7172 13.6976 67.1686 13.5324 66.4415 13.5324C65.9655 13.5324 65.4566 13.6183 64.9145 13.7902C64.3725 13.9488 63.8239 14.1802 63.2686 14.4842L62.3167 12.5012C62.8455 12.2236 63.3611 11.9922 63.8635 11.8071C64.3659 11.622 64.8815 11.4832 65.4103 11.3907C65.9391 11.2849 66.5142 11.232 67.1355 11.232C68.5766 11.232 69.6871 11.5692 70.4671 12.2434C71.2471 12.9176 71.6437 13.8497 71.6569 15.0395L71.6767 22H68.6823L68.6625 15.3964ZM86.0982 8.11864C87.1161 8.11864 87.9953 8.25746 88.7356 8.53509C89.476 8.81271 90.0444 9.21593 90.441 9.74475C90.8509 10.2603 91.0558 10.8751 91.0558 11.589C91.0558 12.3425 90.8377 12.9969 90.4014 13.5522C89.9783 14.0942 89.3966 14.4578 88.6563 14.6429C89.5553 14.8147 90.2626 15.218 90.7782 15.8525C91.2938 16.4739 91.5515 17.2407 91.5515 18.1529C91.5515 18.9461 91.3334 19.6336 90.8971 20.2153C90.4741 20.7837 89.8726 21.2266 89.0926 21.5439C88.3126 21.848 87.3871 22 86.3163 22H79.7127V8.11864H86.0982ZM85.9395 13.7307C86.5212 13.7307 86.9839 13.5919 87.3277 13.3142C87.6714 13.0234 87.8432 12.6268 87.8432 12.1244C87.8432 11.6353 87.6714 11.2585 87.3277 10.9941C86.9839 10.7164 86.5212 10.5842 85.9395 10.5975H82.846V13.7307H85.9395ZM85.9395 19.5212C86.6799 19.5212 87.2615 19.3692 87.6846 19.0651C88.1077 18.761 88.3192 18.3314 88.3192 17.7761C88.3192 17.2605 88.1077 16.8507 87.6846 16.5466C87.2615 16.2425 86.6799 16.0971 85.9395 16.1103H82.846V19.5212H85.9395ZM100.355 13.9885C99.6407 13.9224 99.0127 14.0083 98.4707 14.2463C97.9419 14.4842 97.532 14.828 97.2412 15.2775C96.9636 15.7269 96.8248 16.2624 96.8248 16.8837L96.0514 16.7449C96.0514 15.5815 96.2232 14.59 96.567 13.7703C96.9239 12.9507 97.4263 12.3227 98.0741 11.8864C98.7219 11.4502 99.482 11.232 100.355 11.232V13.9885ZM93.7709 11.351H96.8248V22H93.7709V11.351ZM105.44 17.3795C104.858 17.3795 104.422 17.4786 104.131 17.6769C103.84 17.8753 103.695 18.1925 103.695 18.6288C103.695 19.0519 103.84 19.389 104.131 19.6402C104.435 19.8781 104.845 19.9971 105.361 19.9971C105.81 19.9971 106.207 19.9244 106.55 19.779C106.907 19.6203 107.198 19.4154 107.423 19.1642C107.661 18.8998 107.806 18.5958 107.859 18.252L108.315 19.9575C108.011 20.6714 107.535 21.2134 106.888 21.5836C106.24 21.9537 105.446 22.1388 104.508 22.1388C103.754 22.1388 103.1 21.9934 102.545 21.7025C102.003 21.4117 101.58 21.0151 101.275 20.5127C100.985 20.0103 100.839 19.4419 100.839 18.8073C100.839 17.8158 101.19 17.0358 101.89 16.4673C102.591 15.8988 103.596 15.608 104.904 15.5947H108.157V17.3795H105.44ZM107.839 15.3964C107.839 14.8147 107.648 14.3586 107.264 14.0281C106.894 13.6976 106.345 13.5324 105.618 13.5324C105.142 13.5324 104.633 13.6183 104.091 13.7902C103.549 13.9488 103.001 14.1802 102.445 14.4842L101.494 12.5012C102.022 12.2236 102.538 11.9922 103.04 11.8071C103.543 11.622 104.058 11.4832 104.587 11.3907C105.116 11.2849 105.691 11.232 106.312 11.232C107.753 11.232 108.864 11.5692 109.644 12.2434C110.424 12.9176 110.821 13.8497 110.834 15.0395L110.854 22H107.859L107.839 15.3964ZM121.08 16.1698C121.08 15.4692 120.889 14.9205 120.505 14.5239C120.135 14.1273 119.626 13.929 118.978 13.929C118.225 13.9422 117.63 14.2132 117.193 14.742C116.757 15.2708 116.539 15.9385 116.539 16.7449H115.766C115.766 15.5022 115.944 14.4776 116.301 13.6712C116.671 12.8515 117.187 12.2434 117.848 11.8468C118.522 11.4369 119.315 11.232 120.228 11.232C121.021 11.232 121.708 11.4039 122.29 11.7476C122.885 12.0781 123.341 12.5475 123.658 13.1556C123.976 13.7637 124.134 14.4842 124.134 15.3171V22H121.08V16.1698ZM113.485 11.351H116.539V22H113.485V11.351ZM133.889 14.8808C133.612 14.5239 133.268 14.2463 132.858 14.048C132.448 13.8497 131.979 13.7505 131.45 13.7505C130.961 13.7505 130.525 13.8761 130.141 14.1273C129.758 14.3653 129.454 14.709 129.229 15.1585C129.018 15.5947 128.912 16.1103 128.912 16.7053C128.912 17.2869 129.018 17.8025 129.229 18.252C129.454 18.7015 129.758 19.0519 130.141 19.3031C130.525 19.541 130.961 19.66 131.45 19.66C131.992 19.66 132.475 19.5608 132.898 19.3625C133.321 19.151 133.664 18.8403 133.929 18.4305L136.031 19.8186C135.581 20.5458 134.947 21.1076 134.127 21.5042C133.321 21.9008 132.382 22.0992 131.311 22.0992C130.227 22.0992 129.275 21.8744 128.456 21.4249C127.636 20.9754 126.995 20.3475 126.532 19.541C126.083 18.7214 125.858 17.7761 125.858 16.7053C125.858 15.6212 126.083 14.6693 126.532 13.8497C126.995 13.03 127.636 12.3954 128.456 11.9459C129.289 11.4832 130.24 11.2519 131.311 11.2519C132.342 11.2519 133.255 11.4436 134.048 11.8269C134.841 12.1971 135.476 12.7259 135.952 13.4134L133.889 14.8808ZM141.421 17.3795C140.84 17.3795 140.403 17.4786 140.113 17.6769C139.822 17.8753 139.676 18.1925 139.676 18.6288C139.676 19.0519 139.822 19.389 140.113 19.6402C140.417 19.8781 140.826 19.9971 141.342 19.9971C141.792 19.9971 142.188 19.9244 142.532 19.779C142.889 19.6203 143.18 19.4154 143.404 19.1642C143.642 18.8998 143.788 18.5958 143.841 18.252L144.297 19.9575C143.993 20.6714 143.517 21.2134 142.869 21.5836C142.221 21.9537 141.428 22.1388 140.489 22.1388C139.736 22.1388 139.081 21.9934 138.526 21.7025C137.984 21.4117 137.561 21.0151 137.257 20.5127C136.966 20.0103 136.821 19.4419 136.821 18.8073C136.821 17.8158 137.171 17.0358 137.872 16.4673C138.572 15.8988 139.577 15.608 140.886 15.5947H144.138V17.3795H141.421ZM143.821 15.3964C143.821 14.8147 143.629 14.3586 143.246 14.0281C142.876 13.6976 142.327 13.5324 141.6 13.5324C141.124 13.5324 140.615 13.6183 140.073 13.7902C139.531 13.9488 138.982 14.1802 138.427 14.4842L137.475 12.5012C138.004 12.2236 138.52 11.9922 139.022 11.8071C139.524 11.622 140.04 11.4832 140.569 11.3907C141.098 11.2849 141.673 11.232 142.294 11.232C143.735 11.232 144.845 11.5692 145.625 12.2434C146.405 12.9176 146.802 13.8497 146.815 15.0395L146.835 22H143.841L143.821 15.3964Z" fill="white"/>
<g filter="url(#filter0_d_88_237)">
<path d="M12.1495 13.9201C12.1614 13.9398 12.1773 13.9568 12.1963 13.9698C12.2152 13.9829 12.2367 13.9917 12.2593 13.9958C12.282 13.9998 12.3052 13.999 12.3275 13.9934C12.3498 13.9877 12.3706 13.9774 12.3886 13.963L12.3982 13.9553C12.6494 13.7447 12.8725 13.5312 13.086 13.2998C15.1471 11.0633 13.9445 8.31449 13.9348 8.28942C13.9058 8.22432 13.8994 8.15138 13.9166 8.08221C13.9338 8.01304 13.9737 7.95161 14.0298 7.90768C14.0884 7.86549 14.1595 7.84446 14.2316 7.84805C14.3037 7.85164 14.3724 7.87964 14.4265 7.92744C21.4155 14.4267 19.5631 19.3773 19.4301 19.7113C18.8695 21.73 16.6437 23.1909 14.0023 23.2661C13.9141 23.2714 13.8466 23.2714 13.769 23.2714C10.651 23.2714 8 21.3511 8 18.8953V18.8582C8 15.4539 11.0805 12.0948 11.2183 11.9545C11.2592 11.907 11.3148 11.8746 11.3763 11.8623C11.4378 11.8499 11.5016 11.8585 11.5576 11.8866C11.6142 11.9102 11.6623 11.9504 11.6955 12.002C11.7286 12.0536 11.7453 12.114 11.7432 12.1753C11.7157 12.8409 11.8512 13.4208 12.1495 13.9105V13.9201Z" fill="url(#paint0_linear_88_237)"/>
</g>
<defs>
<filter id="filter0_d_88_237" x="0.288023" y="0.135679" width="31.0295" height="34.7038" filterUnits="userSpaceOnUse" color-interpolation-filters="sRGB">
<feFlood flood-opacity="0" result="BackgroundImageFix"/>
<feColorMatrix in="SourceAlpha" type="matrix" values="0 0 0 0 0 0 0 0 0 0 0 0 0 0 0 0 0 0 127 0" result="hardAlpha"/>
<feOffset dx="1.92799" dy="1.92799"/>
<feGaussianBlur stdDeviation="4.81999"/>
<feComposite in2="hardAlpha" operator="out"/>
<feColorMatrix type="matrix" values="0 0 0 0 0 0 0 0 0 0 0 0 0 0 0 0 0 0 0.25 0"/>
<feBlend mode="normal" in2="BackgroundImageFix" result="effect1_dropShadow_88_237"/>
<feBlend mode="normal" in="SourceGraphic" in2="effect1_dropShadow_88_237" result="shape"/>
</filter>
<linearGradient id="paint0_linear_88_237" x1="13.8748" y1="7.84766" x2="13.8748" y2="23.2714" gradientUnits="userSpaceOnUse">
<stop stop-color="#FFD700"/>
<stop offset="0.229167" stop-color="#EEC60F"/>
<stop offset="0.458333" stop-color="#D7B126"/>
<stop offset="0.729167" stop-color="#C6A132"/>
<stop offset="1" stop-color="#CD9505"/>
</linearGradient>
</defs>
</svg>
