<svg width="24" height="14" viewBox="0 0 24 14" fill="none" xmlns="http://www.w3.org/2000/svg">
<path fill-rule="evenodd" clip-rule="evenodd" d="M0 1.74942C0 0.78325 0.76752 0 1.71429 0H22.2857C23.2325 0 24 0.78325 24 1.74942C24 2.71559 23.2325 3.49884 22.2857 3.49884H1.71429C0.76752 3.49884 0 2.71559 0 1.74942Z" fill="white"/>
<path fill-rule="evenodd" clip-rule="evenodd" d="M0 7.0004C0 6.03423 0.76752 5.25098 1.71429 5.25098H22.2857C23.2325 5.25098 24 6.03423 24 7.0004C24 7.9666 23.2325 8.74981 22.2857 8.74981H1.71429C0.76752 8.74981 0 7.9666 0 7.0004Z" fill="white"/>
<path fill-rule="evenodd" clip-rule="evenodd" d="M0 12.2504C0 11.2842 0.76752 10.501 1.71429 10.501H22.2857C23.2325 10.501 24 11.2842 24 12.2504C24 13.2166 23.2325 13.9998 22.2857 13.9998H1.71429C0.76752 13.9998 0 13.2166 0 12.2504Z" fill="white"/>
</svg>
