<svg width="173" height="55" viewBox="0 0 173 55" fill="none" xmlns="http://www.w3.org/2000/svg">
<path d="M85.156 1.61804L88.5042 11.9226L88.6164 12.2681H88.9797L99.8146 12.2681L91.049 18.6367L90.7551 18.8502L90.8673 19.1957L94.2155 29.5003L85.4499 23.1317L85.156 22.9182L84.8621 23.1317L76.0965 29.5003L79.4446 19.1957L79.5569 18.8502L79.263 18.6367L70.4974 12.2681L81.3323 12.2681H81.6956L81.8078 11.9226L85.156 1.61804Z" fill="url(#paint0_linear_200_24)" stroke="black"/>
<path d="M121.487 1.61804L124.835 11.9226L124.947 12.2681H125.311L136.146 12.2681L127.38 18.6367L127.086 18.8502L127.198 19.1957L130.547 29.5003L121.781 23.1317L121.487 22.9182L121.193 23.1317L112.428 29.5003L115.776 19.1957L115.888 18.8502L115.594 18.6367L106.828 12.2681L117.663 12.2681H118.027L118.139 11.9226L121.487 1.61804Z" fill="url(#paint1_linear_200_24)" stroke="black"/>
<path d="M51.0925 1.61804L54.4407 11.9226L54.5529 12.2681H54.9162L65.7511 12.2681L56.9855 18.6367L56.6916 18.8502L56.8038 19.1957L60.152 29.5003L51.3864 23.1317L51.0925 22.9182L50.7986 23.1317L42.033 29.5003L45.3812 19.1957L45.4934 18.8502L45.1995 18.6367L36.4339 12.2681L47.2688 12.2681H47.6321L47.7443 11.9226L51.0925 1.61804Z" fill="url(#paint2_linear_200_24)" stroke="black"/>
<path d="M155.551 1.61804L158.899 11.9226L159.011 12.2681H159.374L170.209 12.2681L161.443 18.6367L161.15 18.8502L161.262 19.1957L164.61 29.5003L155.844 23.1317L155.551 22.9182L155.257 23.1317L146.491 29.5003L149.839 19.1957L149.951 18.8502L149.658 18.6367L140.892 12.2681L151.727 12.2681H152.09L152.202 11.9226L155.551 1.61804Z" fill="url(#paint3_linear_200_24)" stroke="black"/>
<path d="M17.031 1.61804L20.3792 11.9226L20.4914 12.2681H20.8547L31.6896 12.2681L22.924 18.6367L22.6301 18.8502L22.7423 19.1957L26.0905 29.5003L17.3249 23.1317L17.031 22.9182L16.7371 23.1317L7.97148 29.5003L11.3196 19.1957L11.4319 18.8502L11.138 18.6367L2.3724 12.2681L13.2073 12.2681H13.5706L13.6828 11.9226L17.031 1.61804Z" fill="url(#paint4_linear_200_24)" stroke="black"/>
<path d="M41.0597 35.645H43.3797L51.4797 46.745L50.8797 46.945V35.645H53.1997V49.645H50.8797L42.7997 38.565L43.4197 38.365V49.645H41.0597V35.645ZM61.3196 38.945C62.4129 38.945 63.3729 39.1717 64.1996 39.625C65.0396 40.0784 65.6929 40.7117 66.1596 41.525C66.6262 42.325 66.8596 43.2584 66.8596 44.325C66.8596 45.3917 66.6262 46.3317 66.1596 47.145C65.6929 47.9584 65.0396 48.5917 64.1996 49.045C63.3729 49.4984 62.4129 49.725 61.3196 49.725C60.2262 49.725 59.2596 49.4984 58.4196 49.045C57.5796 48.5917 56.9262 47.9584 56.4596 47.145C55.9929 46.3317 55.7596 45.3917 55.7596 44.325C55.7596 43.2584 55.9929 42.325 56.4596 41.525C56.9262 40.7117 57.5796 40.0784 58.4196 39.625C59.2596 39.1717 60.2262 38.945 61.3196 38.945ZM61.3196 40.805C60.6796 40.805 60.1129 40.9584 59.6196 41.265C59.1262 41.5584 58.7396 41.9717 58.4596 42.505C58.1929 43.0384 58.0596 43.6517 58.0596 44.345C58.0596 45.0517 58.1929 45.6717 58.4596 46.205C58.7396 46.7384 59.1262 47.1584 59.6196 47.465C60.1129 47.7584 60.6796 47.905 61.3196 47.905C61.9596 47.905 62.5196 47.7584 62.9996 47.465C63.4929 47.1584 63.8729 46.7384 64.1396 46.205C64.4196 45.6717 64.5596 45.0517 64.5596 44.345C64.5596 43.6517 64.4196 43.0384 64.1396 42.505C63.8729 41.9717 63.4929 41.5584 62.9996 41.265C62.5196 40.9584 61.9596 40.805 61.3196 40.805ZM67.1889 39.025H69.5889L72.5489 47.525L75.4689 39.025H77.7689L73.6889 49.645H71.3089L67.1889 39.025ZM79.3768 39.025H81.6568V49.645H79.3768V39.025ZM80.5168 34.645C80.9034 34.645 81.2234 34.7717 81.4768 35.025C81.7301 35.2784 81.8568 35.5984 81.8568 35.985C81.8568 36.3584 81.7301 36.6784 81.4768 36.945C81.2234 37.1984 80.9034 37.325 80.5168 37.325C80.1434 37.325 79.8234 37.1984 79.5568 36.945C79.3034 36.6784 79.1768 36.3584 79.1768 35.985C79.1768 35.5984 79.3034 35.2784 79.5568 35.025C79.8234 34.7717 80.1434 34.645 80.5168 34.645ZM89.1204 38.925C90.107 38.925 90.9404 39.145 91.6204 39.585C92.3137 40.0117 92.8404 40.6317 93.2004 41.445C93.5737 42.245 93.7537 43.205 93.7404 44.325C93.7537 45.445 93.5804 46.4117 93.2204 47.225C92.8604 48.0384 92.3337 48.665 91.6404 49.105C90.9604 49.5317 90.1337 49.745 89.1604 49.745C88.147 49.745 87.2537 49.5184 86.4804 49.065C85.7204 48.5984 85.127 47.9584 84.7004 47.145C84.2737 46.3184 84.0604 45.3717 84.0604 44.305C84.0604 43.2384 84.2737 42.305 84.7004 41.505C85.127 40.6917 85.7204 40.0584 86.4804 39.605C87.2404 39.1517 88.1204 38.925 89.1204 38.925ZM89.6404 40.785C89.0004 40.785 88.4337 40.9384 87.9404 41.245C87.447 41.5517 87.0604 41.9784 86.7804 42.525C86.5137 43.0584 86.3737 43.6717 86.3604 44.365C86.3737 45.0584 86.5137 45.6717 86.7804 46.205C87.0604 46.7384 87.447 47.1584 87.9404 47.465C88.4337 47.7717 89.0004 47.925 89.6404 47.925C90.2804 47.925 90.847 47.7717 91.3404 47.465C91.8337 47.1584 92.2137 46.7384 92.4804 46.205C92.7604 45.6717 92.9004 45.0584 92.9004 44.365C92.9004 43.6584 92.7604 43.0384 92.4804 42.505C92.2137 41.9717 91.8337 41.5517 91.3404 41.245C90.847 40.9384 90.2804 40.785 89.6404 40.785ZM92.9004 34.805H95.2004V49.645H92.9004V34.805ZM102.173 44.905C101.426 44.905 100.873 45.0184 100.513 45.245C100.153 45.4717 99.9732 45.845 99.9732 46.365C99.9732 46.8584 100.153 47.2517 100.513 47.545C100.886 47.8384 101.393 47.985 102.033 47.985C102.606 47.985 103.12 47.885 103.573 47.685C104.026 47.485 104.386 47.2184 104.653 46.885C104.92 46.5384 105.06 46.1517 105.073 45.725L105.513 47.665C105.18 48.3584 104.673 48.8784 103.993 49.225C103.313 49.5717 102.5 49.745 101.553 49.745C100.793 49.745 100.133 49.5984 99.5732 49.305C99.0132 49.0117 98.5798 48.6184 98.2732 48.125C97.9665 47.6184 97.8132 47.0584 97.8132 46.445C97.8132 45.485 98.1598 44.7184 98.8532 44.145C99.5598 43.5717 100.553 43.2784 101.833 43.265H105.353V44.905H102.173ZM105.053 42.905C105.053 42.2117 104.84 41.6717 104.413 41.285C103.986 40.8984 103.353 40.705 102.513 40.705C102.006 40.705 101.486 40.7984 100.953 40.985C100.433 41.1717 99.9065 41.445 99.3732 41.805L98.4332 40.325C98.9265 40.0184 99.3932 39.765 99.8332 39.565C100.273 39.365 100.74 39.2117 101.233 39.105C101.74 38.9984 102.333 38.945 103.013 38.945C104.386 38.945 105.44 39.2784 106.173 39.945C106.92 40.5984 107.3 41.505 107.313 42.665L107.333 49.645H105.073L105.053 42.905ZM114.472 38.925C115.459 38.925 116.292 39.145 116.972 39.585C117.665 40.0117 118.192 40.6317 118.552 41.445C118.925 42.245 119.105 43.205 119.092 44.325C119.105 45.445 118.932 46.4117 118.572 47.225C118.212 48.0384 117.685 48.665 116.992 49.105C116.312 49.5317 115.485 49.745 114.512 49.745C113.499 49.745 112.605 49.5184 111.832 49.065C111.072 48.5984 110.479 47.9584 110.052 47.145C109.625 46.3184 109.412 45.3717 109.412 44.305C109.412 43.2384 109.625 42.305 110.052 41.505C110.479 40.6917 111.072 40.0584 111.832 39.605C112.592 39.1517 113.472 38.925 114.472 38.925ZM114.992 40.785C114.352 40.785 113.785 40.9384 113.292 41.245C112.799 41.5517 112.412 41.9784 112.132 42.525C111.865 43.0584 111.725 43.6717 111.712 44.365C111.725 45.0584 111.865 45.6717 112.132 46.205C112.412 46.7384 112.799 47.1584 113.292 47.465C113.785 47.7717 114.352 47.925 114.992 47.925C115.632 47.925 116.199 47.7717 116.692 47.465C117.185 47.1584 117.565 46.7384 117.832 46.205C118.112 45.6717 118.252 45.0584 118.252 44.365C118.252 43.6584 118.112 43.0384 117.832 42.505C117.565 41.9717 117.185 41.5517 116.692 41.245C116.199 40.9384 115.632 40.785 114.992 40.785ZM118.252 34.805H120.552V49.645H118.252V34.805ZM131.405 43.565C131.378 42.965 131.238 42.4584 130.985 42.045C130.745 41.6184 130.405 41.2917 129.965 41.065C129.525 40.825 129.018 40.705 128.445 40.705C127.805 40.705 127.245 40.8517 126.765 41.145C126.298 41.4384 125.931 41.8517 125.665 42.385C125.398 42.905 125.265 43.5184 125.265 44.225C125.265 44.985 125.405 45.645 125.685 46.205C125.978 46.765 126.378 47.1984 126.885 47.505C127.405 47.8117 127.998 47.965 128.665 47.965C129.851 47.965 130.851 47.545 131.665 46.705L132.885 47.925C132.365 48.4984 131.731 48.945 130.985 49.265C130.238 49.5717 129.405 49.725 128.485 49.725C127.391 49.725 126.438 49.4984 125.625 49.045C124.811 48.5917 124.178 47.965 123.725 47.165C123.271 46.3517 123.045 45.4117 123.045 44.345C123.045 43.2784 123.271 42.345 123.725 41.545C124.178 40.7317 124.811 40.0984 125.625 39.645C126.438 39.1917 127.371 38.9584 128.425 38.945C129.678 38.945 130.685 39.205 131.445 39.725C132.205 40.2317 132.745 40.9517 133.065 41.885C133.385 42.8184 133.498 43.925 133.405 45.205H124.905V43.565H131.405Z" fill="url(#paint5_linear_200_24)"/>
<path d="M41.0597 35.645V35.445H40.8597V35.645H41.0597ZM43.3797 35.645L43.5413 35.5271L43.4814 35.445H43.3797V35.645ZM51.4797 46.745L51.543 46.9348L51.8026 46.8482L51.6413 46.6271L51.4797 46.745ZM50.8797 46.945H50.6797V47.2225L50.943 47.1348L50.8797 46.945ZM50.8797 35.645V35.445H50.6797V35.645H50.8797ZM53.1997 35.645H53.3997V35.445H53.1997V35.645ZM53.1997 49.645V49.845H53.3997V49.645H53.1997ZM50.8797 49.645L50.7181 49.7629L50.778 49.845H50.8797V49.645ZM42.7997 38.565L42.7383 38.3747L42.4753 38.4595L42.6381 38.6829L42.7997 38.565ZM43.4197 38.365H43.6197V38.0904L43.3583 38.1747L43.4197 38.365ZM43.4197 49.645V49.845H43.6197V49.645H43.4197ZM41.0597 49.645H40.8597V49.845H41.0597V49.645ZM41.0597 35.845H43.3797V35.445H41.0597V35.845ZM43.2182 35.7629L51.3182 46.8629L51.6413 46.6271L43.5413 35.5271L43.2182 35.7629ZM51.4165 46.5553L50.8165 46.7553L50.943 47.1348L51.543 46.9348L51.4165 46.5553ZM51.0797 46.945V35.645H50.6797V46.945H51.0797ZM50.8797 35.845H53.1997V35.445H50.8797V35.845ZM52.9997 35.645V49.645H53.3997V35.645H52.9997ZM53.1997 49.445H50.8797V49.845H53.1997V49.445ZM51.0413 49.5272L42.9613 38.4472L42.6381 38.6829L50.7181 49.7629L51.0413 49.5272ZM42.8611 38.7554L43.4811 38.5554L43.3583 38.1747L42.7383 38.3747L42.8611 38.7554ZM43.2197 38.365V49.645H43.6197V38.365H43.2197ZM43.4197 49.445H41.0597V49.845H43.4197V49.445ZM41.2597 49.645V35.645H40.8597V49.645H41.2597ZM64.1996 39.625L64.1034 39.8004L64.1046 39.801L64.1996 39.625ZM66.1596 41.525L65.9861 41.6246L65.9868 41.6258L66.1596 41.525ZM66.1596 47.145L65.9861 47.0455L65.9861 47.0455L66.1596 47.145ZM64.1996 49.045L64.1046 48.869L64.1034 48.8697L64.1996 49.045ZM58.4196 49.045L58.5146 48.869L58.5146 48.869L58.4196 49.045ZM56.4596 47.145L56.2861 47.2446L56.2861 47.2446L56.4596 47.145ZM56.4596 41.525L56.6323 41.6258L56.633 41.6246L56.4596 41.525ZM58.4196 39.625L58.3246 39.449L58.3246 39.449L58.4196 39.625ZM59.6196 41.265L59.7218 41.437L59.7252 41.4349L59.6196 41.265ZM58.4596 42.505L58.2825 42.412L58.2807 42.4156L58.4596 42.505ZM58.4596 46.205L58.2806 46.2945L58.2825 46.298L58.4596 46.205ZM59.6196 47.465L59.514 47.6349L59.5174 47.6369L59.6196 47.465ZM62.9996 47.465L63.1039 47.6357L63.1052 47.6349L62.9996 47.465ZM64.1396 46.205L63.9625 46.112L63.9607 46.1156L64.1396 46.205ZM64.1396 42.505L63.9607 42.5945L63.9625 42.598L64.1396 42.505ZM62.9996 41.265L62.8918 41.4336L62.8974 41.4369L62.9996 41.265ZM61.3196 39.145C62.3847 39.145 63.3106 39.3656 64.1034 39.8004L64.2957 39.4497C63.4352 38.9777 62.4411 38.745 61.3196 38.745V39.145ZM64.1046 39.801C64.9124 40.237 65.5383 40.8441 65.9861 41.6246L66.333 41.4255C65.8475 40.5792 65.1667 39.9197 64.2946 39.449L64.1046 39.801ZM65.9868 41.6258C66.4331 42.3908 66.6596 43.2883 66.6596 44.325H67.0596C67.0596 43.2284 66.8194 42.2592 66.3323 41.4242L65.9868 41.6258ZM66.6596 44.325C66.6596 45.3616 66.4331 46.2664 65.9861 47.0455L66.333 47.2446C66.8194 46.397 67.0596 45.4217 67.0596 44.325H66.6596ZM65.9861 47.0455C65.5383 47.8259 64.9124 48.433 64.1046 48.869L64.2946 49.221C65.1667 48.7503 65.8475 48.0908 66.333 47.2446L65.9861 47.0455ZM64.1034 48.8697C63.3106 49.3044 62.3847 49.525 61.3196 49.525V49.925C62.4411 49.925 63.4352 49.6923 64.2957 49.2204L64.1034 48.8697ZM61.3196 49.525C60.2545 49.525 59.3214 49.3044 58.5146 48.869L58.3246 49.221C59.1978 49.6923 60.1979 49.925 61.3196 49.925V49.525ZM58.5146 48.869C57.7067 48.433 57.0808 47.8259 56.633 47.0455L56.2861 47.2446C56.7716 48.0908 57.4524 48.7503 58.3246 49.221L58.5146 48.869ZM56.633 47.0455C56.186 46.2664 55.9596 45.3616 55.9596 44.325H55.5596C55.5596 45.4217 55.7998 46.397 56.2861 47.2446L56.633 47.0455ZM55.9596 44.325C55.9596 43.2883 56.1861 42.3908 56.6323 41.6258L56.2868 41.4242C55.7997 42.2592 55.5596 43.2284 55.5596 44.325H55.9596ZM56.633 41.6246C57.0808 40.8441 57.7067 40.237 58.5146 39.801L58.3246 39.449C57.4524 39.9197 56.7716 40.5792 56.2861 41.4255L56.633 41.6246ZM58.5146 39.801C59.3214 39.3656 60.2545 39.145 61.3196 39.145V38.745C60.1979 38.745 59.1978 38.9778 58.3246 39.449L58.5146 39.801ZM61.3196 40.605C60.6462 40.605 60.0422 40.7668 59.514 41.0952L59.7252 41.4349C60.1836 41.1499 60.713 41.005 61.3196 41.005V40.605ZM59.5174 41.0931C58.9906 41.4063 58.5788 41.8477 58.2825 42.4121L58.6366 42.598C58.9004 42.0957 59.2618 41.7104 59.7218 41.4369L59.5174 41.0931ZM58.2807 42.4156C57.998 42.9809 57.8596 43.6257 57.8596 44.345H58.2596C58.2596 43.6777 58.3878 43.0958 58.6385 42.5945L58.2807 42.4156ZM57.8596 44.345C57.8596 45.077 57.9978 45.7287 58.2807 46.2945L58.6385 46.1156C58.388 45.6147 58.2596 45.0263 58.2596 44.345H57.8596ZM58.2825 46.298C58.5784 46.8616 58.9892 47.3087 59.514 47.6349L59.7252 47.2952C59.2632 47.008 58.9007 46.6151 58.6366 46.1121L58.2825 46.298ZM59.5174 47.6369C60.0451 47.9507 60.6478 48.105 61.3196 48.105V47.705C60.7113 47.705 60.1807 47.566 59.7218 47.2931L59.5174 47.6369ZM61.3196 48.105C61.9912 48.105 62.5883 47.9507 63.1039 47.6357L62.8953 47.2944C62.4508 47.566 61.928 47.705 61.3196 47.705V48.105ZM63.1052 47.6349C63.6308 47.3082 64.0357 46.8599 64.3185 46.2945L63.9607 46.1156C63.7101 46.6168 63.3551 47.0085 62.894 47.2952L63.1052 47.6349ZM64.3167 46.298C64.6141 45.7314 64.7596 45.0785 64.7596 44.345H64.3596C64.3596 45.0249 64.225 45.612 63.9625 46.1121L64.3167 46.298ZM64.7596 44.345C64.7596 43.6242 64.6138 42.9781 64.3167 42.4121L63.9625 42.598C64.2253 43.0986 64.3596 43.6792 64.3596 44.345H64.7596ZM64.3185 42.4156C64.0354 41.8494 63.6294 41.4068 63.1018 41.0931L62.8974 41.4369C63.3564 41.7099 63.7104 42.094 63.9607 42.5945L64.3185 42.4156ZM63.1072 41.0965C62.5912 40.7668 61.9929 40.605 61.3196 40.605V41.005C61.9263 41.005 62.4479 41.1499 62.8919 41.4336L63.1072 41.0965ZM67.1889 39.025V38.825H66.8968L67.0025 39.0974L67.1889 39.025ZM69.5889 39.025L69.7778 38.9592L69.7311 38.825H69.5889V39.025ZM72.5489 47.525L72.3601 47.5908L72.5502 48.1369L72.7381 47.59L72.5489 47.525ZM75.4689 39.025V38.825H75.3262L75.2798 38.96L75.4689 39.025ZM77.7689 39.025L77.9556 39.0967L78.06 38.825H77.7689V39.025ZM73.6889 49.645V49.845H73.8264L73.8756 49.7167L73.6889 49.645ZM71.3089 49.645L71.1225 49.7174L71.172 49.845H71.3089V49.645ZM67.1889 39.225H69.5889V38.825H67.1889V39.225ZM69.4001 39.0908L72.3601 47.5908L72.7378 47.4592L69.7778 38.9592L69.4001 39.0908ZM72.7381 47.59L75.6581 39.09L75.2798 38.96L72.3598 47.46L72.7381 47.59ZM75.4689 39.225H77.7689V38.825H75.4689V39.225ZM77.5822 38.9533L73.5022 49.5733L73.8756 49.7167L77.9556 39.0967L77.5822 38.9533ZM73.6889 49.445H71.3089V49.845H73.6889V49.445ZM71.4954 49.5727L67.3754 38.9527L67.0025 39.0974L71.1225 49.7174L71.4954 49.5727ZM79.3768 39.025V38.825H79.1768V39.025H79.3768ZM81.6568 39.025H81.8568V38.825H81.6568V39.025ZM81.6568 49.645V49.845H81.8568V49.645H81.6568ZM79.3768 49.645H79.1768V49.845H79.3768V49.645ZM81.4768 35.025L81.3353 35.1664L81.3353 35.1664L81.4768 35.025ZM81.4768 36.945L81.6182 37.0865L81.6218 37.0828L81.4768 36.945ZM79.5568 36.945L79.4116 37.0829L79.419 37.09L79.5568 36.945ZM79.5568 35.025L79.419 34.88L79.4153 34.8836L79.5568 35.025ZM79.3768 39.225H81.6568V38.825H79.3768V39.225ZM81.4568 39.025V49.645H81.8568V39.025H81.4568ZM81.6568 49.445H79.3768V49.845H81.6568V49.445ZM79.5768 49.645V39.025H79.1768V49.645H79.5768ZM80.5168 34.845C80.855 34.845 81.1227 34.9538 81.3353 35.1664L81.6182 34.8836C81.3242 34.5896 80.9518 34.445 80.5168 34.445V34.845ZM81.3353 35.1664C81.548 35.3791 81.6568 35.6468 81.6568 35.985H82.0568C82.0568 35.55 81.9122 35.1776 81.6182 34.8836L81.3353 35.1664ZM81.6568 35.985C81.6568 36.3079 81.5492 36.5784 81.3318 36.8073L81.6218 37.0828C81.911 36.7783 82.0568 36.4088 82.0568 35.985H81.6568ZM81.3353 36.8036C81.1227 37.0163 80.855 37.125 80.5168 37.125V37.525C80.9518 37.525 81.3242 37.3804 81.6182 37.0864L81.3353 36.8036ZM80.5168 37.125C80.1938 37.125 79.9234 37.0175 79.6945 36.8L79.419 37.09C79.7235 37.3792 80.093 37.525 80.5168 37.525V37.125ZM79.7018 36.8073C79.4843 36.5784 79.3768 36.3079 79.3768 35.985H78.9768C78.9768 36.4088 79.1225 36.7783 79.4118 37.0828L79.7018 36.8073ZM79.3768 35.985C79.3768 35.6468 79.4855 35.3791 79.6982 35.1664L79.4153 34.8836C79.1213 35.1776 78.9768 35.55 78.9768 35.985H79.3768ZM79.6945 35.17C79.9234 34.9526 80.1938 34.845 80.5168 34.845V34.445C80.093 34.445 79.7235 34.5908 79.419 34.88L79.6945 35.17ZM91.6204 39.585L91.5117 39.753L91.5155 39.7554L91.6204 39.585ZM93.2004 41.445L93.0174 41.526L93.0191 41.5296L93.2004 41.445ZM93.7404 44.325L93.5403 44.3226L93.5404 44.3274L93.7404 44.325ZM91.6404 49.105L91.7467 49.2744L91.7475 49.2739L91.6404 49.105ZM86.4804 49.065L86.3757 49.2355L86.3792 49.2376L86.4804 49.065ZM84.7004 47.145L84.5226 47.2368L84.5232 47.2379L84.7004 47.145ZM84.7004 41.505L84.8768 41.5991L84.8775 41.5979L84.7004 41.505ZM86.4804 39.605L86.3779 39.4333L86.3779 39.4333L86.4804 39.605ZM87.9404 41.245L88.0459 41.4149L88.0459 41.4149L87.9404 41.245ZM86.7804 42.525L86.6023 42.4338L86.6015 42.4356L86.7804 42.525ZM86.3604 44.365L86.1602 44.3612L86.1604 44.3689L86.3604 44.365ZM86.7804 46.205L86.6014 46.2945L86.6033 46.298L86.7804 46.205ZM87.9404 47.465L88.0459 47.2952L88.0459 47.2952L87.9404 47.465ZM91.3404 47.465L91.2348 47.2952L91.2348 47.2952L91.3404 47.465ZM92.4804 46.205L92.3032 46.112L92.3015 46.1156L92.4804 46.205ZM92.4804 42.505L92.3014 42.5945L92.3033 42.598L92.4804 42.505ZM92.9004 34.805V34.605H92.7004V34.805H92.9004ZM95.2004 34.805H95.4004V34.605H95.2004V34.805ZM95.2004 49.645V49.845H95.4004V49.645H95.2004ZM92.9004 49.645H92.7004V49.845H92.9004V49.645ZM89.1204 39.125C90.0769 39.125 90.8705 39.338 91.5117 39.7529L91.729 39.4171C91.0102 38.952 90.1371 38.725 89.1204 38.725V39.125ZM91.5155 39.7554C92.1712 40.1588 92.6723 40.7461 93.0175 41.526L93.3832 41.3641C93.0084 40.5173 92.4562 39.8645 91.7252 39.4147L91.5155 39.7554ZM93.0191 41.5296C93.3768 42.2961 93.5534 43.2248 93.5404 44.3226L93.9403 44.3274C93.9539 43.1852 93.7706 42.194 93.3816 41.3604L93.0191 41.5296ZM93.5404 44.3274C93.5534 45.4259 93.3833 46.3628 93.0375 47.1441L93.4032 47.306C93.7774 46.4605 93.9539 45.4641 93.9403 44.3226L93.5404 44.3274ZM93.0375 47.1441C92.6921 47.9244 92.1904 48.5191 91.5332 48.9362L91.7475 49.2739C92.477 48.8109 93.0286 48.1523 93.4032 47.306L93.0375 47.1441ZM91.5341 48.9356C90.8921 49.3384 90.1041 49.545 89.1604 49.545V49.945C90.1633 49.945 91.0286 49.725 91.7467 49.2744L91.5341 48.9356ZM89.1604 49.545C88.1778 49.545 87.3203 49.3256 86.5815 48.8925L86.3792 49.2376C87.1871 49.7111 88.1162 49.945 89.1604 49.945V49.545ZM86.585 48.8946C85.8566 48.4473 85.2879 47.8345 84.8775 47.0521L84.5232 47.2379C84.9661 48.0822 85.5841 48.7494 86.3757 49.2355L86.585 48.8946ZM84.8781 47.0533C84.4681 46.2589 84.2604 45.3445 84.2604 44.305H83.8604C83.8604 45.3989 84.0793 46.3778 84.5226 47.2367L84.8781 47.0533ZM84.2604 44.305C84.2604 43.2654 84.4681 42.3655 84.8768 41.5991L84.5239 41.4109C84.0793 42.2446 83.8604 43.2113 83.8604 44.305H84.2604ZM84.8775 41.5979C85.2877 40.816 85.8557 40.2105 86.5828 39.7768L86.3779 39.4333C85.585 39.9062 84.9664 40.5674 84.5232 41.4121L84.8775 41.5979ZM86.5828 39.7768C87.308 39.3442 88.1516 39.125 89.1204 39.125V38.725C88.0891 38.725 87.1728 38.9591 86.3779 39.4333L86.5828 39.7768ZM89.6404 40.585C88.967 40.585 88.363 40.7468 87.8348 41.0752L88.0459 41.4149C88.5044 41.1299 89.0337 40.985 89.6404 40.985V40.585ZM87.8348 41.0752C87.3088 41.4021 86.8979 41.8568 86.6023 42.4338L86.9584 42.6162C87.2228 42.0999 87.5852 41.7013 88.0459 41.4149L87.8348 41.0752ZM86.6015 42.4356C86.3195 42.9995 86.1742 43.6429 86.1604 44.3612L86.5603 44.3689C86.5732 43.7004 86.7079 43.1172 86.9592 42.6145L86.6015 42.4356ZM86.1604 44.3689C86.1742 45.0871 86.3195 45.7305 86.6015 46.2945L86.9592 46.1156C86.7079 45.6129 86.5732 45.0296 86.5603 44.3612L86.1604 44.3689ZM86.6033 46.298C86.8992 46.8616 87.31 47.3087 87.8348 47.6349L88.0459 47.2952C87.584 47.008 87.2215 46.6151 86.9574 46.1121L86.6033 46.298ZM87.8348 47.6349C88.363 47.9632 88.967 48.125 89.6404 48.125V47.725C89.0337 47.725 88.5044 47.5802 88.0459 47.2952L87.8348 47.6349ZM89.6404 48.125C90.3137 48.125 90.9177 47.9632 91.4459 47.6349L91.2348 47.2952C90.7763 47.5802 90.247 47.725 89.6404 47.725V48.125ZM91.4459 47.6349C91.9715 47.3082 92.3765 46.8599 92.6592 46.2945L92.3015 46.1156C92.0509 46.6168 91.6958 47.0085 91.2348 47.2952L91.4459 47.6349ZM92.6574 46.298C92.9546 45.7319 93.1004 45.0858 93.1004 44.365H92.7004C92.7004 45.0309 92.5661 45.6115 92.3033 46.1121L92.6574 46.298ZM93.1004 44.365C93.1004 43.6316 92.9549 42.9786 92.6574 42.4121L92.3033 42.598C92.5658 43.0981 92.7004 43.6851 92.7004 44.365H93.1004ZM92.6592 42.4156C92.3765 41.8501 91.9715 41.4019 91.4459 41.0752L91.2348 41.4149C91.6958 41.7015 92.0509 42.0933 92.3015 42.5945L92.6592 42.4156ZM91.4459 41.0752C90.9177 40.7468 90.3137 40.585 89.6404 40.585V40.985C90.247 40.985 90.7763 41.1299 91.2348 41.4149L91.4459 41.0752ZM92.9004 35.005H95.2004V34.605H92.9004V35.005ZM95.0004 34.805V49.645H95.4004V34.805H95.0004ZM95.2004 49.445H92.9004V49.845H95.2004V49.445ZM93.1004 49.645V34.805H92.7004V49.645H93.1004ZM100.513 45.245L100.62 45.4143L100.62 45.4143L100.513 45.245ZM100.513 47.545L100.387 47.7001L100.39 47.7023L100.513 47.545ZM103.573 47.685L103.654 47.868L103.654 47.868L103.573 47.685ZM104.653 46.885L104.809 47.01L104.812 47.007L104.653 46.885ZM105.073 45.725L105.268 45.6808L104.873 45.7188L105.073 45.725ZM105.513 47.665L105.693 47.7517L105.724 47.6888L105.708 47.6208L105.513 47.665ZM103.993 49.225L103.902 49.0468L103.902 49.0468L103.993 49.225ZM99.5732 49.305L99.666 49.1279L99.666 49.1279L99.5732 49.305ZM98.2732 48.125L98.1021 48.2286L98.1033 48.2306L98.2732 48.125ZM98.8532 44.145L98.7272 43.9897L98.7257 43.9909L98.8532 44.145ZM101.833 43.265V43.065L101.831 43.065L101.833 43.265ZM105.353 43.265H105.553V43.065H105.353V43.265ZM105.353 44.905V45.105H105.553V44.905H105.353ZM105.053 42.905H104.853L104.853 42.9056L105.053 42.905ZM104.413 41.285L104.279 41.4332L104.279 41.4332L104.413 41.285ZM100.953 40.985L100.887 40.7962L100.886 40.7968L100.953 40.985ZM99.3732 41.805L99.2043 41.9122L99.3146 42.0858L99.4851 41.9708L99.3732 41.805ZM98.4332 40.325L98.3276 40.1552L98.1561 40.2618L98.2643 40.4322L98.4332 40.325ZM99.8332 39.565L99.9159 39.7471L99.9159 39.7471L99.8332 39.565ZM101.233 39.105L101.192 38.9093L101.191 38.9095L101.233 39.105ZM106.173 39.945L106.039 40.093L106.041 40.0955L106.173 39.945ZM107.313 42.665L107.513 42.6644L107.513 42.6627L107.313 42.665ZM107.333 49.645V49.845H107.534L107.533 49.6444L107.333 49.645ZM105.073 49.645L104.873 49.6456L104.874 49.845H105.073V49.645ZM102.173 44.705C101.414 44.705 100.814 44.8189 100.407 45.0758L100.62 45.4143C100.932 45.2178 101.439 45.105 102.173 45.105V44.705ZM100.407 45.0758C99.9749 45.3476 99.7732 45.7939 99.7732 46.365H100.173C100.173 45.8961 100.331 45.5958 100.62 45.4143L100.407 45.0758ZM99.7732 46.365C99.7732 46.9142 99.977 47.3661 100.387 47.7001L100.639 47.39C100.329 47.1373 100.173 46.8025 100.173 46.365H99.7732ZM100.39 47.7023C100.809 48.0316 101.364 48.185 102.033 48.185V47.785C101.422 47.785 100.964 47.6451 100.637 47.3878L100.39 47.7023ZM102.033 48.185C102.63 48.185 103.171 48.0809 103.654 47.868L103.492 47.502C103.068 47.6892 102.583 47.785 102.033 47.785V48.185ZM103.654 47.868C104.132 47.6571 104.52 47.3722 104.809 47.01L104.497 46.7601C104.253 47.0645 103.921 47.3129 103.492 47.502L103.654 47.868ZM104.812 47.007C105.103 46.6279 105.258 46.201 105.273 45.7313L104.873 45.7188C104.861 46.1024 104.736 46.4488 104.495 46.7631L104.812 47.007ZM104.878 45.7693L105.318 47.7093L105.708 47.6208L105.268 45.6808L104.878 45.7693ZM105.333 47.5784C105.018 48.2326 104.543 48.7202 103.902 49.0468L104.084 49.4032C104.803 49.0365 105.341 48.4841 105.693 47.7517L105.333 47.5784ZM103.902 49.0468C103.256 49.3761 102.476 49.545 101.553 49.545V49.945C102.524 49.945 103.37 49.7672 104.084 49.4032L103.902 49.0468ZM101.553 49.545C100.819 49.545 100.192 49.4034 99.666 49.1279L99.4804 49.4822C100.074 49.7933 100.767 49.945 101.553 49.945V49.545ZM99.666 49.1279C99.1347 48.8496 98.7292 48.4798 98.443 48.0194L98.1033 48.2306C98.4305 48.7569 98.8916 49.1738 99.4804 49.4822L99.666 49.1279ZM98.4443 48.0215C98.1572 47.5472 98.0132 47.0232 98.0132 46.445H97.6132C97.6132 47.0935 97.7758 47.6895 98.1021 48.2286L98.4443 48.0215ZM98.0132 46.445C98.0132 45.5401 98.3366 44.8317 98.9806 44.2991L98.7257 43.9909C97.983 44.605 97.6132 45.43 97.6132 46.445H98.0132ZM98.9792 44.3003C99.6389 43.765 100.582 43.4781 101.835 43.465L101.831 43.065C100.524 43.0786 99.4807 43.3783 98.7272 43.9897L98.9792 44.3003ZM101.833 43.465H105.353V43.065H101.833V43.465ZM105.153 43.265V44.905H105.553V43.265H105.153ZM105.353 44.705H102.173V45.105H105.353V44.705ZM105.253 42.905C105.253 42.1677 105.024 41.5691 104.547 41.1368L104.279 41.4332C104.655 41.7743 104.853 42.2556 104.853 42.905H105.253ZM104.547 41.1368C104.07 40.7043 103.38 40.505 102.513 40.505V40.905C103.326 40.905 103.903 41.0924 104.279 41.4332L104.547 41.1368ZM102.513 40.505C101.982 40.505 101.439 40.603 100.887 40.7962L101.019 41.1738C101.534 40.9937 102.031 40.905 102.513 40.905V40.505ZM100.886 40.7968C100.348 40.9899 99.8062 41.2714 99.2613 41.6392L99.4851 41.9708C100.007 41.6186 100.519 41.3535 101.021 41.1733L100.886 40.7968ZM99.542 41.6978L98.602 40.2178L98.2643 40.4322L99.2043 41.9122L99.542 41.6978ZM98.5388 40.4949C99.0262 40.1919 99.4852 39.9429 99.9159 39.7471L99.7504 39.3829C99.3012 39.5871 98.8268 39.8448 98.3276 40.1552L98.5388 40.4949ZM99.9159 39.7471C100.342 39.5532 100.795 39.4043 101.275 39.3005L101.191 38.9095C100.684 39.0191 100.204 39.1768 99.7504 39.3829L99.9159 39.7471ZM101.274 39.3007C101.764 39.1976 102.343 39.145 103.013 39.145V38.745C102.323 38.745 101.716 38.7991 101.192 38.9093L101.274 39.3007ZM103.013 39.145C104.356 39.145 105.354 39.4708 106.039 40.093L106.308 39.797C105.525 39.0859 104.417 38.745 103.013 38.745V39.145ZM106.041 40.0955C106.738 40.705 107.1 41.5536 107.113 42.6673L107.513 42.6627C107.499 41.4564 107.102 40.4917 106.305 39.7945L106.041 40.0955ZM107.113 42.6656L107.133 49.6456L107.533 49.6444L107.513 42.6644L107.113 42.6656ZM107.333 49.445H105.073V49.845H107.333V49.445ZM105.273 49.6444L105.253 42.9044L104.853 42.9056L104.873 49.6456L105.273 49.6444ZM116.972 39.585L116.863 39.753L116.867 39.7554L116.972 39.585ZM118.552 41.445L118.369 41.526L118.371 41.5296L118.552 41.445ZM119.092 44.325L118.892 44.3226L118.892 44.3274L119.092 44.325ZM116.992 49.105L117.098 49.2744L117.099 49.2739L116.992 49.105ZM111.832 49.065L111.727 49.2355L111.731 49.2376L111.832 49.065ZM110.052 47.145L109.874 47.2368L109.875 47.2379L110.052 47.145ZM110.052 41.505L110.228 41.5991L110.229 41.5979L110.052 41.505ZM111.832 39.605L111.729 39.4333L111.729 39.4333L111.832 39.605ZM113.292 41.245L113.398 41.4149L113.398 41.4149L113.292 41.245ZM112.132 42.525L111.954 42.4338L111.953 42.4356L112.132 42.525ZM111.712 44.365L111.512 44.3612L111.512 44.3689L111.712 44.365ZM112.132 46.205L111.953 46.2945L111.955 46.298L112.132 46.205ZM113.292 47.465L113.398 47.2952L113.398 47.2952L113.292 47.465ZM116.692 47.465L116.586 47.2952L116.586 47.2952L116.692 47.465ZM117.832 46.205L117.655 46.112L117.653 46.1156L117.832 46.205ZM117.832 42.505L117.653 42.5945L117.655 42.598L117.832 42.505ZM118.252 34.805V34.605H118.052V34.805H118.252ZM120.552 34.805H120.752V34.605H120.552V34.805ZM120.552 49.645V49.845H120.752V49.645H120.552ZM118.252 49.645H118.052V49.845H118.252V49.645ZM114.472 39.125C115.428 39.125 116.222 39.338 116.863 39.7529L117.081 39.4171C116.362 38.952 115.489 38.725 114.472 38.725V39.125ZM116.867 39.7554C117.523 40.1588 118.024 40.7461 118.369 41.526L118.735 41.3641C118.36 40.5173 117.808 39.8645 117.077 39.4147L116.867 39.7554ZM118.371 41.5296C118.728 42.2961 118.905 43.2248 118.892 44.3226L119.292 44.3274C119.305 43.1852 119.122 42.194 118.733 41.3604L118.371 41.5296ZM118.892 44.3274C118.905 45.4259 118.735 46.3628 118.389 47.1441L118.755 47.306C119.129 46.4605 119.305 45.4641 119.292 44.3226L118.892 44.3274ZM118.389 47.1441C118.044 47.9244 117.542 48.5191 116.885 48.9362L117.099 49.2739C117.829 48.8109 118.38 48.1523 118.755 47.306L118.389 47.1441ZM116.886 48.9356C116.244 49.3384 115.456 49.545 114.512 49.545V49.945C115.515 49.945 116.38 49.725 117.098 49.2744L116.886 48.9356ZM114.512 49.545C113.529 49.545 112.672 49.3256 111.933 48.8925L111.731 49.2376C112.539 49.7111 113.468 49.945 114.512 49.945V49.545ZM111.937 48.8946C111.208 48.4473 110.639 47.8345 110.229 47.0521L109.875 47.2379C110.318 48.0822 110.936 48.7494 111.727 49.2355L111.937 48.8946ZM110.23 47.0533C109.82 46.2589 109.612 45.3445 109.612 44.305H109.212C109.212 45.3989 109.431 46.3778 109.874 47.2367L110.23 47.0533ZM109.612 44.305C109.612 43.2654 109.82 42.3655 110.228 41.5991L109.875 41.4109C109.431 42.2446 109.212 43.2113 109.212 44.305H109.612ZM110.229 41.5979C110.639 40.816 111.207 40.2105 111.934 39.7768L111.729 39.4333C110.937 39.9062 110.318 40.5674 109.875 41.4121L110.229 41.5979ZM111.934 39.7768C112.66 39.3442 113.503 39.125 114.472 39.125V38.725C113.441 38.725 112.524 38.9591 111.729 39.4333L111.934 39.7768ZM114.992 40.585C114.319 40.585 113.715 40.7468 113.186 41.0752L113.398 41.4149C113.856 41.1299 114.385 40.985 114.992 40.985V40.585ZM113.186 41.0752C112.66 41.4021 112.249 41.8568 111.954 42.4338L112.31 42.6162C112.574 42.0999 112.937 41.7013 113.398 41.4149L113.186 41.0752ZM111.953 42.4356C111.671 42.9995 111.526 43.6429 111.512 44.3612L111.912 44.3689C111.925 43.7004 112.059 43.1172 112.311 42.6145L111.953 42.4356ZM111.512 44.3689C111.526 45.0871 111.671 45.7305 111.953 46.2945L112.311 46.1156C112.059 45.6129 111.925 45.0296 111.912 44.3612L111.512 44.3689ZM111.955 46.298C112.251 46.8616 112.662 47.3087 113.186 47.6349L113.398 47.2952C112.936 47.008 112.573 46.6151 112.309 46.1121L111.955 46.298ZM113.186 47.6349C113.715 47.9632 114.319 48.125 114.992 48.125V47.725C114.385 47.725 113.856 47.5802 113.398 47.2952L113.186 47.6349ZM114.992 48.125C115.665 48.125 116.269 47.9632 116.798 47.6349L116.586 47.2952C116.128 47.5802 115.599 47.725 114.992 47.725V48.125ZM116.798 47.6349C117.323 47.3082 117.728 46.8599 118.011 46.2945L117.653 46.1156C117.402 46.6168 117.047 47.0085 116.586 47.2952L116.798 47.6349ZM118.009 46.298C118.306 45.7319 118.452 45.0858 118.452 44.365H118.052C118.052 45.0309 117.918 45.6115 117.655 46.1121L118.009 46.298ZM118.452 44.365C118.452 43.6316 118.306 42.9786 118.009 42.4121L117.655 42.598C117.917 43.0981 118.052 43.6851 118.052 44.365H118.452ZM118.011 42.4156C117.728 41.8501 117.323 41.4019 116.798 41.0752L116.586 41.4149C117.047 41.7015 117.402 42.0933 117.653 42.5945L118.011 42.4156ZM116.798 41.0752C116.269 40.7468 115.665 40.585 114.992 40.585V40.985C115.599 40.985 116.128 41.1299 116.586 41.4149L116.798 41.0752ZM118.252 35.005H120.552V34.605H118.252V35.005ZM120.352 34.805V49.645H120.752V34.805H120.352ZM120.552 49.445H118.252V49.845H120.552V49.445ZM118.452 49.645V34.805H118.052V49.645H118.452ZM131.405 43.565V43.765H131.614L131.605 43.5561L131.405 43.565ZM130.985 42.045L130.81 42.1431L130.814 42.1495L130.985 42.045ZM129.965 41.065L129.869 41.2406L129.873 41.2428L129.965 41.065ZM126.765 41.145L126.66 40.9743L126.658 40.9757L126.765 41.145ZM125.665 42.385L125.843 42.4763L125.844 42.4745L125.665 42.385ZM125.685 46.205L125.506 46.2945L125.508 46.2978L125.685 46.205ZM126.885 47.505L126.781 47.6761L126.783 47.6773L126.885 47.505ZM131.665 46.705L131.806 46.5636L131.662 46.4199L131.521 46.5659L131.665 46.705ZM132.885 47.925L133.033 48.0594L133.161 47.9183L133.026 47.7836L132.885 47.925ZM130.985 49.265L131.061 49.45L131.064 49.4488L130.985 49.265ZM125.625 49.045L125.527 49.2197L125.527 49.2197L125.625 49.045ZM123.725 47.165L123.55 47.2624L123.551 47.2636L123.725 47.165ZM123.725 41.545L123.899 41.6436L123.899 41.6424L123.725 41.545ZM125.625 39.645L125.722 39.8197L125.722 39.8197L125.625 39.645ZM128.425 38.945V38.745L128.422 38.745L128.425 38.945ZM131.445 39.725L131.332 39.8901L131.334 39.8914L131.445 39.725ZM133.065 41.885L132.876 41.9499L132.876 41.9499L133.065 41.885ZM133.405 45.205V45.405H133.591L133.604 45.2196L133.405 45.205ZM124.905 45.205H124.705V45.405H124.905V45.205ZM124.905 43.565V43.365H124.705V43.565H124.905ZM131.605 43.5561C131.577 42.9303 131.43 42.3888 131.155 41.9405L130.814 42.1495C131.046 42.5279 131.179 42.9998 131.205 43.5739L131.605 43.5561ZM131.159 41.947C130.9 41.4858 130.531 41.1316 130.056 40.8872L129.873 41.2428C130.279 41.4518 130.59 41.7509 130.81 42.1431L131.159 41.947ZM130.06 40.8894C129.587 40.6312 129.047 40.505 128.445 40.505V40.905C128.989 40.905 129.462 41.0188 129.869 41.2406L130.06 40.8894ZM128.445 40.505C127.773 40.505 127.176 40.6593 126.66 40.9744L126.869 41.3157C127.313 41.0441 127.836 40.905 128.445 40.905V40.505ZM126.658 40.9757C126.158 41.2901 125.767 41.7323 125.486 42.2956L125.844 42.4745C126.095 41.9711 126.438 41.5866 126.871 41.3143L126.658 40.9757ZM125.487 42.2938C125.203 42.8473 125.065 43.4932 125.065 44.225H125.465C125.465 43.5435 125.593 42.9627 125.843 42.4763L125.487 42.2938ZM125.065 44.225C125.065 45.0095 125.209 45.7014 125.506 46.2945L125.864 46.1156C125.6 45.5887 125.465 44.9605 125.465 44.225H125.065ZM125.508 46.2978C125.817 46.8879 126.241 47.3493 126.781 47.6761L126.988 47.3339C126.515 47.0474 126.139 46.6422 125.862 46.1122L125.508 46.2978ZM126.783 47.6773C127.337 48.004 127.966 48.165 128.665 48.165V47.765C128.03 47.765 127.472 47.6194 126.986 47.3327L126.783 47.6773ZM128.665 48.165C129.905 48.165 130.957 47.7237 131.808 46.8441L131.521 46.5659C130.746 47.3663 129.798 47.765 128.665 47.765V48.165ZM131.523 46.8464L132.743 48.0664L133.026 47.7836L131.806 46.5636L131.523 46.8464ZM132.737 47.7907C132.237 48.3417 131.628 48.7719 130.906 49.0812L131.064 49.4488C131.835 49.1181 132.493 48.655 133.033 48.0594L132.737 47.7907ZM130.909 49.08C130.189 49.3755 129.382 49.525 128.485 49.525V49.925C129.427 49.925 130.287 49.7679 131.061 49.45L130.909 49.08ZM128.485 49.525C127.42 49.525 126.501 49.3044 125.722 48.8703L125.527 49.2197C126.375 49.6923 127.363 49.925 128.485 49.925V49.525ZM125.722 48.8703C124.94 48.4346 124.334 47.8341 123.899 47.0664L123.551 47.2636C124.022 48.096 124.682 48.7488 125.527 49.2197L125.722 48.8703ZM123.899 47.0676C123.465 46.2882 123.245 45.3826 123.245 44.345H122.845C122.845 45.4407 123.078 46.4152 123.55 47.2624L123.899 47.0676ZM123.245 44.345C123.245 43.3073 123.465 42.409 123.899 41.6436L123.551 41.4464C123.078 42.281 122.845 43.2494 122.845 44.345H123.245ZM123.899 41.6424C124.335 40.8615 124.941 40.255 125.722 39.8197L125.527 39.4703C124.682 39.9417 124.021 40.6019 123.55 41.4476L123.899 41.6424ZM125.722 39.8197C126.503 39.3846 127.403 39.158 128.427 39.145L128.422 38.745C127.34 38.7587 126.373 38.9988 125.527 39.4703L125.722 39.8197ZM128.425 39.145C129.652 39.145 130.615 39.3997 131.332 39.8901L131.558 39.56C130.754 39.0103 129.704 38.745 128.425 38.745V39.145ZM131.334 39.8914C132.054 40.3718 132.569 41.0545 132.876 41.9499L133.254 41.8202C132.921 40.8488 132.355 40.0916 131.556 39.5586L131.334 39.8914ZM132.876 41.9499C133.185 42.8513 133.297 43.9296 133.205 45.1905L133.604 45.2196C133.699 43.9204 133.585 42.7854 133.254 41.8202L132.876 41.9499ZM133.405 45.005H124.905V45.405H133.405V45.005ZM125.105 45.205V43.565H124.705V45.205H125.105ZM124.905 43.765H131.405V43.365H124.905V43.765Z" fill="black"/>
<defs>
<linearGradient id="paint0_linear_200_24" x1="85.156" y1="0" x2="85.156" y2="34.062" gradientUnits="userSpaceOnUse">
<stop stop-color="#E4BC00"/>
<stop offset="1" stop-color="#5C4C00"/>
</linearGradient>
<linearGradient id="paint1_linear_200_24" x1="121.487" y1="0" x2="121.487" y2="34.062" gradientUnits="userSpaceOnUse">
<stop stop-color="#E4BC00"/>
<stop offset="1" stop-color="#5C4C00"/>
</linearGradient>
<linearGradient id="paint2_linear_200_24" x1="51.0925" y1="0" x2="51.0925" y2="34.062" gradientUnits="userSpaceOnUse">
<stop stop-color="#E4BC00"/>
<stop offset="1" stop-color="#5C4C00"/>
</linearGradient>
<linearGradient id="paint3_linear_200_24" x1="155.551" y1="0" x2="155.551" y2="34.062" gradientUnits="userSpaceOnUse">
<stop stop-color="#E4BC00"/>
<stop offset="1" stop-color="#5C4C00"/>
</linearGradient>
<linearGradient id="paint4_linear_200_24" x1="17.031" y1="0" x2="17.031" y2="34.062" gradientUnits="userSpaceOnUse">
<stop stop-color="#E4BC00"/>
<stop offset="1" stop-color="#5C4C00"/>
</linearGradient>
<linearGradient id="paint5_linear_200_24" x1="86.6611" y1="30.645" x2="86.6611" y2="54.645" gradientUnits="userSpaceOnUse">
<stop stop-color="#E4BC00"/>
<stop offset="1" stop-color="#5C4C00"/>
</linearGradient>
</defs>
</svg>
