<svg width="232" height="232" viewBox="0 0 232 232" fill="none" xmlns="http://www.w3.org/2000/svg">
<path d="M78 40C62.9686 40 48.2748 44.4573 35.7767 52.8083C23.2786 61.1593 13.5374 73.0289 7.78519 86.9161C2.03293 100.803 0.527876 116.084 3.46035 130.827C6.39283 145.569 13.6311 159.111 24.2599 169.74C34.8887 180.369 48.4306 187.607 63.1732 190.54C77.9157 193.472 93.1968 191.967 107.084 186.215C120.971 180.463 132.841 170.721 141.192 158.223C149.543 145.725 154 131.031 154 116C154 95.8435 145.993 76.5126 131.74 62.2599C117.487 48.0071 98.1565 40 78 40ZM78 138.8C73.4906 138.8 69.0825 137.463 65.333 134.957C61.5836 132.452 58.6612 128.891 56.9356 124.725C55.2099 120.559 54.7584 115.975 55.6381 111.552C56.5179 107.129 58.6894 103.067 61.878 99.878C65.0666 96.6893 69.1292 94.5178 73.552 93.6381C77.9747 92.7583 82.5591 93.2099 86.7252 94.9355C90.8914 96.6612 94.4522 99.5836 96.9575 103.333C99.4628 107.082 100.8 111.491 100.8 116C100.804 118.995 100.217 121.962 99.0726 124.73C97.9282 127.498 96.249 130.013 94.131 132.131C92.013 134.249 89.498 135.928 86.7299 137.073C83.9619 138.217 80.9953 138.804 78 138.8Z" fill="#00AEEF"/>
<path d="M163.424 97C182.734 102.557 205.528 97 205.528 97C198.913 125.88 177.937 143.968 147.689 146.169C141.824 159.783 132.097 171.38 119.711 179.526C107.326 187.671 92.8241 192.008 78 192L100.8 119.532C124.238 45.0464 136.252 40 191.836 40H230C223.616 68.12 201.612 89.6006 163.424 97Z" fill="#008CCF"/>
</svg>
