<svg width="40" height="40" viewBox="0 0 40 40" fill="none" xmlns="http://www.w3.org/2000/svg">
<path d="M20 40C31.0457 40 40 31.0457 40 20C40 8.95431 31.0457 0 20 0C8.95431 0 0 8.95431 0 20C0 31.0457 8.95431 40 20 40Z" fill="url(#paint0_linear_302_3)"/>
<path d="M16.3366 29.1654C15.6886 29.1654 15.7988 28.9207 15.5753 28.3037L13.6699 22.0332L28.3366 13.332" fill="#CBD9E8"/>
<path d="M16.3369 29.1643C16.8369 29.1643 17.0577 28.9356 17.3369 28.6643L20.0036 26.0713L16.6772 24.0654" fill="#AFC9DE"/>
<path d="M16.6755 24.0676L24.7355 30.0225C25.6553 30.53 26.319 30.2671 26.5482 29.1686L29.829 13.7081C30.1648 12.3615 29.3157 11.7505 28.4357 12.15L9.17066 19.5785C7.85566 20.106 7.8635 20.8396 8.931 21.1665L13.8748 22.7096L25.3203 15.4888C25.8607 15.1611 26.3567 15.3371 25.9497 15.6985" fill="white"/>
<defs>
<linearGradient id="paint0_linear_302_3" x1="20" y1="0" x2="20" y2="39.7033" gradientUnits="userSpaceOnUse">
<stop stop-color="#2AABEE"/>
<stop offset="1" stop-color="#229ED9"/>
</linearGradient>
</defs>
</svg>
